<svg height="1024" viewBox="0 0 1958 1024" width="1958" xmlns="http://www.w3.org/2000/svg"><g fill="none" fill-rule="evenodd"><path d="m0 0h1958v1024h-1958z" fill="#5b8c6e"/><g fill="#5a8c70" stroke="#fff"><path d="m1104.34961-2.08795345c0 67.20963445 25.8648 153.23982445 28.36482 225.39560545 1.78084 51.398937 4.86058 96.605065-15.20564 119.869351-67.77232 78.573553-306.102059 191.103748-344.499455 267.073922-38.397395 75.970174-45.713957 101.710515-45.713957 173.229795 0 47.67952 7.747269 116.7183 23.241808 207.116339l4.733853 51.864731h1202.728961c0-706.87566 0-1060.313488 0-1060.313488s-853.65039 0-853.65039 15.76374455z"/><path d="m56.5417387-1.65647023-18.7101432 117.37019923c.6777583 117.071 11.7100743 202.166424 33.096948 255.286271 10.5506553 26.205289 41.1244265 36.227729 106.7956685 67.80938 134.008659 64.445478 274.270432 120.728899 320.712388 145.147758 65.385925 34.379467 209.5634 58.209063 228.858778 155.061916s42.17218 284.980946 42.17218 284.980946-256.489186 0-769.467558 0c-2.47849188-683.77098-2.47849188-1025.65647023 0-1025.65647023z"/><g fill-rule="nonzero"><g transform="matrix(-.0348995 .99939083 -.99939083 -.0348995 712.736155 499.080661)"><path d="m541.149536 288.17046c37.066215 36.252822 39.942996 107.649816 28.214582 167.184267-11.728415 59.53445-38.062024 107.428086-75.128239 158.20421-37.066215 50.776123-84.865036 104.656464-133.327729 105.432518s-97.810549-51.441313-128.569976-102.328301c-30.870071-50.776124-43.151713-100.221868-33.746852-140.133232 9.40486-40.022228 40.496223-70.62094 71.255649-106.762897 30.759426-36.252822 61.297562-78.048888 112.194454-98.44803 50.786247-20.399141 122.041896-19.290492 159.108111 16.851465z"/><path d="m711.544818 69.0896383c77.643966 75.8085037 83.670065 225.1072077 59.102123 349.6000717-24.567941 124.492864-79.729923 224.643548-157.373889 330.821819-77.643967 106.178271-177.769917 218.84779-279.286506 220.470602s-204.887361-107.569253-269.3202648-213.979354c-64.66467637-106.178271-75.1726822-149.134916-55.47197438-232.593819 19.70070788-83.690733 64.16848628-187.817206 128.60138918-263.393879 64.432904-75.808504 112.083161-192.75743 218.698756-235.4142027 106.383823-42.6567727 277.4064-31.08791136 355.050366 44.488762z"/><path d="m638.635298 163.018816c60.281371 58.901006 64.959925 174.901763 45.88582 271.629102-19.074106 96.727339-61.90087 174.541512-122.182241 257.038944-60.281371 82.497433-138.017348 170.038377-216.832991 171.299255-78.815643 1.260877-159.070841-83.578185-209.095381-166.255744-50.2044852-82.497432-70.1783125-162.83336-54.8830393-227.678504 15.2952732-65.025269 65.8596473-114.739879 115.8841873-173.460759 50.024541-58.901005 99.689192-126.808281 182.463612-159.951354 82.594475-33.143074 198.478663-31.34182 258.760033 27.37906z"/><path d="m574.827464 245.518691c44.967171 43.880856 48.45716 130.300645 34.228742 202.361867s-46.175245 130.032261-91.142416 191.492298-102.954688 126.677455-161.747587 127.616801c-58.792898.939345-118.65964-62.26519-155.975681-123.859419-37.450271-61.460036-52.349841-121.309766-40.94026-169.618966 11.40958-48.443391 49.128312-85.480444 86.444353-129.227107 37.316041-43.880856 74.363621-94.471323 136.109587-119.162691 61.611737-24.691369 148.05609-23.349447 193.023262 20.397217z"/><path d="m499.46032 342.055195c27.01932 26.501521 29.116342 78.694118 20.566945 122.214963-8.549397 43.520846-27.745212 78.532029-54.764532 115.650366-27.01932 37.118338-61.862145 76.505919-97.188897 77.073229-35.326753.567311-71.298743-37.604604-93.720746-74.803986-22.502657-37.118337-31.455327-73.264142-24.599679-102.440128 6.855648-29.25703 29.519615-51.625286 51.941618-78.045762 22.422003-26.50152 44.682696-57.055261 81.783852-71.967431 37.020501-14.912171 88.962119-14.101727 115.981439 12.318749z"/><path d="m431.056445 430.269722c10.729694 10.537696 11.562446 31.290835 8.167379 48.59586-3.395068 17.305025-11.017955 31.226385-21.747649 45.985606-10.729693 14.75922-24.566194 30.420751-38.594868 30.646328-14.028675.225578-28.31358-14.952572-37.217625-29.744018-8.936073-14.75922-12.491285-29.131736-9.768826-40.73287 2.72246-11.633359 11.722591-20.527562 20.626636-31.033033 8.904044-10.537696 17.744031-22.686662 32.477342-28.61613 14.701282-5.929468 35.327917-5.607215 46.057611 4.898257z"/></g><g transform="translate(107 -246)"><path d="m801.436283 36.6738677c119.122814 75.4737983 156.443098 216.8818513 156.443098 280.3261323s27.321359 184.315741-42.853302 253.727365c-70.174661 69.411625-253.78455 259.310809-397.526079 239.449283-143.476812-20.126346-363.326559-114.854432-449.8891377-186.885566-86.5625782-72.031134-43.0170394-146.352875-62.87084177-289.620681-19.58908503-143.267807 35.10129057-159.725496 121.66386847-235.1992941 86.562579-75.4737983 181.453913-51.9988864 354.049635-61.7972392 172.331004-9.5335324 201.859945-75.4737983 320.982759 0z"/><path d="m768.540663 138.250091c83.219945 52.646793 90.380913 143.124101 83.90825 263.749909-6.472662 120.625808-61.488108 221.780201-144.708053 272.025561-83.219945 50.060634-169.811912 45.072356-270.230645 31.217937-100.233801-14.039144-182.006013-31.086334-242.479173-81.331693-60.47316-50.24536-92.24994-92.380939-106.1199306-192.317482-13.6850577-99.936542-6.6575956-213.542778 53.8155646-266.18957 60.47316-52.646793 174.207085-44.334141 294.783539-51.168988 120.39152-6.650121 247.810503-28.6324659 331.030448 24.014326z"/><path d="m649.506683 219.9096c53.231711 33.677872 78.191468 115.095604 74.051224 192.259289s-37.617075 150.073323-90.848786 182.215011c-53.23171 32.02352-126.2183 23.27909-190.451231 14.416492-64.114638-8.980765-115.965179-37.382156-154.646888-69.523844-38.68171-32.141689-63.958003-67.787338-72.829954-131.71621-8.75366-63.928872-4.258537-136.602174 34.423172-170.280046 38.68171-33.677872 111.431714-28.360313 188.558548-32.732528 77.008541-4.254047 158.512205-18.316035 211.743915 15.361836z"/><path d="m564.116369 297.876365c26.356442 16.718371 38.714684 57.135765 36.664739 95.441365s-18.625219 74.499406-44.98166 90.455184c-26.356442 15.897118-62.494051 11.556208-94.297491 7.156636-31.744869-4.458232-59.038428-8.916464-78.190776-24.872242-19.152347-15.955779-30.046343-43.291781-34.439083-75.027355-4.334171-31.735574-2.108516-67.812058 17.043832-84.530429 19.152347-16.71837 55.172817-14.078627 93.360372-16.249083 38.128986-2.111794 78.483626-9.092447 104.840067 7.625924z"/></g><g transform="translate(792 427)"><path d="m1183.98216 615.461787c-173.91516 128.751505-1053.045458 65.809558-1096.5659449 65.809558-88.89300169 0-82.16309083-136.166186-86.90397647-265.272292-9.51223863-259.041915 263.99562237-432.0329506 420.12155737-413.999053 134.013075 15.4796708 592.848934 176.849243 763.348364 336 28.1333 26.260709 22.02379 261.157309 0 277.461787z"/><path d="m1108.17359 483.433897c64.64273 139.193645 170.30626 288.048915 109.23824 401.311411-61.06801 113.262495-264.528761 136.213052-468.287402 136.213052-203.758642 0-341.983483-48.233076-476.631007-161.495572-134.34963-113.262495-203.8918899-274.880552-180.6562553-455.504426 22.9377413-180.623875 44.0857083-245.580673 225.7478253-323.2222658 181.662117-77.6415931 725.945879 263.5041548 790.588599 402.6978008z"/><path d="m994.423982 659.904701c-41.232237 76.543525-178.605982 92.053661-316.180861 92.053661-137.574878 0-274.948623-15.510136-365.860677-92.053661-90.710921-76.543525-134.960151-214.12044-119.271788-336.18722 15.487231-122.066779 113.681718-126.759119 208.214526-162.759119s422.550528 180.180271 492.717827 277.485319c3.003719 4.165431 141.613211 144.917495 100.380973 221.46102z"/><path d="m730.579375 436.195923c26.839566 57.643573 105.826961 57.711107 80.471611 104.615941-25.355349 46.904834-109.831954 56.409235-194.432243 56.409235s-169.076894-9.504401-224.982348-56.409235c-55.78177-46.904834-102.002827-65.343814-92.355425-140.144681 9.523717-74.800867 11.556581-85.65956 67.338351-132.811261 55.905454-47.028268 337.120489 110.696428 363.960054 168.340001z"/><path d="m616.486308 432.246948c14.300618 30.69776 56.386566 30.733725 42.876766 55.712631s-58.520501 30.040421-103.597103 30.040421-90.087302-5.061515-119.874765-30.040421c-29.72156-24.978906-54.348996-34.798481-49.208682-74.633262 5.074413-39.834781 6.157561-45.617517 35.879122-70.727891 29.787462-25.044639 179.624044 58.950761 193.924662 89.648522z"/></g><g transform="matrix(.9612617 -.27563736 .27563736 .9612617 1048.829336 -310.898046)"><path d="m671.773584 221.994581c69.937514 117.084948 80.948953 245.759522 116.36412 410.094486s103.851294 241.145852 33.913779 331.188336c-69.937514 90.042487-237.112224 39.884207-378.475286-18.658268-141.363062-58.542473-257.078259-121.432988-306.778536-211.475473-49.7002761-90.339655-91.3112922-174.291821-114.8222015-280.381481-23.51090925-106.089661-36.7799473-115.168502 12.6227228-231.956279 49.7002765-117.084948 179.4566867-221.09441895 308.9154907-220.805902 129.458805.30582289 258.322396 105.206804 328.259911 221.994581z"/><path d="m563.925174 246.448389c47.403948 79.34851 54.867549 166.551314 78.872101 277.921176 24.004552 111.369863 64.751776 246.705392 17.347828 307.727215-47.403948 61.021824-137.277129 13.585493-233.09362-26.088762-95.81649-39.674255-180.646912-105.478177-214.333973-166.5-33.687061-61.223216-40.763953-94.603-56.699748-166.5-15.935796-71.897-57.458154-148.21808-23.972812-227.365197 33.687061-79.34851 121.636513-149.8357649 209.384247-149.6385966 87.747734.205616 175.092029 71.2970476 222.495977 150.4441646z"/><path d="m480.988329 365.421572c23.701974 39.776245 27.433774 83.489732 39.43605 139.317813 12.002276 55.82808 32.375888 123.669798 8.673914 154.259144-23.701974 30.589345-91.479534 24.027275-139.387779 4.139152s-75.947176-53.001342-92.790707-83.590688c-16.84353-30.690301-22.390801-58.755773-30.358698-94.796686-7.967898-36.040912-18.255563-80.057265-1.512892-119.732555 16.84353-39.776245 60.818256-75.110473 104.692123-75.009734 43.873867.10117 87.546015 35.738263 111.247989 75.413554z"/></g></g></g></g></svg>