<svg clip-rule="evenodd" fill-rule="evenodd" stroke-linejoin="round" stroke-miterlimit="2" viewBox="0 0 512 512" xmlns="http://www.w3.org/2000/svg"><g fill-rule="nonzero"><path d="m245.404 50.863c24.502 29.141 38.973 44.7 81.596 62.137 21 9 40 21 56 38 .851 1.12 1.68 2.334 2.478 3.641 29.643 32.252 46.155 74.532 46.155 118.423 0 54.961-25.892 104.349-66.044 136.532-30.008 24.097-67.99 38.575-109.089 38.575-27.562 0-53.723-6.512-77.008-18.064-32.537-15.998-59.939-41.979-77.492-75.107-44-79-8-159 9-181l2.315-1.35c2.372-3.381 4.864-6.679 7.47-9.885.395-.581.8-1.169 1.215-1.765l.494-.306c16.927-20.191 38.481-36.679 63.506-47.694 31-15 53-24 57-65z" /><path d="m222.353 108.384c40.541 6.798-100.388 101.969-101.353 72.835 0-14.567 22.201-36.903 38.611-48.557 16.409-11.653 83.977-28.163 83.012-76.719 0 0 23.166 36.903-20.27 52.441m.965 166.064c-67.569 0-96.526 102.94-9.653 102.94 34.75 0 83.013-45.643 106.179-45.643s43.437 43.701 59.846 43.701c30.889 0 55.986-94.2 11.584-94.2-18.34 0-56.951 38.845-72.395 36.903-27.993-3.885-54.055-43.701-95.561-43.701m19.305 137.901c24.132 18.451 76.256 13.596 99.422-3.885 5.792-4.856 2.896-13.596-2.896-8.74-16.409 13.596-71.429 17.48-88.804 1.942-4.826-4.855-18.34 2.914-7.722 10.683m40.541-31.077c5.792-4.855 10.618-12.624 25.097-12.624s19.305 10.682 22.201 13.596c2.896 2.913 8.687-1.943 5.792-7.77-2.896-5.826-5.792-16.509-27.028-16.509s-28.958 13.596-32.819 16.509c-3.861 2.914-1.93 13.596 6.757 6.798" fill="#fff"/></g></svg>