<?xml version="1.0" encoding="UTF-8"?>
<svg width="60px" height="60px" version="1.1" viewBox="0 0 100 100" xmlns="http://www.w3.org/2000/svg">
 <g fill="#ffffff">
  <path d="m65.801 47.5-23.102-15.398c-2-1.3008-4.6016 0.10156-4.6016 2.5v30.801c0 2.3984 2.6992 3.8008 4.6016 2.5l23.102-15.398c1.8008-1.2031 1.8008-3.8047 0-5.0039z"/>
  <path d="m50 2.5c-26.199 0-47.5 21.301-47.5 47.5s21.301 47.5 47.5 47.5 47.5-21.301 47.5-47.5-21.301-47.5-47.5-47.5zm0 87.602c-22.102 0-40.102-18-40.102-40.102s18-40.102 40.102-40.102 40.102 18 40.102 40.102-18 40.102-40.102 40.102z"/>
 </g>
</svg>
