<svg version="1.1" id="Layer_1" xmlns="http://www.w3.org/2000/svg" x="0" y="0" viewBox="0 0 290 70" xml:space="preserve"><style type="text/css">.st1{fill:#00953b}.st4{fill:#0075c9}</style><path d="M55.74 53.09l2.12-3.03c1.01.97 2.52 1.74 4.34 1.74.77 0 1.49-.2 1.49-.73 0-1.29-7.51.02-7.51-5.29 0-2.28 1.9-4.46 5.59-4.46 2.2 0 4.18.63 5.71 1.88l-2.18 2.89c-1.17-.89-2.69-1.33-3.96-1.33-.81 0-1.03.26-1.03.61 0 1.27 7.49.18 7.49 5.19 0 2.97-2.2 4.68-5.81 4.68-2.86-.01-4.82-.86-6.25-2.15zm13.8-3.63v-7.93h4.14v7.79c0 1.29.85 2.32 2.52 2.32 1.66 0 2.5-1.03 2.5-2.32v-7.79h4.14v7.91c0 3.35-2.1 5.79-6.64 5.79s-6.66-2.44-6.66-5.77zm14.8 3.63l2.12-3.03c1.01.97 2.52 1.74 4.34 1.74.77 0 1.49-.2 1.49-.73 0-1.29-7.51.02-7.51-5.29 0-2.28 1.9-4.46 5.59-4.46 2.2 0 4.18.63 5.71 1.88l-2.18 2.89c-1.17-.89-2.69-1.33-3.96-1.33-.81 0-1.03.26-1.03.61 0 1.27 7.49.18 7.49 5.19 0 2.97-2.2 4.68-5.81 4.68-2.86-.01-4.82-.86-6.25-2.15zm16.49 1.9v-9.91h-3.61v-3.55h11.28v3.55h-3.59v9.91h-4.08zm17.29 0l-.48-1.58h-4.84l-.48 1.58h-4.62l4.97-13.46h5.13l4.97 13.46h-4.65zm-2.9-9.47l-1.33 4.34h2.67l-1.34-4.34zm9.06 9.47V41.53h4.08v13.46h-4.08zm15.7 0l-4.97-6.82v6.82h-4.08V41.53h4.2l4.68 6.38v-6.38h4.08v13.46h-3.91zm15.68 0l-.48-1.58h-4.84l-.48 1.58h-4.62l4.97-13.46h5.13l4.97 13.46h-4.65zm-2.91-9.47l-1.33 4.34h2.67l-1.34-4.34zm9.06 9.47V41.53h8.18c2.79 0 4 1.86 4 3.43 0 1.68-.99 2.81-2.3 3.09 1.45.22 2.56 1.55 2.56 3.29 0 1.88-1.27 3.65-3.98 3.65h-8.46zm8.04-9.31c0-.46-.38-.77-.81-.77h-3.15v1.58h3.15a.8.8 0 00.81-.81zm.26 5.07c0-.48-.36-.87-.95-.87h-3.27v1.72h3.27c.59 0 .95-.35.95-.85zm6.17 4.24V41.53h4.08v13.46h-4.08zm6.66 0V41.53h4.08v9.91h5.11v3.55h-9.19zm11.22 0V41.53h4.08v13.46h-4.08zm9.55 0v-9.91h-3.61v-3.55h11.29v3.55h-3.59v9.91h-4.09zm13.93 0v-5.35l-5.05-8.12h4.58l2.5 4.54 2.46-4.54h4.58l-5.01 8.12v5.35h-4.06z" fill="#00598c"/><path class="st1" d="M236.89 54.99l-4.97-6.82v6.82h-4.08V41.53h4.2l4.68 6.38v-6.38h4.08v13.46h-3.91zm5.77-6.72c0-4.14 3.21-6.96 7.37-6.96s7.37 2.83 7.37 6.96-3.21 6.96-7.37 6.96-7.37-2.82-7.37-6.96zm10.6 0c0-1.88-1.27-3.37-3.23-3.37s-3.23 1.49-3.23 3.37 1.27 3.37 3.23 3.37 3.23-1.5 3.23-3.37zm15.86 6.72l-1.74-7.63-1.74 7.63h-4.28l-3.86-13.46h4.56l1.74 8.24 2.04-8.24h3.07l2.04 8.24 1.72-8.24h4.58l-3.86 13.46h-4.27z"/><linearGradient id="SVGID_1_" gradientUnits="userSpaceOnUse" x1="21.437" y1="36.068" x2="47.23" y2="36.068"><stop offset="0" stop-color="#008bd1"/><stop offset="1" stop-color="#2b388f"/></linearGradient><path d="M34.08 16.83c-.1.68-.08 1.66.32 2.99l.05.16c.37 1.16.65 2.27.87 3.34.84 1.12 1.7 2.2 2.56 3.27 3.68 4.59 6.86 8.54 6.86 14.29 0 4.43-2.43 8.29-6.02 10.35 2.26-2.17 3.68-5.22 3.68-8.6 0-5.59-3.01-9.49-6.57-13.92-.15 8.31-4.96 13.03-7.5 14.94-3.3 2.49-5.25 4.17-6.51 5.62l-.4.46c2.64 3.39 6.75 5.58 11.38 5.58 7.96 0 14.41-6.45 14.41-14.41.02-10.23-8.61-15.43-13.13-24.07z" fill="url(#SVGID_1_)"/><linearGradient id="SVGID_2_" gradientUnits="userSpaceOnUse" x1="-482.088" y1="-271.826" x2="-474.527" y2="-290.952" gradientTransform="matrix(-.9532 .2462 .2933 .8937 -345.007 407.305)"><stop offset="0" stop-color="#a5cd39"/><stop offset=".092" stop-color="#91c73d"/><stop offset=".203" stop-color="#7fc241"/><stop offset=".324" stop-color="#75bf43"/><stop offset=".471" stop-color="#72be44"/><stop offset=".473" stop-color="#80c241"/><stop offset=".476" stop-color="#91c73d"/><stop offset=".481" stop-color="#9cca3b"/><stop offset=".487" stop-color="#a3cc39"/><stop offset=".504" stop-color="#a5cd39"/><stop offset=".601" stop-color="#91c73d"/><stop offset=".718" stop-color="#7fc241"/><stop offset=".845" stop-color="#75bf43"/><stop offset="1" stop-color="#72be44"/></linearGradient><path d="M28.21 62.16c-15.02-9.05-16.25-25.7-.13-41.06 0 0-14.77 14.65-7.93 26.71 1.54-1.77 3.84-3.66 6.85-5.93 10.17-7.67 5.62-20.24 5.27-21.42-1.36-4.52.69-6.45.69-6.45S7.63 20.6 13.68 46.79c2.68 11.6 14.53 15.37 14.53 15.37" fill="url(#SVGID_2_)"/><path class="st4" d="M63.59 36.63h-6.34c-.36 0-.65-.26-.65-.57 0-.32.29-.57.65-.57h5.58c-.17-1.19-.25-3.69 1.38-5.78 1.24-1.6 3.21-2.62 5.86-3.05-.14-1.92-.25-8.47 3.77-12.92C78.93 8.09 87.23 6.32 95 9.21c6.89 2.56 8.86 7.37 9.35 9.02.96-.13 2.88-.33 4.93-.13 3.94.37 6.4 2 7.14 4.71.08.31-.13.62-.48.69-.35.07-.7-.12-.78-.42-1.46-5.38-11.07-3.64-11.16-3.63a.72.72 0 01-.5-.09.54.54 0 01-.27-.38c-.04-.24-1.17-5.91-8.71-8.72-7.22-2.68-14.93-1.04-19.64 4.18-4.33 4.79-3.46 12.55-3.45 12.63.04.31-.21.58-.55.63-2.58.32-4.46 1.21-5.58 2.65-1.87 2.4-1.06 5.55-1.05 5.58a.5.5 0 01-.12.48.81.81 0 01-.54.22z"/><path d="M157.57 36.51c-2.17 0-3.76-.38-4.72-1.13-.99-.77-1.27-1.88-.84-3.29.03-.1.13-.17.25-.17l5.33-.01h0c.08 0 .15.03.2.08.05.05.07.12.06.19-.05.25.02.42.23.55.24.15.63.23 1.17.23.55 0 .98-.07 1.29-.2.27-.12.44-.29.51-.52.07-.23-.02-.33-.11-.4-.12-.09-.38-.21-.95-.29l-3.15-.44c-1.37-.19-2.34-.62-2.87-1.29-.54-.67-.64-1.57-.3-2.66.44-1.43 1.33-2.49 2.62-3.15 1.27-.65 3.09-.98 5.4-.98 2.44 0 4.12.33 5.13 1 1.04.69 1.39 1.76 1.04 3.19-.02.11-.13.18-.25.18h-5.11a.28.28 0 01-.2-.08.21.21 0 01-.06-.18c.05-.3-.03-.52-.27-.67-.27-.17-.71-.25-1.33-.25-.45 0-.82.07-1.11.2-.26.12-.42.27-.48.45s0 .25.07.3c.06.04.31.16 1.13.29l3.82.62c1.26.21 2.14.64 2.61 1.29.47.65.54 1.52.21 2.6-.49 1.57-1.51 2.73-3.02 3.46-1.48.72-3.61 1.08-6.3 1.08h0zm-5.11-4.13c-.31 1.16-.06 2.04.74 2.67.86.67 2.33 1.01 4.37 1.01 2.61 0 4.65-.35 6.06-1.03 1.39-.67 2.32-1.74 2.77-3.18.29-.94.25-1.69-.15-2.23-.39-.54-1.15-.9-2.27-1.09l-3.82-.62c-.93-.15-1.22-.29-1.36-.38-.26-.18-.35-.46-.25-.78.1-.31.35-.56.74-.74.37-.16.82-.25 1.35-.25.73 0 1.28.11 1.63.34.23.15.48.4.49.84h4.62c.24-1.16-.05-2-.88-2.55-.91-.6-2.53-.9-4.82-.9-2.22 0-3.95.31-5.14.92-1.17.6-1.98 1.57-2.38 2.88-.3.96-.22 1.73.22 2.28.45.56 1.3.93 2.53 1.1l3.15.44c.56.08.96.21 1.21.4.2.15.4.43.27.87-.11.36-.38.63-.78.81-.38.16-.89.24-1.52.24-.66 0-1.14-.1-1.47-.32-.28-.18-.44-.43-.46-.73h-4.85 0zm40.55 3.76h-11.33c-.08 0-.16-.03-.21-.09-.05-.06-.07-.13-.04-.2l3.85-12.32c.03-.1.13-.17.25-.17h4.4c.08 0 .16.03.21.09.05.06.07.13.04.2l-2.7 8.65h6.59c.08 0 .16.03.21.09.05.06.07.13.05.2l-1.05 3.38c-.05.1-.15.17-.27.17h0zm-10.99-.46h10.8l.91-2.92h-6.59c-.08 0-.16-.03-.21-.09-.05-.06-.07-.13-.04-.2l2.7-8.65h-3.86l-3.71 11.86h0zm-2.35.46h-12.4c-.08 0-.16-.03-.21-.09a.21.21 0 01-.04-.2l3.85-12.32c.03-.1.13-.17.25-.17h12.02c.08 0 .16.03.21.09.05.06.07.13.04.2l-.94 3.02c-.03.1-.13.17-.25.17h-7.42l-.32 1.01h5.84c.08 0 .16.03.21.09.05.06.07.13.04.2l-.95 3.04c-.03.1-.13.17-.25.17h-5.98L173 32.5h7.66c.08 0 .16.03.21.09.05.06.07.13.04.2l-.99 3.17c-.04.11-.14.18-.25.18h0zm-12.07-.46h11.86l.85-2.72h-7.66c-.08 0-.16-.03-.21-.09a.21.21 0 01-.04-.2l.51-1.62c.03-.1.13-.17.25-.17h5.98l.81-2.58h-5.84c-.08 0-.16-.03-.21-.09-.05-.06-.07-.13-.04-.2l.46-1.47c.03-.1.13-.17.25-.17h7.42l.8-2.56H171.3l-3.7 11.87h0zm-17.94.46h-12.4c-.08 0-.16-.03-.21-.09-.05-.06-.07-.13-.04-.2l3.85-12.32c.03-.1.13-.17.25-.17h12.03c.08 0 .16.03.21.09.05.06.07.13.04.2l-.94 3.02c-.03.1-.13.17-.25.17h-7.43l-.31 1.01h5.84c.08 0 .16.03.21.09.05.06.07.13.04.2l-.95 3.04c-.03.1-.13.17-.25.17h-5.98l-.36 1.17h7.66c.08 0 .16.03.21.09.05.06.06.13.04.2l-.99 3.17c-.05.09-.15.16-.27.16h0zm-12.06-.46h11.86l.85-2.72h-7.66c-.08 0-.16-.03-.21-.09-.05-.06-.07-.13-.05-.2l.51-1.62c.03-.1.13-.17.25-.17h5.98l.81-2.58h-5.84c-.08 0-.16-.03-.21-.09-.05-.06-.07-.13-.05-.2l.46-1.47c.03-.1.13-.17.25-.17h7.43l.8-2.56H141.3l-3.7 11.87h0zm-2.82.46h-4.4c-.08 0-.16-.03-.21-.09-.05-.06-.07-.13-.04-.2l3.85-12.32c.03-.1.13-.17.25-.17h4.4c.08 0 .16.03.21.09.05.06.06.13.04.2l-3.85 12.32c-.03.1-.13.17-.25.17h0zm-4.06-.46h3.86l3.7-11.87h-3.86l-3.7 11.87h0zm-9.6.46h-7.28c-.08 0-.16-.03-.21-.09a.21.21 0 01-.04-.2l3.85-12.34c.03-.1.13-.17.25-.17h7.28c2.43 0 4.14.56 5.1 1.67.95 1.11 1.11 2.72.46 4.8-.64 2.05-1.77 3.63-3.37 4.71-1.6 1.07-3.63 1.62-6.04 1.62h0zm-6.94-.46h6.94c2.29 0 4.22-.51 5.72-1.52s2.57-2.51 3.18-4.46c.6-1.94.48-3.42-.37-4.4-.85-.99-2.42-1.49-4.68-1.49h-7.08l-3.71 11.87h0zm7.27-2.82h-2.19c-.08 0-.16-.03-.21-.09-.05-.06-.07-.13-.04-.2l1.88-6.01c.03-.1.13-.17.25-.17h2.19c1.23 0 2.03.26 2.44.81.4.53.42 1.34.07 2.48-.35 1.11-.86 1.92-1.54 2.42-.7.5-1.65.76-2.85.76h0zm-1.84-.46h1.85c1.07 0 1.92-.22 2.51-.65.6-.44 1.06-1.17 1.37-2.19.31-.99.31-1.7 0-2.11-.3-.4-.97-.6-2.01-.6h-1.99l-1.73 5.55h0z" fill="#00953b" stroke="#00953b" stroke-width=".2" stroke-miterlimit="10"/><path class="st4" d="M87.07 22.7c1.65 0 2.73.26 3.26.78.53.52.62 1.38.26 2.58-.2.66-.5 1.24-.91 1.74-.41.49-.92.9-1.53 1.21.6.25 1 .65 1.18 1.22.18.56.14 1.26-.1 2.1-.38 1.28-1.03 2.24-1.95 2.88-.92.64-2.12.96-3.59.96H73.6l3.99-13.46h9.48v-.01zm-5.84 3.15l-.56 1.9h3.06c.66 0 1.11-.07 1.35-.21.24-.14.41-.38.51-.74.11-.36.09-.62-.05-.75s-.56-.2-1.25-.2h-3.06zm-2.07 6.95h3.23c.75 0 1.25-.08 1.52-.24.27-.16.46-.45.58-.86.13-.42.1-.72-.08-.88-.18-.16-.63-.24-1.36-.24h-3.23l-.66 2.22zm10.75 3.36L93.9 22.7h4.57l-3.99 13.46h-4.57zm7.91-6.73c.69-2.34 1.88-4.11 3.57-5.3 1.69-1.19 3.84-1.79 6.46-1.79s4.42.6 5.4 1.79c.98 1.19 1.12 2.96.43 5.3-.69 2.34-1.88 4.1-3.57 5.29-1.69 1.19-3.84 1.79-6.46 1.79s-4.42-.6-5.4-1.79c-.98-1.19-1.13-2.95-.43-5.29zm4.91 0c-.35 1.17-.35 2.07-.02 2.69.34.62.99.93 1.97.93s1.82-.31 2.52-.93c.7-.62 1.22-1.52 1.57-2.69.35-1.18.36-2.08.03-2.7-.33-.62-.99-.94-1.96-.94-.98 0-1.82.31-2.52.94-.72.63-1.25 1.53-1.59 2.7z"/><path class="st1" d="M193.6 22.64c.31 0 .61.07.9.21.29.14.52.34.69.6.16.26.25.53.25.81s-.08.55-.24.8c-.16.26-.39.46-.68.6-.29.14-.59.21-.91.21-.32 0-.62-.07-.91-.21a1.59 1.59 0 01-.68-.6c-.16-.26-.24-.52-.24-.8s.08-.55.25-.81c.16-.26.39-.46.69-.6.27-.14.57-.21.88-.21zm0 .26c-.26 0-.51.06-.75.17-.24.12-.44.28-.57.5-.14.22-.21.44-.21.68 0 .23.07.46.2.67.13.21.32.38.57.5a1.698 1.698 0 001.52 0c.24-.12.43-.29.57-.5.13-.21.2-.44.2-.67 0-.23-.07-.46-.21-.68-.14-.22-.33-.38-.57-.5-.24-.11-.5-.17-.75-.17zm-.81 2.24v-1.73h.68c.23 0 .4.02.5.05.1.03.19.09.25.17a.407.407 0 01-.07.58c-.1.09-.24.15-.41.16.07.03.12.06.17.09.08.07.18.18.29.34l.24.34h-.39l-.18-.27c-.14-.22-.25-.35-.34-.4a.454.454 0 00-.26-.06h-.19v.74h-.29v-.01zm.32-.97h.39c.19 0 .31-.02.38-.07s.1-.11.1-.19c0-.05-.02-.1-.05-.14a.305.305 0 00-.13-.09c-.06-.02-.16-.03-.32-.03h-.36v.52h-.01z"/></svg>