<svg fill="none" height="60" viewBox="0 0 230 60" width="230" xmlns="http://www.w3.org/2000/svg"><g fill="#231f20"><path d="m117.821 8.12629c-.003-2.06694-.824-4.0482-2.283-5.50899-1.46-1.46083-3.437-2.281837-5.499-2.282888h-10.7697v23.180588h3.6427v-19.50961h7.127c1.03.00378 2.021.39226 2.781 1.08951.759.69728 1.232 1.65329 1.326 2.68129.094 1.02799-.198 2.05412-.819 2.87791-.621.8238-1.525 1.3862-2.537 1.5772l-2.781.5016 7.381 10.7821h4.413l-5.871-8.6519c1.181-.6818 2.162-1.6633 2.845-2.8459.683-1.1827 1.043-2.52461 1.044-3.89091z"/><path d="m70.4369 10.1011h-12.295v-9.766688h-3.6507v23.192488h3.6507v-9.7747h12.295v9.7747h3.6507v-23.192488h-3.6507z"/><path d="m78.3898 23.5269h17.0779v-3.6551h-13.4351v-6.1196h12.0765v-3.6511h-12.0765v-6.11562h13.4351v-3.651068h-17.0779z"/><path d="m24.2327.334412h3.6428v23.192488h-3.6428z"/><path d="m43.6184.334402h-10.7894v23.180598h3.6388v-7.565h7.1506c2.0634.0608 4.0663-.7026 5.5683-2.122 1.502-1.4195 2.3795-3.3788 2.4403-5.44688.0604-2.06814-.7011-4.07567-2.1173-5.58098-1.4162-1.50534-3.3711-2.385111-5.4344-2.44583-.1518-.014624-.3043-.021269-.4569-.019908zm4.1354 7.791898c-.002 1.09934-.4381 2.1532-1.2132 2.9313-.7746.7781-1.8253 1.2172-2.9222 1.2215h-7.1506v-8.2737h7.1506c1.0897.00418 2.1341.43944 2.9055 1.2111.7715.77171 1.2077 1.81742 1.214 2.9098z"/><path d="m159.934 8.12629c-.005-2.0673-.827-4.04856-2.286-5.50927-1.46-1.46067-3.438-2.281557-5.501-2.282608h-10.769v23.180588h3.643v-19.50961h7.126c1.032-.00016 2.026.38553 2.788 1.08154.763.69602 1.239 1.65218 1.334 2.68133.096 1.02915-.194 2.05715-.815 2.88264-.621.8255-1.526 1.3891-2.54 1.5804l-2.781.5016 7.365 10.7821h4.414l-5.871-8.6519c1.182-.681 2.164-1.6622 2.848-2.8449.683-1.1828 1.043-2.52513 1.045-3.89191z"/><path d="m119.204 4.04527h7.846v19.45383h3.722v-19.45383h7.841v-3.73869h-19.409z"/><path d="m227.363 3.98548v-3.651068h-17.078v23.192488h17.078v-3.6551h-13.435v-6.1196h12.072v-3.6511h-12.072v-6.11562z"/><path d="m176.662.334412h-3.766l-9.546 23.192488h3.941l7.492-18.19168 7.484 18.19168h3.941l-9.419-22.889903z"/><path d="m11.9894 3.76258c2.1792.00944 4.2664.88088 5.8078 2.42477l.147.14731 2.6338-2.66365-.147-.15528c-1.6717-1.67763-3.8022-2.820609-6.1221-3.2843s-4.7249-.22727474-6.91074.679331c-2.18579.906639-4.05418 2.442679-5.36877 4.413859-1.31456 1.97119-2.0162369 4.28889-2.0162369 6.65988 0 2.3709.7016769 4.6886 2.0162369 6.6598 1.31459 1.9712 3.18298 3.5073 5.36877 4.4139 2.18584.9065 4.59084 1.143 6.91074.6793s4.4504-1.6067 6.1221-3.2843l.147-.1473-2.6616-2.6636-.143.1473c-.9512.9612-2.1247 1.6717-3.4161 2.0683s-2.6606.467-3.9858.2049c-1.3251-.2621-2.565-.8486-3.6093-1.7072-1.04425-.8586-1.86048-1.9627-2.376-3.214-.51551-1.2513-.71429-2.6109-.57867-3.9578.13566-1.34693.60148-2.63934 1.35605-3.76214.75458-1.12283 1.77445-2.04117 2.96882-2.67332 1.19438-.63219 2.5262-.95852 3.8769-.94992z"/><path d="m197.915 3.76257c2.175.0117 4.258.88302 5.796 2.42476l.147.14731 2.657-2.66365-.143-.15528c-1.673-1.67695-3.805-2.818895-6.126-3.281467-2.321-.462552-4.727-.22493282-6.913.682792-2.186.907755-4.055 2.444865-5.369 4.416965-1.315 1.97206-2.017 4.29059-2.017 6.6624 0 2.3718.702 4.6903 2.017 6.6624 1.314 1.9721 3.183 3.5092 5.369 4.4169 2.186.9078 4.592 1.1454 6.913.6828 2.321-.4625 4.453-1.6045 6.126-3.2814l.143-.1473-2.657-2.6637-.147.1473c-.951.9605-2.123 1.6707-3.414 2.0676-1.29.3968-2.658.4679-3.982.2069-1.325-.2609-2.564-.8458-3.609-1.7026-1.044-.8568-1.861-1.959-2.378-3.2086s-.718-2.6079-.585-3.9541c.133-1.34613.596-2.6385 1.348-3.76213.751-1.1236 1.768-2.04369 2.96-2.67843 1.192-.6347 2.522-.96441 3.872-.95975z"/></g><path d="m171.637 23.5269 4.314-10.5033-1.128-2.7393-5.447 13.2426z" fill="#0096e1"/><path d="m148.703 45.4135v-5.2875c0-1.9908-1.263-3.3206-3.297-3.3405-.579-.0363-1.157.0828-1.674.3452-.518.2627-.956.6589-1.27 1.1478-.286-.4769-.695-.8679-1.185-1.1307-.489-.2628-1.041-.3878-1.595-.3623-.483-.0231-.963.08-1.393.299-.431.2194-.797.547-1.062.9512v-1.0392h-1.82v8.417h1.84v-4.6744c0-1.4572.794-2.2296 2.049-2.2296 1.256 0 1.824.7963 1.824 2.2137v4.6903h1.839v-4.6744c0-1.4572.842-2.2296 2.05-2.2296 1.207 0 1.843.7963 1.843 2.2137v4.6903zm27.236-8.3971h-2.98v-2.5642h-1.823v2.5443h-1.7v1.6722h1.7v3.8263c0 1.951.755 3.1096 2.908 3.1096.806.0032 1.596-.2218 2.28-.649l-.524-1.5647c-.489.2938-1.044.4582-1.613.4777-.914 0-1.212-.5653-1.212-1.4055v-3.7944h2.98zm15.548-.211c-.444-.0124-.884.0955-1.273.3117-.388.2166-.711.534-.936.9186v-1.0193h-1.807v8.3971h1.823v-4.7261c0-1.3896.596-2.162 1.788-2.162.39-.0044.777.0673 1.14.211l.56-1.72c-.415-.1501-.853-.2281-1.295-.2309zm-23.505.8799c-1.032-.6144-2.218-.9193-3.417-.8799-2.121 0-3.487 1.0192-3.487 2.6875 0 1.3736 1.017 2.2138 2.892 2.4805l.858.1195c1.001.1433 1.473.3981 1.473.8799 0 .649-.667 1.0193-1.91 1.0193-1 .0274-1.979-.2823-2.781-.88l-.858 1.4254c1.062.7414 2.333 1.1224 3.627 1.087 2.419 0 3.821-1.1427 3.821-2.7393 0-1.4772-1.104-2.2496-2.927-2.5124l-.858-.1234c-.795-.1035-1.419-.2628-1.419-.8242s.596-.9834 1.589-.9834c.919.0119 1.819.26 2.614.7206zm48.838-.8998c-.445-.0124-.884.0955-1.273.3117-.388.2166-.712.5339-.936.9186v-1.0193h-1.803v8.417h1.823v-4.7261c0-1.3896.596-2.162 1.788-2.162.389-.0036.777.0681 1.14.211l.56-1.72c-.417-.1501-.856-.2285-1.299-.2309zm-23.486 4.4115c0 2.5482 1.772 4.4076 4.469 4.4076 1.09.0561 2.162-.2958 3.008-.9874l-.878-1.4772c-.63.4826-1.397.7477-2.189.7565-1.454 0-2.523-1.071-2.523-2.6875s1.069-2.6717 2.523-2.6876c.792.0088 1.559.2739 2.189.7565l.878-1.4771c-.846-.6996-1.921-1.0571-3.015-1.0034-2.698 0-4.47 1.8634-4.47 4.4116zm17.082 0v-4.2005h-1.819v1.0193c-.312-.4026-.715-.7243-1.176-.9385-.461-.2138-.967-.3141-1.474-.2918-2.348 0-4.187 1.8474-4.187 4.4115s1.839 4.4076 4.187 4.4076c.507.0223 1.013-.078 1.474-.2923.461-.2138.864-.5355 1.176-.938v1.0392h1.819zm-6.781 0c0-1.4771.965-2.6875 2.543-2.6875 1.505 0 2.522 1.1586 2.522 2.6875s-1.017 2.6876-2.522 2.6876c-1.597 0-2.563-1.2144-2.563-2.6876zm-21.996-4.4115c-2.455 0-4.171 1.7917-4.171 4.4115 0 2.6199 1.788 4.4076 4.294 4.4076 1.253.0378 2.476-.3874 3.437-1.1945l-.898-1.3537c-.692.5558-1.549.8656-2.435.8799-1.172 0-2.245-.5454-2.507-2.0584h6.225c0-.227.032-.4539.032-.7008 0-2.6198-1.629-4.4115-3.973-4.4115zm-.035 1.6364c1.191 0 1.926.7366 2.121 2.0385h-4.366c.191-1.2143.914-2.0385 2.225-2.0385zm45.727 2.7871v-7.565h-1.823v4.3797c-.311-.4017-.714-.7234-1.174-.9372-.461-.2142-.965-.3146-1.472-.2931-2.348 0-4.187 1.8475-4.187 4.4116s1.839 4.4076 4.187 4.4076c.507.0215 1.011-.0789 1.472-.2931.46-.2142.863-.5355 1.174-.9372v1.0312h1.823zm2.129 3.4241c.072-.0016.144.0119.211.0398.065.0275.124.0665.175.1155.048.0493.087.1075.115.1712.052.1274.052.2707 0 .3981-.028.0637-.067.1219-.115.1712-.051.0486-.11.088-.175.1155-.066.0295-.138.043-.211.0398-.106.0016-.211-.0286-.3-.0868-.088-.0581-.158-.1417-.2-.2397-.053-.1274-.053-.2707 0-.3981.055-.129.157-.2313.286-.2867.068-.0267.141-.0402.214-.0398zm0 .9476c.056-.0004.111-.0115.163-.0319.048-.023.093-.0541.131-.0915.077-.0781.12-.1832.12-.2927s-.043-.2146-.12-.2926c-.037-.0378-.082-.0673-.131-.0876-.104-.0426-.221-.0426-.325 0-.052.0195-.099.0494-.139.088-.039.0386-.07.0852-.091.1366-.02.0513-.03.1063-.028.1616.002.0549.015.1095.039.1593.02.0477.05.0911.087.1274.039.0374.083.0685.132.0915.051.0204.106.0315.162.0319zm.032-.6649c.053-.004.105.0115.147.0438.018.0131.032.0306.041.0509.009.0204.013.0423.011.0645 0 .0184-.003.0367-.01.0538s-.017.0326-.03.0458c-.033.0294-.075.0466-.119.0478l.163.1871h-.163l-.147-.1832h-.052v.1872h-.103v-.4937zm-.123.0916v.1314h.123c.022.0079.046.0079.068 0 .007-.0052.013-.0124.018-.0208.004-.0083.006-.0179.006-.027.001-.0084.001-.0171 0-.0255-.002-.0084-.006-.0163-.01-.0235-.005-.0068-.011-.0127-.019-.0175-.007-.0048-.015-.0076-.023-.0092-.022-.0059-.046-.0059-.068 0zm-8.819-3.7984c0-1.4772.961-2.6876 2.539-2.6876 1.509 0 2.526 1.1586 2.526 2.6876 0 1.5289-1.017 2.6875-2.526 2.6875-1.597-.0119-2.559-1.2263-2.559-2.6995zm-61.574 0v-4.2125h-1.823v1.0193c-.312-.4026-.715-.7243-1.176-.9385-.461-.2138-.967-.3141-1.474-.2918-2.348 0-4.187 1.8474-4.187 4.4115s1.839 4.4076 4.187 4.4076c.507.0223 1.013-.078 1.474-.2923.461-.2138.864-.5355 1.176-.938v1.0392h1.819zm-6.781 0c0-1.4772.965-2.6876 2.542-2.6876 1.506 0 2.523 1.1586 2.523 2.6876 0 1.5289-1.017 2.6875-2.523 2.6875-1.589 0-2.542-1.1945-2.542-2.6875z" fill="#231f20"/><path d="m101.136 31.2152h11.024v19.8521h-11.024z" fill="#ff5f00"/><path d="m101.84 41.1413c-.003-1.9119.429-3.7992 1.263-5.519.833-1.7197 2.046-3.2268 3.547-4.4069-1.858-1.4641-4.09-2.3745-6.44-2.6274-2.3501-.2529-4.7241.1621-6.8498 1.1975-2.1261 1.0354-3.9185 2.6494-5.1726 4.6575s-1.9191 4.3293-1.9191 6.6983c0 2.3691.665 4.6903 1.9191 6.6986 1.2541 2.0079 3.0465 3.622 5.1726 4.6572 2.1257 1.0356 4.4997 1.4505 6.8498 1.1977 2.35-.2529 4.582-1.1634 6.44-2.6275-1.501-1.1797-2.715-2.6867-3.548-4.4063-.834-1.7201-1.265-3.6077-1.262-5.5197z" fill="#eb001b"/><path d="m127.041 41.1413c0 2.3686-.665 4.6895-1.919 6.697-1.254 2.0079-3.046 3.6212-5.172 4.6568-2.125 1.0352-4.498 1.4501-6.848 1.1976-2.35-.2524-4.581-1.1622-6.44-2.6254 1.498-1.1829 2.708-2.6903 3.54-4.4096.833-1.7196 1.265-3.6057 1.265-5.5164s-.432-3.7968-1.265-5.5163c-.832-1.7192-2.042-3.2269-3.54-4.4097 1.858-1.4649 4.09-2.3761 6.44-2.6294 2.351-.2532 4.725.1616 6.851 1.1972s3.918 2.65 5.171 4.6586c1.254 2.0085 1.918 4.3302 1.917 6.6996z" fill="#f79e1b"/><path d="m125.849 48.965v-.3981h.163v-.0837h-.417v.0837h.163v.3981zm.795 0v-.4897h-.127l-.147.3384-.147-.3384h-.127v.4897h.091v-.3663l.139.3185h.091l.14-.3185v.3703z" fill="#231f20"/></svg>