<svg clip-rule="evenodd" fill-rule="evenodd" stroke-linejoin="round" stroke-miterlimit="2" viewBox="0 0 900 600" xmlns="http://www.w3.org/2000/svg"><g fill="#e82127" fill-rule="nonzero" transform="matrix(1.09946939768 0 0 1.09946939768 -209.67934704 -139.786759072)"><path d="m746.105 634.18v32.423h10.398v-21.587h37.843v21.587h10.39v-32.367zm9.239-10.488h39.981c5.554-1.104 9.683-6.004 10.848-10.745h-61.675c1.153 4.742 5.343 9.641 10.846 10.745m-40.729 42.932c5.242-2.223 8.062-6.067 9.143-10.565h-46.636l.03-43.086-10.454.03v53.621zm-125.656-43.077h36.924c5.566-1.617 10.24-5.858 11.38-10.559h-58.655v31.688h48.007v11.119l-37.656.03c-5.901 1.645-10.906 5.608-13.402 10.842l3.051-.057h58.322v-32.47h-47.971zm-91.153.102h39.967c5.561-1.108 9.694-6.004 10.852-10.75h-61.671c1.151 4.746 5.344 9.642 10.852 10.75m0 21.192h39.967c5.561-1.096 9.694-5.997 10.852-10.745h-61.671c1.151 4.75 5.344 9.649 10.852 10.745m0 21.777h39.967c5.561-1.105 9.694-6.005 10.852-10.747h-61.671c1.151 4.744 5.344 9.642 10.852 10.747m-103.979-53.588c1.202 4.686 5.259 9.476 10.825 10.676h16.824l.859.338v42.454h10.505v-42.454l.955-.338h16.839c5.628-1.45 9.598-5.99 10.779-10.676v-.104h-67.586z"/><g><path d="m600.021 506.956 52.493-295.225c50.035 0 65.818 5.487 68.096 27.882 0 0 33.565-12.515 50.494-37.933-66.061-30.612-132.438-31.992-132.438-31.992l-38.733 47.175.088-.006-38.732-47.177s-66.379 1.382-132.432 31.994c16.914 25.418 50.493 37.933 50.493 37.933 2.292-22.396 18.055-27.883 67.754-27.919z"/><path d="m600 156.061c53.402-.408 114.526 8.261 177.099 35.533 8.363-15.052 10.513-21.705 10.513-21.705-68.401-27.062-132.458-36.323-187.619-36.556-55.158.233-119.212 9.495-187.605 36.556 0 0 3.051 8.194 10.506 21.705 62.561-27.272 123.695-35.941 177.099-35.533z"/></g></g></svg>