<?xml version="1.0" encoding="UTF-8"?>
<svg width="158px" height="32px" viewBox="0 0 158 32" version="1.1" xmlns="http://www.w3.org/2000/svg" xmlns:xlink="http://www.w3.org/1999/xlink">
    <title>TS Logo Black 158x32</title>
    <defs>
        <polygon id="path-1" points="0.0472754477 0.116436825 5.99096538 0.116436825 5.99096538 13.1413892 0.0472754477 13.1413892"></polygon>
        <polygon id="path-3" points="0 30.3437841 151.881932 30.3437841 151.881932 0 0 0"></polygon>
    </defs>
    <g id="TS-Logo-Black-158x32" stroke="none" stroke-width="1" fill="none" fill-rule="evenodd">
        <g id="Group" transform="translate(1.000000, 1.000000)">
            <path d="M154.9754,23.2311 C155.8399,23.2311 156.5315,22.5395 156.5315,21.675 C156.5315,20.81715 155.8399,20.12555 154.98205,20.12555 C154.1109,20.12555 153.42595,20.81715 153.42595,21.675 C153.42595,22.5395 154.11755,23.2311 154.9754,23.2311 Z M154.9754,22.94515 C154.27715,22.94515 153.73185,22.3799 153.73185,21.675 C153.73185,20.97675 154.27715,20.4115 154.98205,20.4115 C155.667,20.4115 156.23225,20.97675 156.23225,21.675 C156.23225,22.3799 155.667,22.94515 154.9754,22.94515 Z M154.72935,22.55945 L154.72935,21.8745 L154.9355,21.8745 L155.3478,22.55945 L155.7069,22.55945 L155.268,21.8346 C155.4941,21.77475 155.6803,21.6218 155.6803,21.3159 C155.6803,21.143 155.60715,20.9967 155.47415,20.91025 C155.3478,20.83045 155.1882,20.8105 155.0153,20.8105 L154.41015,20.8105 L154.41015,22.55945 L154.72935,22.55945 Z M154.9887,21.6085 L154.72935,21.6085 L154.72935,21.0765 L154.9887,21.0765 C155.22145,21.0765 155.36775,21.143 155.36775,21.33585 C155.36775,21.53535 155.22145,21.6085 154.9887,21.6085 Z" id="®" fill="#000000" fill-rule="nonzero"></path>
            <g transform="translate(0.000000, 0.000000)" id="logo/@thoughtspot-horizontal-black-copy">
                <g transform="translate(0.000000, 0.000000)">
                    <g id="Group-31" transform="translate(-0.000000, 0.000000)">
                        <g id="Group-3" transform="translate(145.890967, 10.077117)">
                            <mask id="mask-2" fill="white">
                                <use xlink:href="#path-1"></use>
                            </mask>
                            <g id="Clip-2"></g>
                            <path d="M5.99106216,4.75533206 L5.99106216,2.85219556 L3.73156673,2.85219556 L3.73156673,0.116436825 L1.82288707,0.116436825 L1.82288707,2.85219556 L0.0472754477,2.85219556 L0.0472754477,4.75533206 L1.82288707,4.75533206 L1.82288707,10.2418083 C1.82288707,11.8433575 3.12477644,13.1413892 4.73054485,13.1413892 L5.99106216,13.1413892 L5.99106216,11.2380114 L4.73054485,11.2380114 C4.17867537,11.2380114 3.73156673,10.7921448 3.73156673,10.2418083 L3.73156673,4.75533206 L5.99106216,4.75533206 Z" id="Fill-1" fill="#000000" mask="url(#mask-2)"></path>
                        </g>
                        <path d="M138.291814,16.4383898 L138.291814,19.5309867 C138.291814,20.5221232 139.106916,21.3151771 140.080974,21.3151771 L140.796638,21.3151771 C141.790778,21.3151771 142.586041,20.5221232 142.586041,19.5309867 L142.586041,16.4383898 C142.586041,15.4470121 141.790778,14.6539581 140.796638,14.6539581 L140.080974,14.6539581 C139.106916,14.6539581 138.291814,15.4470121 138.291814,16.4383898 L138.291814,16.4383898 Z M140.796638,12.7510629 C142.844193,12.7510629 144.494478,14.3962819 144.494478,16.4383898 L144.494478,19.5309867 C144.494478,21.5530692 142.844193,23.2185549 140.796638,23.2185549 L140.080974,23.2185549 C138.053259,23.2185549 136.383376,21.5530692 136.383376,19.5309867 L136.383376,16.4383898 C136.383376,14.3962819 138.053259,12.7510629 140.080974,12.7510629 L140.796638,12.7510629 Z" id="Fill-4" fill="#000000"></path>
                        <path d="M132.383496,16.4383898 C132.383496,15.4670375 131.588233,14.6539581 130.594335,14.6539581 L129.878671,14.6539581 C128.904613,14.6539581 128.089269,15.4670375 128.089269,16.4383898 L128.089269,19.5309867 C128.089269,20.5221232 128.904613,21.3151771 129.878671,21.3151771 L130.594335,21.3151771 C131.588233,21.3151771 132.383496,20.5221232 132.383496,19.5309867 L132.383496,16.4383898 Z M134.291933,16.4383898 L134.291933,19.5309867 C134.291933,21.5728533 132.64189,23.2185549 130.594335,23.2185549 L130.355781,23.2185549 C129.500758,23.2185549 128.705737,22.9210692 128.089269,22.4054756 L128.089269,26.4894502 L126.181073,26.4894502 L126.181073,12.9293613 L128.089269,12.9293613 L128.089269,13.563901 C128.705737,13.0483073 129.500758,12.7510629 130.355781,12.7510629 L130.594335,12.7510629 C132.64189,12.7510629 134.291933,14.3962819 134.291933,16.4383898 L134.291933,16.4383898 Z" id="Fill-6" fill="#000000"></path>
                        <path d="M117.280684,19.8878006 C117.459721,20.7006387 118.175385,21.315153 119.050005,21.315153 L120.381895,21.315153 C121.356195,21.315153 122.171297,20.5023149 122.171297,19.5309625 C122.171297,18.42088 121.495312,17.7665562 120.461494,17.3699086 L118.712254,16.7160673 C117.08205,16.0815276 115.730078,15.0110133 115.730078,12.9886895 C115.730078,10.9465816 117.380122,9.30136254 119.427918,9.30136254 L120.362056,9.30136254 C122.071859,9.30136254 123.523027,10.47128 123.940619,12.0766895 L122.091699,12.6120673 C121.932743,11.7994705 121.217079,11.204499 120.362056,11.204499 L119.427918,11.204499 C118.433779,11.204499 117.638516,11.997553 117.638516,12.9886895 C117.638516,13.7617181 117.916991,14.3566895 119.447757,14.9514197 L121.196997,15.6255276 C122.966319,16.3392038 124.079735,17.6871784 124.079735,19.5309625 C124.079735,21.5728292 122.409852,23.2185308 120.381895,23.2185308 L119.050005,23.2185308 C117.320604,23.2185308 115.869437,22.0290705 115.451845,20.4231784 L117.280684,19.8878006 Z" id="Fill-8" fill="#000000"></path>
                        <path d="M113.641394,14.8324495 L113.641394,12.929313 L111.381898,12.929313 L111.381898,10.1935543 L109.473219,10.1935543 L109.473219,12.929313 L107.697607,12.929313 L107.697607,14.8324495 L109.473219,14.8324495 L109.473219,20.3189257 C109.473219,21.9204749 110.775108,23.2185067 112.380876,23.2185067 L113.641394,23.2185067 L113.641394,21.3151289 L112.380876,21.3151289 C111.829007,21.3151289 111.381898,20.8692622 111.381898,20.3189257 L111.381898,14.8324495 L113.641394,14.8324495 Z" id="Fill-10" fill="#000000"></path>
                        <path d="M106.037716,16.4383898 L106.037716,23.039774 L104.129278,23.039774 L104.129278,16.4383898 C104.129278,15.4470121 103.334015,14.6539581 102.340118,14.6539581 L101.624454,14.6539581 C100.650154,14.6539581 99.8350517,15.4470121 99.8350517,16.4383898 L99.8350517,23.039774 L97.9268559,23.039774 L97.9268559,9.47968508 L99.8350517,9.47968508 L99.8350517,13.563901 C100.45152,13.0483073 101.246541,12.7510629 102.101321,12.7510629 L102.340118,12.7510629 C104.387672,12.7510629 106.037716,14.3962819 106.037716,16.4383898" id="Fill-12" fill="#000000"></path>
                        <path d="M93.5452154,18.9163517 L93.5452154,16.4382692 C93.5452154,15.4468914 92.7499524,14.6540787 91.7560551,14.6540787 L91.040149,14.6540787 C90.0663328,14.6540787 89.2509886,15.4468914 89.2509886,16.4382692 L89.2509886,18.9163517 C89.2509886,19.8877041 90.0663328,20.7007835 91.040149,20.7007835 L91.7560551,20.7007835 C92.7499524,20.7007835 93.5452154,19.8877041 93.5452154,18.9163517 L93.5452154,18.9163517 Z M95.4536532,12.9294819 L95.4536532,22.9805422 C95.4536532,25.0224089 93.8234486,26.6678692 91.7758943,26.6678692 L91.0203097,26.6678692 C89.290909,26.6678692 87.8394996,25.4784089 87.441989,23.892301 L89.2708279,23.3571644 C89.4498649,24.1499771 90.165529,24.7644914 91.0203097,24.7644914 L91.7758943,24.7644914 C92.7499524,24.7644914 93.5452154,23.9518946 93.5452154,22.9805422 L93.5452154,21.7910819 C92.9289894,22.3066756 92.1337264,22.60392 91.2789456,22.60392 L91.040149,22.60392 C89.0124339,22.60392 87.3425509,20.9584597 87.3425509,18.9163517 L87.3425509,16.4382692 C87.3425509,14.3964025 89.0124339,12.7509422 91.040149,12.7509422 L91.2789456,12.7509422 C92.1337264,12.7509422 92.9289894,13.0484279 93.5452154,13.5437549 L93.5452154,12.9294819 L95.4536532,12.9294819 Z" id="Fill-14" fill="#000000"></path>
                        <path d="M79.0168945,12.9293854 L79.0168945,19.5310108 C79.0168945,20.5221473 79.8121576,21.3152013 80.8060549,21.3152013 L81.5217191,21.3152013 C82.5158583,21.3152013 83.3111214,20.5221473 83.3111214,19.5310108 L83.3111214,12.9293854 L85.2195591,12.9293854 L85.2195591,19.5310108 C85.2195591,21.5728775 83.5695153,23.218579 81.5217191,23.218579 L80.8060549,23.218579 C78.7585006,23.218579 77.1084568,21.5728775 77.1084568,19.5310108 L77.1084568,12.9293854 L79.0168945,12.9293854 Z" id="Fill-16" fill="#000000"></path>
                        <path d="M68.6713862,16.4383898 L68.6713862,19.5309867 C68.6713862,20.5221232 69.4864885,21.3151771 70.4607885,21.3151771 L71.1764527,21.3151771 C72.17035,21.3151771 72.9656131,20.5221232 72.9656131,19.5309867 L72.9656131,16.4383898 C72.9656131,15.4470121 72.17035,14.6539581 71.1764527,14.6539581 L70.4607885,14.6539581 C69.4864885,14.6539581 68.6713862,15.4470121 68.6713862,16.4383898 L68.6713862,16.4383898 Z M71.1764527,12.7510629 C73.2237651,12.7510629 74.8740508,14.3962819 74.8740508,16.4383898 L74.8740508,19.5309867 C74.8740508,21.5530692 73.2237651,23.2185549 71.1764527,23.2185549 L70.4607885,23.2185549 C68.4328315,23.2185549 66.7629485,21.5530692 66.7629485,19.5309867 L66.7629485,16.4383898 C66.7629485,14.3962819 68.4328315,12.7510629 70.4607885,12.7510629 L71.1764527,12.7510629 Z" id="Fill-18" fill="#000000"></path>
                        <path d="M64.5543577,16.4383898 L64.5543577,23.039774 L62.645678,23.039774 L62.645678,16.4383898 C62.645678,15.4470121 61.8506569,14.6539581 60.8565176,14.6539581 L60.1408535,14.6539581 C59.1667954,14.6539581 58.3516931,15.4470121 58.3516931,16.4383898 L58.3516931,23.039774 L56.4432554,23.039774 L56.4432554,9.47968508 L58.3516931,9.47968508 L58.3516931,13.563901 C58.9681611,13.0483073 59.7631822,12.7510629 60.6179629,12.7510629 L60.8565176,12.7510629 C62.9043139,12.7510629 64.5543577,14.3962819 64.5543577,16.4383898" id="Fill-20" fill="#000000"></path>
                        <polygon id="Fill-22" fill="#000000" points="54.4314359 9.47973333 54.4314359 11.3831111 50.6077861 11.3831111 50.6077861 23.0398222 48.6993483 23.0398222 48.6993483 11.3831111 44.8754566 11.3831111 44.8754566 9.47973333"></polygon>
                        <path d="M22.8802279,26.5802159 C22.8802279,24.5016762 24.5699502,22.8166476 26.6542797,22.8166476 C28.7386092,22.8166476 30.4283314,24.5016762 30.4283314,26.5802159 C30.4283314,28.6587556 28.7386092,30.3437841 26.6542797,30.3437841 C24.5699502,30.3437841 22.8802279,28.6587556 22.8802279,26.5802159" id="Fill-24" fill="#000000"></path>
                        <polygon id="Fill-26" fill="#000000" points="30.1924138 7.52720889 0 7.52720889 0 9.40887238 10.3785818 9.40887238 10.3785818 30.1086184 12.2657286 30.1086184 12.2657286 9.40887238 14.1526335 9.40887238 14.1526335 30.1086184 16.0397803 30.1086184 16.0397803 9.40887238 17.9266852 9.40887238 17.9266852 30.1086184 19.8138321 30.1086184 19.8138321 9.40887238 30.1924138 9.40887238"></polygon>
                        <mask id="mask-4" fill="white">
                            <use xlink:href="#path-3"></use>
                        </mask>
                        <g id="Clip-29"></g>
                        <polygon id="Fill-28" fill="#000000" mask="url(#mask-4)" points="0 5.64523175 30.1924138 5.64523175 30.1924138 3.76332698 0 3.76332698"></polygon>
                        <polygon id="Fill-30" fill="#000000" mask="url(#mask-4)" points="0 1.88190476 30.1924138 1.88190476 30.1924138 0 0 0"></polygon>
                    </g>
                </g>
            </g>
        </g>
    </g>
</svg>