<?xml version="1.0" encoding="UTF-8"?>
<svg width="343px" height="58px" viewBox="0 0 343 58" version="1.1" xmlns="http://www.w3.org/2000/svg" xmlns:xlink="http://www.w3.org/1999/xlink">
    <!-- Generator: Sketch 53.2 (72643) - https://sketchapp.com -->
    <title>Group 21</title>
    <desc>Created with Sketch.</desc>
    <defs>
        <polygon id="path-1" points="0.451826087 0.543728358 59.5022609 0.543728358 59.5022609 58 0.451826087 58"></polygon>
        <polygon id="path-3" points="0.745478261 0.76040597 25.6113043 0.76040597 25.6113043 55.9582269 0.745478261 55.9582269"></polygon>
    </defs>
    <g id="Symbols" stroke="none" stroke-width="1" fill="none" fill-rule="evenodd">
        <g id="200318_TS_Nav" transform="translate(-17.000000, -15.000000)">
            <g id="Group-21" transform="translate(17.000000, 15.000000)">
                <polygon id="Fill-1" fill="#1322A8" points="0 2 0 20.5473635 17.6604308 20.5473635 17.6604308 57 37.3395692 57 37.3395692 20.5473635 55 20.5473635 55 2"></polygon>
                <g id="Group-20" transform="translate(43.000000, 0.000000)">
                    <g id="Group-4">
                        <mask id="mask-2" fill="white">
                            <use xlink:href="#path-1"></use>
                        </mask>
                        <g id="Clip-3"></g>
                        <path d="M39.3031304,29.2719075 C39.1866087,34.4018776 34.9144348,38.466206 29.7613913,38.350206 C24.6092174,38.234206 20.5257391,33.9811612 20.6422609,28.851191 C20.7570435,23.8017284 24.9031304,19.7676985 29.9770435,19.7702955 C35.1353043,19.7772209 39.3118261,23.9445642 39.3057391,29.0797284 C39.3057391,29.1437881 39.3048696,29.2078478 39.3031304,29.2719075 M29.9770435,0.543728358 C13.697913,0.543728358 0.451826087,13.4387731 0.451826087,29.2719075 C0.451826087,45.1059075 13.697913,58.0000866 29.9770435,58.0000866 C46.2570435,58.0000866 59.5022609,45.1059075 59.5022609,29.2719075 C59.5022609,13.4387731 46.2570435,0.543728358 29.9770435,0.543728358" id="Fill-2" fill="#1322A8" mask="url(#mask-2)"></path>
                    </g>
                    <polygon id="Fill-5" fill="#1322A8" points="101.660435 1.65031642 90.7047826 23.8426746 79.6752174 1.65031642 56.9526087 1.65031642 56.9526087 56.8940179 76.2665217 56.8940179 76.2665217 38.5564955 83.9491304 56.8940179 96.6491304 56.8940179 104.414348 38.352197 104.414348 56.8940179 123.720435 56.8940179 123.720435 1.65031642"></polygon>
                    <path d="M151.879565,16.3865582 C151.57087,10.0056925 149.87087,6.54646866 146.087391,6.54646866 C142.612609,6.54646866 141.067391,8.85261791 141.067391,12.8502896 C141.067391,25.6890657 158.21087,27.6108567 158.21087,43.9850358 C158.21087,52.2885582 153.963913,57.4384388 146.242174,57.4384388 C138.364783,57.4384388 135.044783,52.5179612 134.504783,42.3714239 L140.373478,42.1402896 C140.913478,49.1357821 142.457826,51.9033343 146.396087,51.9033343 C150.025652,51.9033343 152.11087,49.1357821 152.11087,44.6775731 C152.11087,31.3765284 135.044783,29.3785582 135.044783,13.4649164 C135.044783,5.77688657 138.983043,1.01049851 145.932609,1.01049851 C153.963913,1.01049851 157.13,6.62351343 157.516087,16.1554239 L151.879565,16.3865582 Z" id="Fill-7" fill="#93D500"></path>
                    <polygon id="Fill-9" fill="#93D500" points="169.639391 56.8237254 169.639391 7.39127761 160.603739 7.39127761 160.603739 1.62590448 184.852435 1.62590448 184.852435 7.39127761 175.894174 7.39127761 175.894174 56.8237254"></polygon>
                    <polygon id="Fill-11" fill="#93D500" points="189.562087 56.8237254 189.562087 1.62590448 210.33513 1.62590448 210.33513 7.39127761 195.81687 7.39127761 195.81687 25.3816657 207.014261 25.3816657 207.014261 31.069994 195.81687 31.069994 195.81687 51.0583522 211.261217 51.0583522 211.261217 56.8237254"></polygon>
                    <polygon id="Fill-13" fill="#93D500" points="224.851652 56.8237254 224.851652 33.8366806 214.040348 1.62590448 220.603826 1.62590448 227.940348 25.7651582 228.094261 25.7651582 235.81687 1.62590448 242.303826 1.62590448 231.183826 33.8366806 231.183826 56.8237254"></polygon>
                    <polygon id="Fill-15" fill="#93D500" points="246.396348 56.8237254 246.396348 1.62590448 267.169391 1.62590448 267.169391 7.39127761 252.65113 7.39127761 252.65113 25.3816657 263.848522 25.3816657 263.848522 31.069994 252.65113 31.069994 252.65113 51.0583522 268.095478 51.0583522 268.095478 56.8237254"></polygon>
                    <g id="Group-19" transform="translate(273.913043, 0.865672)">
                        <mask id="mask-4" fill="white">
                            <use xlink:href="#path-3"></use>
                        </mask>
                        <g id="Clip-18"></g>
                        <path d="M11.015913,25.4381075 C15.6498261,25.4381075 18.1985217,22.8237791 18.1985217,15.4439284 C18.1985217,8.21730149 15.4176522,6.21846567 9.47243478,6.21846567 L7.00113043,6.21846567 L7.00113043,25.4381075 L11.015913,25.4381075 Z M18.815913,55.9582269 L11.6341739,30.8970328 L7.00113043,30.8970328 L7.00113043,55.9582269 L0.745478261,55.9582269 L0.745478261,0.76040597 L9.93504348,0.76040597 C19.8967826,0.76040597 24.6846087,4.91130149 24.6846087,14.9054806 C24.6846087,22.0559284 21.982,26.6682269 17.4254783,28.5900179 L25.6115652,55.9582269 L18.815913,55.9582269 Z" id="Fill-17" fill="#93D500" mask="url(#mask-4)"></path>
                    </g>
                </g>
            </g>
        </g>
    </g>
</svg>