<?xml version="1.0" encoding="UTF-8" standalone="no"?>
<!DOCTYPE svg PUBLIC "-//W3C//DTD SVG 1.1//EN" "http://www.w3.org/Graphics/SVG/1.1/DTD/svg11.dtd">
<svg width="100%" height="100%" viewBox="0 0 512 512" version="1.1" xmlns="http://www.w3.org/2000/svg" xmlns:xlink="http://www.w3.org/1999/xlink" xml:space="preserve" xmlns:serif="http://www.serif.com/" style="fill-rule:evenodd;clip-rule:evenodd;stroke-linejoin:round;stroke-miterlimit:1.41421;">
    <g transform="matrix(0.288855,-8.50192e-34,8.50192e-34,0.288855,-30.4243,-79.8309)">
        <g transform="matrix(4.16667,0,0,4.16667,1319.82,514.592)">
            <path d="M12.462,106.46L3.813,83.469C3.036,81.963 0.796,82.034 0.128,83.589C-2.008,88.559 -6.452,90.427 -8.207,89.716C-11.143,88.525 -8.034,76.98 -9.826,69.774C-12.813,57.764 -17.927,49.441 -17.927,49.441C-18.477,48.317 -20.208,48.605 -20.329,49.844C-20.904,55.789 -22.709,65.403 -28.369,67.232C-36.239,69.775 -30.883,-24.024 -68.917,-52.12C-69.99,-52.912 -71.536,-52.608 -72.225,-51.484C-77.594,-42.725 -97.343,-4.686 -126.041,12.479C-156.5,30.697 -161.487,64.788 -163.137,92.195C-163.311,95.088 -166.954,96.333 -169.013,94.233C-170.854,92.355 -172.439,89.594 -172.439,85.65C-172.439,76.252 -242.964,231.32 -88.243,231.992C66.479,232.663 12.462,106.46 12.462,106.46" style="fill:rgb(242,105,80);fill-rule:nonzero;"/>
        </g>
        <g transform="matrix(4.16667,0,0,4.16667,494.15,1819.09)">
            <path d="M0,-25.2L229.795,40.362C236.649,42.318 244.151,40.811 249.103,36.412C257.857,28.636 268.525,15.72 258.308,5.204C252.244,-1.035 -1.564,-67.518 -1.564,-67.518C-1.564,-67.518 -18.126,-67.174 -20.349,-52.254C-22.12,-40.363 -13.325,-29.002 0,-25.2" style="fill:rgb(211,121,102);fill-rule:nonzero;"/>
        </g>
        <g transform="matrix(4.16667,0,0,4.16667,476.742,1657.69)">
            <path d="M0,44.694L223.645,-40.729C234.136,-44.736 246.394,-43.248 254.932,-36.438C260.498,-31.998 264.303,-25.599 261.215,-16.66C258.609,-9.115 252.172,-3.139 244.076,-0.139L3.304,89.099C2.449,89.417 1.498,89.43 0.634,89.132C0.569,89.109 0.502,89.086 0.433,89.061C-21.637,81.241 -21.835,53.034 0,44.694" style="fill:rgb(245,138,108);fill-rule:nonzero;"/>
        </g>
        <g>
            <g transform="matrix(4.16667,0,0,4.16667,991.534,1513.37)">
                <path d="M0,26.952L-108.983,-0.455C-114.131,-1.75 -119.28,-3.044 -124.428,-4.339C-127.423,-5.092 -126.686,-0.563 -124.447,0L-15.464,27.407C-10.316,28.701 -5.167,29.996 -0.019,31.291C2.976,32.044 2.238,27.514 0,26.952" style="fill:rgb(42,49,110);fill-rule:nonzero;"/>
            </g>
            <g transform="matrix(4.16667,0,0,4.16667,1557.39,1721.28)">
                <path d="M0,13.762C-23.092,7.729 -46.183,1.695 -69.275,-4.34C-72.263,-5.12 -71.525,-0.584 -69.294,-0.001C-46.203,6.033 -23.111,12.068 -0.02,18.102C2.968,18.882 2.231,14.345 0,13.762" style="fill:rgb(42,49,110);fill-rule:nonzero;"/>
            </g>
            <g transform="matrix(4.16667,0,0,4.16667,1019.35,1940.64)">
                <path d="M0,-26.805C34.252,-17.811 68.504,-8.816 102.756,0.178L117.258,3.987C120.425,4.818 120.244,0.726 117.479,0C83.227,-8.994 48.975,-17.989 14.723,-26.984C9.889,-28.253 5.055,-29.522 0.22,-30.791C-2.946,-31.623 -2.766,-27.532 0,-26.805" style="fill:rgb(42,49,110);fill-rule:nonzero;"/>
            </g>
            <g transform="matrix(4.16667,0,0,4.16667,425.18,1734.88)">
                <path d="M0,-14.303C23.411,-8.206 46.822,-2.11 70.233,3.987C73.401,4.812 73.222,0.721 70.454,0.001C47.042,-6.096 23.631,-12.193 0.221,-18.289C-2.948,-19.115 -2.768,-15.024 0,-14.303" style="fill:rgb(42,49,110);fill-rule:nonzero;"/>
            </g>
            <g transform="matrix(4.16667,0,0,4.16667,1563.81,1863.99)">
                <path d="M0,2.421C-1.779,7.892 -4.77,14.918 -10.179,17.838C-19.028,22.614 -16.215,4.461 -15.101,0.537C-13.45,-5.279 -9.615,-12.065 -4.323,-15.371C4.31,-20.765 1.004,-1.166 0,2.421C-0.361,3.711 3.504,6.65 3.872,5.335C6.018,-2.327 7.619,-15.529 -1.577,-19.66C-9.917,-23.405 -17.277,-8.349 -18.973,-2.377C-21.114,5.163 -22.036,17.72 -13.276,21.732C-4.335,25.826 1.855,11.539 3.872,5.335C4.277,4.088 0.435,1.083 0,2.421" style="fill:rgb(42,49,110);fill-rule:nonzero;"/>
            </g>
            <g transform="matrix(4.16667,0,0,4.16667,1452.42,1879.19)">
                <path d="M0,-105.142C-27.692,-93.601 -55.385,-82.06 -83.078,-70.519C-127.237,-52.116 -171.396,-33.713 -215.554,-15.31C-225.716,-11.075 -235.877,-6.84 -246.039,-2.605C-249.103,-1.329 -246.278,1.004 -243.868,0.001C-216.175,-11.54 -188.482,-23.081 -160.79,-34.622C-116.631,-53.026 -72.473,-71.429 -28.314,-89.831C-18.152,-94.067 -7.99,-98.302 2.171,-102.537C5.235,-103.813 2.41,-106.146 0,-105.142" style="fill:rgb(42,49,110);fill-rule:nonzero;"/>
            </g>
            <g transform="matrix(4.16667,0,0,4.16667,508.534,1595.35)">
                <path d="M0,104.884C27.918,93.168 55.835,81.452 83.753,69.736C128.054,51.145 172.355,32.553 216.656,13.961C226.832,9.692 237.007,5.421 247.183,1.151C248.389,0.645 244.027,-0.449 242.957,0C215.039,11.717 187.121,23.433 159.203,35.149C114.902,53.74 70.602,72.332 26.301,90.923C16.125,95.194 5.95,99.464 -4.226,103.735C-5.432,104.24 -1.07,105.333 0,104.884" style="fill:rgb(42,49,110);fill-rule:nonzero;"/>
            </g>
            <g transform="matrix(4.16667,0,0,4.16667,1524.72,1537.51)">
                <path d="M0,-8.293C1.818,-2.987 4.932,8.479 -0.707,13.024C-6.977,18.078 -13.099,3.783 -14.469,-0.7C-16.114,-6.085 -17.135,-14.415 -14.014,-19.503C-8.919,-27.808 -1.494,-12.13 0,-8.293C0.46,-7.112 4.258,-6.351 4.331,-6.165C1.442,-13.582 -4.271,-22.718 -12.962,-24.22C-22.789,-25.918 -20.391,-7.993 -18.799,-2.828C-16.337,5.16 -10.474,13.998 -1.881,16.305C10.082,19.515 6.265,-0.519 4.331,-6.165C3.929,-7.337 0.048,-8.152 0,-8.293" style="fill:rgb(42,49,110);fill-rule:nonzero;"/>
            </g>
            <g transform="matrix(4.16667,0,0,4.16667,588.809,1732.49)">
                <path d="M0,34.579C24.751,24.375 49.503,14.171 74.254,3.968C77.255,2.73 74.84,-1.102 72.167,0.001C47.416,10.204 22.664,20.408 -2.087,30.612C-5.088,31.849 -2.673,35.681 0,34.579" style="fill:rgb(42,49,110);fill-rule:nonzero;"/>
            </g>
            <g transform="matrix(4.16667,0,0,4.16667,922.847,1737.44)">
                <path d="M0,13.817C8.833,9.743 17.667,5.669 26.5,1.593C28.132,0.84 23.604,-0.577 22.353,0.001C13.519,4.075 4.686,8.15 -4.147,12.224C-5.779,12.977 -1.251,14.394 0,13.817" style="fill:rgb(42,49,110);fill-rule:nonzero;"/>
            </g>
            <g transform="matrix(4.16667,0,0,4.16667,1209.58,1543.96)">
                <path d="M0,14.676C10.747,10.345 21.494,6.013 32.24,1.681C34.938,0.594 34.356,-1.111 31.601,-0.001C20.854,4.331 10.107,8.663 -0.64,12.994C-3.336,14.082 -2.756,15.787 0,14.676" style="fill:rgb(42,49,110);fill-rule:nonzero;"/>
            </g>
            <g transform="matrix(4.16667,0,0,4.16667,1177.73,1635.79)">
                <path d="M0,-7.676C-2.671,-6.443 -5.343,-5.209 -8.014,-3.977C-9.098,-3.477 -10.085,-2.414 -9.635,-1.13C-9.229,0.025 -7.621,0.489 -6.56,-0.001C-3.888,-1.234 -1.217,-2.467 1.455,-3.699C2.538,-4.199 3.526,-5.262 3.075,-6.546C2.669,-7.701 1.061,-8.165 0,-7.676" style="fill:rgb(42,49,110);fill-rule:nonzero;"/>
            </g>
            <g transform="matrix(4.16667,0,0,4.16667,1285.27,1799.34)">
                <path d="M0,-9.287C14.553,-5.359 29.106,-1.433 43.659,2.494C45.005,2.858 48.379,0.154 47.804,-0.001C33.251,-3.928 18.698,-7.854 4.145,-11.781C2.799,-12.145 -0.575,-9.441 0,-9.287" style="fill:rgb(42,49,110);fill-rule:nonzero;"/>
            </g>
            <g transform="matrix(4.16667,0,0,4.16667,1102.92,1800.11)">
                <path d="M0,-3.765C6.772,-1.801 13.544,0.162 20.316,2.126C21.62,2.504 25.958,0.504 24.221,0C17.449,-1.963 10.677,-3.927 3.905,-5.89C2.601,-6.269 -1.737,-4.268 0,-3.765" style="fill:rgb(42,49,110);fill-rule:nonzero;"/>
            </g>
            <g transform="matrix(4.16667,0,0,4.16667,591.388,1627.81)">
                <path d="M0,-11.132C17.386,-6.319 34.772,-1.505 52.159,3.309C55.336,4.188 55.024,0.71 52.459,0C35.073,-4.814 17.686,-9.627 0.3,-14.441C-2.877,-15.32 -2.566,-11.842 0,-11.132" style="fill:rgb(42,49,110);fill-rule:nonzero;"/>
            </g>
            <g transform="matrix(4.16667,0,0,4.16667,724.001,1672.61)">
                <path d="M0,0.864C3.793,2.065 7.587,3.267 11.38,4.468C13.654,5.189 12.263,0.521 10.617,0C6.824,-1.201 3.031,-2.404 -0.763,-3.605C-3.037,-4.325 -1.646,0.343 0,0.864" style="fill:rgb(42,49,110);fill-rule:nonzero;"/>
            </g>
        </g>
        <g transform="matrix(4.16667,0,0,4.16667,414.466,1585.98)">
            <path d="M0,-0.399C1.851,-6.093 5.088,-13.982 11.132,-16.496C20.349,-20.33 17.983,-5.416 16.77,-0.744C15.138,5.542 10.689,14.232 4.316,16.961C-4.712,20.828 -1.084,3.483 0.037,-0.521C0.361,-1.679 -2.497,-4.492 -2.451,-4.655C-4.644,3.175 -5.551,13.933 0.987,20.226C8.269,27.235 17.132,10.376 18.762,5.163C21.194,-2.617 21.689,-13.294 15.42,-19.628C7.495,-27.634 -0.676,-10.123 -2.414,-4.778C-2.85,-3.438 0.205,-1.028 0,-0.399" style="fill:rgb(42,49,110);fill-rule:nonzero;"/>
        </g>
        <g transform="matrix(4.16667,0,0,4.16667,425.842,1943.74)">
            <path d="M0,5.79C-1.621,1.058 -5.371,-12.07 0.676,-15.657C5.94,-18.78 12.645,-3.819 13.811,-0.013C15.421,5.24 16.865,14.977 12.913,19.66C8.772,24.57 1.167,8.785 0,5.79C-0.37,4.839 -4.877,5.739 -4.988,5.452C-1.788,13.672 3.384,21.877 13.024,21.841C22.645,21.806 20.678,6.378 18.799,0.324C16.271,-7.825 10.779,-16.823 1.484,-17.296C-10.523,-17.906 -7.496,-1.865 -4.988,5.452C-4.675,6.368 -0.078,5.561 0,5.79" style="fill:rgb(42,49,110);fill-rule:nonzero;"/>
        </g>
        <g transform="matrix(4.16667,0,0,4.16667,1055.62,1495.78)">
            <path d="M0,-286.057C-6.091,-288.311 -8.819,-279.569 -11.224,-275.52C-16.576,-266.513 -22.333,-257.732 -28.807,-249.487C-36.786,-239.326 -45.906,-229.706 -56.796,-222.633C-66.907,-216.067 -75.62,-209.086 -82.062,-198.683C-88.021,-189.058 -91.609,-178.188 -93.769,-167.124C-94.833,-161.678 -95.558,-156.169 -96.084,-150.647C-96.326,-148.105 -96.104,-145.15 -96.714,-142.676C-96.826,-142.22 -96.583,-141.272 -96.827,-140.879C-97.364,-140.015 -99.739,-139.785 -100.293,-140.02C-101.785,-140.653 -102.763,-144.285 -103.012,-145.659C-103.392,-147.754 -103.372,-150.249 -106.271,-148.072C-107.425,-147.204 -108.11,-145.368 -108.725,-144.132C-116.763,-127.983 -120.827,-108.853 -121.926,-90.972C-123.428,-66.545 -117.739,-41.049 -99.006,-24.036C-70.995,1.404 -25.858,2.254 9.434,-2.286C38.749,-6.056 69.946,-17.729 83.535,-45.993C92.71,-65.077 92.202,-87.488 87.633,-107.734C84.517,-121.545 79.11,-135.616 73.623,-148.58C69.559,-158.183 63.035,-141.834 60.221,-144.87C58.775,-146.431 59.738,-151.05 59.815,-152.82C59.929,-155.432 60.089,-158.063 59.86,-160.673C59.292,-167.139 56.507,-173.785 53.721,-179.592C52.972,-181.154 51.958,-184.442 50.139,-185.15C46.685,-186.494 45.967,-182.64 45.635,-180.401C45.264,-177.899 44.761,-175.369 43.861,-172.998C43.372,-171.706 41.075,-166.405 39.661,-166.902C38.754,-167.22 38.323,-169.912 38.127,-170.682C34.641,-184.384 34.366,-199.105 32.125,-213.049C29.147,-231.59 25.02,-250.767 15.782,-267.313C11.792,-274.458 6.749,-280.985 0.187,-285.944C-0.567,-286.513 -3.204,-285.374 -2.516,-284.855C11.752,-274.073 18.826,-256.304 23.454,-239.594C28.143,-222.662 30.418,-205.207 32.55,-187.807C33.253,-182.068 33.765,-176.203 35.075,-170.56C35.572,-168.418 36.037,-165.387 38.678,-165.262C41.086,-165.149 43.555,-167.626 44.782,-169.402C45.986,-171.146 46.754,-173.211 47.347,-175.229C47.637,-176.214 48.173,-183.184 48.867,-183.64C48.083,-183.124 52.121,-175.981 52.603,-174.818C55.249,-168.436 57.217,-162.054 57.033,-155.105C56.962,-152.439 55.438,-145.413 57.759,-143.311C59.368,-141.853 62.429,-143.022 64.016,-143.885C65.582,-144.738 66.688,-145.993 67.854,-147.296C68.273,-147.765 69.137,-149.733 70.135,-149.372C70.302,-149.313 70.348,-148.605 70.473,-148.475C72.304,-146.559 73.162,-141.326 74.091,-138.857C76.136,-133.422 78.297,-128.018 80.249,-122.548C85.851,-106.847 88.875,-89.679 87.644,-73.007C85.745,-47.285 71.874,-25.828 48.517,-14.44C29.773,-5.301 8.276,-2.593 -12.343,-2.106C-32.948,-1.619 -54.313,-3.232 -73.58,-11.108C-99.061,-21.524 -115.051,-43.234 -118.462,-70.372C-121.099,-91.348 -117.412,-113.205 -110.505,-133.061C-109.403,-136.23 -108.208,-139.374 -106.829,-142.435C-106.291,-143.628 -104.237,-146.206 -104.17,-147.465C-104.127,-148.285 -105.777,-147.901 -106.136,-147.282C-107.04,-145.723 -104.99,-141.714 -104.145,-140.412C-103.168,-138.908 -101.953,-137.616 -100.129,-137.299C-97.298,-136.808 -94.59,-138.594 -93.941,-141.287C-92.736,-146.298 -93.159,-152.194 -92.505,-157.34C-89.529,-180.778 -81.185,-204.207 -60.973,-218.158C-51.089,-224.98 -41.936,-231.469 -33.782,-240.439C-26.276,-248.695 -19.697,-257.763 -13.701,-267.161C-12.636,-268.83 -4.017,-285.366 -2.329,-284.742C-1.534,-284.447 1.099,-285.65 0,-286.057" style="fill:rgb(42,49,110);fill-rule:nonzero;"/>
        </g>
    </g>
</svg>
