<?xml version="1.0" encoding="UTF-8" standalone="no"?><!DOCTYPE svg PUBLIC "-//W3C//DTD SVG 1.1//EN" "http://www.w3.org/Graphics/SVG/1.1/DTD/svg11.dtd"><svg width="100%" height="100%" viewBox="0 0 102 24" version="1.1" xmlns="http://www.w3.org/2000/svg" xmlns:xlink="http://www.w3.org/1999/xlink" xml:space="preserve" xmlns:serif="http://www.serif.com/" style="fill-rule:evenodd;clip-rule:evenodd;"><g id="Page-1"><g id="cf"><path id="C" d="M8.184,18.612c0.304,-0.18 0.522,-0.474 0.605,-0.816l0.246,-1.007c0.096,-0.305 0.063,-0.636 -0.091,-0.916l-0.195,-0.326l-2.219,0.809l0.151,0.256c0.196,0.324 0.055,0.727 -0.307,0.943l-0.436,0.264c-0.171,0.109 -0.379,0.142 -0.574,0.091c-0.196,-0.051 -0.362,-0.181 -0.458,-0.358l-1.113,-1.868c-0.108,-0.168 -0.143,-0.374 -0.093,-0.569c0.049,-0.194 0.176,-0.36 0.352,-0.457l0.434,-0.259c0.371,-0.223 0.775,-0.144 0.964,0.177l0.145,0.245l1.786,-1.557l-0.226,-0.381c-0.175,-0.268 -0.451,-0.453 -0.763,-0.513l-0.999,-0.252c-0.34,-0.083 -0.699,-0.023 -0.995,0.163l-2.173,1.3c-0.305,0.17 -0.528,0.458 -0.617,0.798l-0.251,0.998c-0.088,0.341 -0.037,0.704 0.146,1.005l1.688,2.826c0.178,0.304 0.472,0.523 0.815,0.606l0.989,0.256c0.342,0.09 0.704,0.037 1.007,-0.145l2.182,-1.313Z" style="fill:#f26950;fill-rule:nonzero;stroke:#ffd9b1;stroke-width:0.51px;"/><path id="A" d="M10.889,17.075l2.636,-1.084l-0.418,-0.741l-0.077,-0.547l2.135,-0.88l0.331,0.445l0.225,0.821l2.637,-1.084l-0.716,-0.62l-3.677,-4.646l-0.225,-0.82l-3.854,1.581l0.418,0.74l0.657,5.89l-0.072,0.945Zm1.909,-4.151l-0.368,-2.722l1.656,2.194l-1.288,0.528Z" style="fill:#f26950;fill-rule:nonzero;stroke:#ffd9b1;stroke-width:0.51px;"/><path id="M" d="M19.713,13.55l2.599,-0.703l-0.424,-0.76l-0.848,-3.165l2.342,2.217l0.408,-0.109l0.919,-3.085l0.848,3.164l0.014,0.87l2.598,-0.703l-0.422,-0.762l-1.477,-5.5l-0.013,-0.87l-2.681,0.718l-0.802,3.197l-2.294,-2.367l-2.681,0.719l0.423,0.762l1.475,5.501l0.016,0.876Z" style="fill:#f26950;fill-rule:nonzero;stroke:#ffd9b1;stroke-width:0.51px;"/><path id="P" d="M30.14,10.933l2.705,-0.441l-0.351,-0.798l-0.153,-0.938l2.031,-0.33c0.346,-0.053 0.657,-0.243 0.863,-0.528l0.6,-0.834c0.209,-0.286 0.294,-0.643 0.235,-0.989l-0.238,-1.458c-0.052,-0.347 -0.242,-0.658 -0.527,-0.863l-0.837,-0.602c-0.284,-0.209 -0.64,-0.294 -0.988,-0.235l-4.529,0.738l0.343,0.799l0.916,5.625l-0.07,0.854Zm1.918,-3.997l-0.304,-1.875l1.03,-0.175c0.198,-0.038 0.402,0.009 0.564,0.128c0.163,0.118 0.268,0.3 0.292,0.5l0.063,0.395c0.04,0.197 -0.005,0.401 -0.122,0.564c-0.118,0.163 -0.298,0.27 -0.496,0.295l-1.027,0.168Z" style="fill:#f26950;fill-rule:nonzero;stroke:#ffd9b1;stroke-width:0.51px;"/><path id="F" d="M38.387,9.689l2.731,-0.238l-0.281,-0.812l-0.144,-1.662l2.134,-0.184l0.589,0.088l-0.176,-2.06l-0.566,0.186l-2.134,0.176l-0.101,-1.187l2.552,-0.221l0.806,0.142l-0.497,-2.074l-5.548,0.479l0.283,0.823l0.49,5.675l-0.138,0.869Z" style="fill:#f26950;fill-rule:nonzero;stroke:#ffd9b1;stroke-width:0.51px;"/><path id="I" d="M46.002,9.128l2.741,-0.087l-0.237,-0.836l-0.177,-5.703l0.185,-0.841l-2.741,0.086l0.225,0.817l0.177,5.713l-0.173,0.851Z" style="fill:#f26950;fill-rule:nonzero;stroke:#ffd9b1;stroke-width:0.51px;"/><path id="R" d="M50.812,8.98l2.742,0.078l-0.188,-0.851l0.037,-1.307l0.969,0.027l0.527,1.313l0.113,0.857l2.858,0.079l-0.547,-0.878l-0.738,-1.867l0.573,-0.502c0.264,-0.236 0.414,-0.573 0.415,-0.928l0.035,-1.23c0.008,-0.337 -0.124,-0.661 -0.366,-0.897l-0.703,-0.746c-0.24,-0.259 -0.574,-0.409 -0.926,-0.417l-4.589,-0.127l0.189,0.849l-0.169,5.717l-0.232,0.83Zm2.637,-3.82l0.049,-1.758l1.042,0.03c0.194,-0.007 0.381,0.065 0.519,0.2c0.138,0.136 0.214,0.323 0.211,0.515l0,0.352c-0.007,0.193 -0.093,0.376 -0.238,0.503c-0.146,0.128 -0.338,0.19 -0.531,0.172l-1.052,-0.014Zm0.411,-0.39l0.025,-0.906l0.623,0.016c0.112,-0.005 0.221,0.046 0.291,0.135c0.02,0.04 0.03,0.084 0.028,0.127l-0.01,0.401c0,0.127 -0.113,0.251 -0.335,0.244l-0.622,-0.017Z" style="fill:#f26950;fill-rule:nonzero;stroke:#ffd9b1;stroke-width:0.51px;"/><path id="E" d="M59.554,9.31l5.709,0.586l0.623,-1.95l-1.007,0.11l-2.623,-0.271l0.11,-1.071l2.13,0.22l0.563,0.194l0.202,-1.95l-0.593,0.077l-2.131,-0.22l0.108,-1.029l2.549,0.263l0.766,0.291l-0.11,-2.027l-5.541,-0.569l0.124,0.862l-0.584,5.666l-0.295,0.818Z" style="fill:#f26950;fill-rule:nonzero;stroke:#ffd9b1;stroke-width:0.51px;"/><path id="F1" d="M70.153,10.641l2.69,0.558l-0.038,-0.86l0.34,-1.631l2.097,0.436l0.54,0.252l0.42,-2.024l-0.596,0.015l-2.096,-0.434l0.244,-1.168l2.508,0.528l0.731,0.367l0.12,-2.128l-5.45,-1.134l0.034,0.878l-1.159,5.577l-0.385,0.768Z" style="fill:#f26950;fill-rule:nonzero;stroke:#ffd9b1;stroke-width:0.51px;"/><path id="I1" d="M77.584,12.301l2.637,0.742l0.024,-0.87l1.542,-5.494l0.427,-0.745l-2.637,-0.743l-0.027,0.848l-1.546,5.504l-0.42,0.758Z" style="fill:#f26950;fill-rule:nonzero;stroke:#ffd9b1;stroke-width:0.51px;"/><path id="R1" d="M82.176,13.583l2.566,0.966l0.1,-0.865l0.461,-1.23l0.909,0.343l0.065,1.405l-0.176,0.848l2.681,1.011l-0.234,-1l-0.089,-2.006l0.703,-0.287c0.329,-0.136 0.585,-0.406 0.703,-0.741l0.431,-1.147c0.116,-0.316 0.097,-0.666 -0.055,-0.966l-0.425,-0.937c-0.142,-0.325 -0.409,-0.579 -0.741,-0.703l-4.295,-1.614l-0.099,0.863l-2.011,5.344l-0.494,0.716Zm3.739,-2.752l0.616,-1.64l0.978,0.368c0.186,0.056 0.339,0.185 0.425,0.359c0.086,0.173 0.098,0.374 0.031,0.556l-0.127,0.335c-0.069,0.181 -0.21,0.325 -0.39,0.399c-0.178,0.073 -0.379,0.07 -0.556,-0.009l-0.977,-0.368Zm0.517,-0.234l0.319,-0.851l0.583,0.221c0.109,0.03 0.197,0.114 0.232,0.223c0.005,0.043 0,0.087 -0.016,0.128l-0.141,0.376c-0.044,0.118 -0.188,0.199 -0.396,0.122l-0.581,-0.219Z" style="fill:#f26950;fill-rule:nonzero;stroke:#ffd9b1;stroke-width:0.51px;"/><path id="M1" d="M90.222,16.638l2.337,1.332l0.233,-0.838l1.619,-2.841l0.109,3.218l0.366,0.21l2.824,-1.548l-1.618,2.841l-0.602,0.628l2.337,1.333l0.233,-0.839l2.813,-4.947l0.602,-0.63l-2.41,-1.372l-2.813,1.707l0.033,-3.294l-2.41,-1.375l-0.234,0.838l-2.813,4.947l-0.606,0.63Z" style="fill:#f26950;fill-rule:nonzero;stroke:#ffd9b1;stroke-width:0.51px;"/><g id="C-"><path id="Path" d="M8.385,19.032c0.402,-0.244 0.693,-0.633 0.814,-1.087l-0.387,1.472c-0.099,0.444 -0.374,0.831 -0.763,1.068l-2.218,1.326c-0.374,0.211 -0.817,0.265 -1.231,0.15l-1.054,-0.296c-0.453,-0.115 -0.842,-0.404 -1.084,-0.803l-1.675,-2.813c-0.236,-0.397 -0.307,-0.871 -0.197,-1.32l0.336,-1.39c-0.099,0.448 -0.025,0.916 0.208,1.313l1.676,2.813c0.221,0.412 0.608,0.709 1.064,0.813l1.001,0.238c0.449,0.119 0.928,0.057 1.33,-0.176l2.18,-1.308Z" style="fill:#d37866;fill-rule:nonzero;stroke:#282f6c;stroke-width:0.36px;"/><path id="Path1" d="M5.479,15.523l2.427,-2.125l-0.367,1.406l-1.633,1.441l-0.021,-0.036l-0.015,0.058l-0.763,0.673l-0.46,-0.77c-0.043,-0.025 -0.096,-0.029 -0.144,-0.012l-0.383,-0.644c-0.053,-0.074 -0.07,-0.167 -0.047,-0.256c0.025,-0.088 0.086,-0.16 0.171,-0.197l0.434,-0.26c0.091,-0.074 0.211,-0.102 0.324,-0.072l0.477,0.794Z" style="fill:#d37866;fill-rule:nonzero;stroke:#282f6c;stroke-width:0.3px;"/><path id="Path2" d="M5.87,16.26l0.036,-0.022l0.4,0.671c0.087,0.144 0.024,0.244 -0.157,0.351l-0.436,0.26c-0.048,0.033 -0.103,0.053 -0.16,0.06l0.317,-1.32Z" style="fill:#d37866;fill-rule:nonzero;stroke:#282f6c;stroke-width:0.3px;"/></g><g id="A-"><path id="Path3" d="M9.874,10.42l0.634,5.785l-0.115,1.582l3.716,-1.527l-0.575,1.406l-3.718,1.529l0.152,-1.601l-0.642,-5.802l-0.616,-1.081l0.549,-1.355l0.615,1.064Z" style="fill:#d37866;fill-rule:nonzero;stroke:#282f6c;stroke-width:0.36px;"/><path id="Path4" d="M15.071,14.521l0.323,1.201l3.717,-1.528l-0.567,1.396l-3.715,1.526l-0.307,-1.276l-0.091,-0.111l-0.497,0.204l-0.431,-0.769l-0.027,-0.149l1.523,-0.626l0.072,0.132Z" style="fill:#d37866;fill-rule:nonzero;stroke:#282f6c;stroke-width:0.27px;"/><path id="Path5" serif:id="Path" d="M13.002,11.609l0.06,0.844l0.49,-0.2l-0.55,-0.644Z" style="fill:#d37866;stroke:#282f6c;stroke-width:0.04px;"/><path id="Shape" d="M13.002,11.609l0.06,0.844l0.49,-0.2l-0.55,-0.644Zm0.14,0.716l0.264,-0.108l-0.297,-0.348l0.033,0.456Z" style="fill:#282f6c;"/></g><g id="M-"><path id="Path51" serif:id="Path5" d="M17.793,7.372l1.45,5.398l0.031,1.38l3.643,-0.979l-0.704,1.301l-3.636,0.975l-0.052,-1.415l-1.449,-5.4l-0.664,-1.185l0.723,-1.254l0.658,1.179Z" style="fill:#d37866;fill-rule:nonzero;stroke:#282f6c;stroke-width:0.36px;"/><path id="Path6" d="M22.246,11.969l-0.444,-1.662l1.429,1.341l0.866,-0.232l-0.72,1.265l-0.642,0.175l-0.089,-0.175l-0.4,-0.712Z" style="fill:#d37866;fill-rule:nonzero;stroke:#282f6c;stroke-width:0.25px;"/><path id="Path7" d="M22.477,5.816l0.714,-1.25l-0.677,2.705l-0.331,-0.352l0.294,-1.103Z" style="fill:#d37866;fill-rule:nonzero;stroke:#282f6c;stroke-width:0.25px;"/><path id="Path8" d="M25.1,11.195l0.031,1.38l3.638,-0.977l-0.689,1.299l-3.648,0.979l-0.053,-1.417l-0.282,-1.055l0.558,-1.874l0.445,1.665Z" style="fill:#d37866;fill-rule:nonzero;stroke:#282f6c;stroke-width:0.3px;"/></g><g id="P-"><path id="Path9" d="M28.85,4.593l0.898,5.518l-0.107,1.374l3.769,-0.614l-0.837,1.231l-3.78,0.615l0.112,-1.417l-0.89,-5.523l-0.528,-1.248l0.845,-1.175l0.518,1.239Z" style="fill:#d37866;fill-rule:nonzero;stroke:#282f6c;stroke-width:0.34px;"/><path id="Path10" d="M32.802,9.133l1.613,-0.264c0.458,-0.073 0.867,-0.327 1.135,-0.703l-0.834,1.173c-0.27,0.379 -0.684,0.633 -1.145,0.703l-0.469,0.077l-0.225,-0.528l-0.075,-0.458Z" style="fill:#d37866;fill-rule:nonzero;stroke:#282f6c;stroke-width:0.3px;"/><path id="Path11" d="M33.255,6.013c0.017,0.086 -0.002,0.175 -0.054,0.246c-0.051,0.072 -0.13,0.119 -0.217,0.13l-0.614,0.1l-0.175,-1.04l0.616,-0.101c0.106,-0.022 0.216,0.012 0.291,0.092c0.043,0.049 0.072,0.11 0.083,0.175l0.07,0.398Z" style="fill:#d37866;fill-rule:nonzero;stroke:#282f6c;stroke-width:0.51px;stroke-linejoin:round;"/></g><g id="F-"><path id="Path12" d="M37.595,3.296l0.48,5.558l-0.211,1.341l3.805,-0.329l-0.879,1.156l-3.816,0.329l0.175,-1.379l-0.482,-5.571l-0.439,-1.285l0.928,-1.119l0.439,1.299Z" style="fill:#d37866;fill-rule:nonzero;stroke:#282f6c;stroke-width:0.33px;"/><path id="Path13" d="M42.936,4.265l0.505,0.083l-0.879,0.288l-1.65,0.142l-0.029,-0.336l2.053,-0.177Z" style="fill:#d37866;fill-rule:nonzero;stroke:#282f6c;stroke-width:0.25px;"/><path id="Path14" d="M41.221,8.426l-0.089,-1.008l1.65,-0.147l1.055,0.152l-0.922,1.107l-1.073,-0.162l-0.621,0.058Z" style="fill:#d37866;fill-rule:nonzero;stroke:#282f6c;stroke-width:0.3px;"/><path id="Path15" d="M43.66,5.291l-0.079,-0.913l0.753,0.124l-0.674,0.789Z" style="fill:#d37866;fill-rule:nonzero;stroke:#282f6c;stroke-width:0.25px;"/></g><path id="I-" d="M45.722,8.27l-0.286,1.34l3.816,-0.12l-1.009,1.107l-3.806,0.12l0.304,-1.393l-0.175,-5.587l-0.369,-1.307l0.981,-1.055l0.367,1.319l0.177,5.576Z" style="fill:#d37866;fill-rule:nonzero;stroke:#282f6c;stroke-width:0.32px;"/><path id="R-" d="M54.47,8.365l0.146,1.187l4.007,0.11l-1.072,1.055l-3.999,-0.111l-0.047,-0.522l-0.51,0.502l-3.816,-0.105l0.387,-1.382l0.154,-5.588l-0.291,-1.338l1.04,-0.985l0.29,1.307l-0.145,5.588l-0.374,1.34l3.817,0.107l-0.288,-1.359l0.022,-0.833l0.275,0l0.404,1.027Z" style="fill:#d37866;fill-rule:nonzero;stroke:#282f6c;stroke-width:0.36px;"/><path id="Path16" serif:id="Path" d="M53.764,3.785c0,0 0.786,0.019 0.887,0.028c0.161,0.013 0.285,0.063 0.29,0.261c0.003,0.134 0.005,0.475 -0.011,0.612c-0.012,0.106 -0.104,0.219 -0.244,0.228c-0.139,0.009 -0.964,-0.015 -0.964,-0.015l0.042,-1.114Z" style="fill:#d37866;"/><path id="Shape1" serif:id="Shape" d="M53.764,3.785c0,0 0.786,0.019 0.887,0.028c0.161,0.013 0.285,0.063 0.29,0.261c0.003,0.134 0.005,0.475 -0.011,0.612c-0.012,0.106 -0.104,0.219 -0.244,0.228c-0.139,0.009 -0.964,-0.015 -0.964,-0.015l0.042,-1.114Zm0.169,0.181l-0.028,0.761c0.246,0.008 0.675,0.018 0.77,0.012c0.046,-0.003 0.076,-0.038 0.08,-0.073c0.015,-0.131 0.013,-0.459 0.01,-0.588c-0.001,-0.027 -0.002,-0.047 -0.013,-0.061c-0.025,-0.028 -0.069,-0.026 -0.115,-0.029c-0.07,-0.005 -0.468,-0.016 -0.704,-0.022Z" style="fill:#282f6c;"/><g id="E-"><path id="Path161" serif:id="Path16" d="M59.981,2.885l-0.571,5.552l-0.456,1.278l6.579,0.677l-1.095,0.968l-6.58,-0.676l0.432,-1.324l0.571,-5.561l-0.19,-1.347l1.125,-0.933l0.185,1.366Z" style="fill:#d37866;fill-rule:nonzero;stroke:#282f6c;stroke-width:0.41px;"/><path id="Path17" d="M64.374,7.398l0.726,0.255l-0.256,0.026l-2.163,-0.222l0.025,-0.23l1.668,0.171Z" style="fill:#d37866;fill-rule:nonzero;stroke:#282f6c;stroke-width:0.15px;"/><path id="Path18" d="M65.062,4.722l0.175,0.07l-0.611,0.076l-1.66,-0.176l0.019,-0.188l2.077,0.218Z" style="fill:#d37866;fill-rule:nonzero;stroke:#282f6c;stroke-width:0.15px;"/><path id="Path19" d="M65.589,5.89l0.096,-0.923l0.703,0.262l-0.799,0.661Z" style="fill:#d37866;fill-rule:nonzero;stroke:#282f6c;stroke-width:0.2px;"/></g><g id="F-1"><path id="Path20" d="M71.234,4.293l-1.134,5.464l-0.588,1.231l3.739,0.777l-1.18,0.854l-3.75,-0.777l0.566,-1.273l1.143,-5.481l-0.051,-1.359l1.212,-0.814l0.043,1.378Z" style="fill:#d37866;fill-rule:nonzero;stroke:#282f6c;stroke-width:0.32px;"/><path id="Path21" d="M73.229,10.246l0.208,-0.992l1.631,0.339l0.972,0.451l-1.199,0.794l-0.981,-0.463l-0.631,-0.129Z" style="fill:#d37866;fill-rule:nonzero;stroke:#282f6c;stroke-width:0.25px;"/><path id="Path22" d="M76.066,6.752l0.461,0.225l-0.931,0.022l-1.621,-0.338l0.069,-0.33l2.022,0.421Z" style="fill:#d37866;fill-rule:nonzero;stroke:#282f6c;stroke-width:0.15px;"/><path id="Path23" d="M76.476,7.946l0.187,-0.898l0.683,0.336l-0.87,0.562Z" style="fill:#d37866;fill-rule:nonzero;stroke:#282f6c;stroke-width:0.15px;"/></g><path id="I-1" d="M77.574,11.401l-0.674,1.19l3.677,1.031l-1.295,0.755l-3.667,-1.029l0.703,-1.23l1.51,-5.383l0.042,-1.359l1.251,-0.703l-0.045,1.368l-1.502,5.36Z" style="fill:#d37866;fill-rule:nonzero;stroke:#282f6c;stroke-width:0.32px;"/><path id="R-1" d="M85.834,14.192l-0.248,1.166l3.753,1.407l-1.357,0.638l-3.743,-1.407l0.124,-0.506l-0.645,0.309l-3.575,-1.343l0.817,-1.182l1.966,-5.233l0.159,-1.35l1.304,-0.59l-0.151,1.329l-1.959,5.237l-0.791,1.146l3.576,1.343l0.176,-1.379l0.293,-0.781l0.257,0.098l0.044,1.098Z" style="fill:#d37866;fill-rule:nonzero;stroke:#282f6c;stroke-width:0.36px;"/><path id="Path24" serif:id="Path" d="M86.665,9.598c0,0 0.752,0.263 0.847,0.302c0.151,0.061 0.255,0.149 0.198,0.341c-0.037,0.13 -0.142,0.46 -0.2,0.587c-0.044,0.099 -0.168,0.179 -0.305,0.145c-0.138,-0.036 -0.925,-0.315 -0.925,-0.315l0.385,-1.06Z" style="fill:#d37866;"/><path id="Shape2" serif:id="Shape" d="M86.665,9.598c0,0 0.752,0.263 0.847,0.302c0.151,0.061 0.255,0.149 0.198,0.341c-0.037,0.13 -0.142,0.46 -0.2,0.587c-0.044,0.099 -0.168,0.179 -0.305,0.145c-0.138,-0.036 -0.925,-0.315 -0.925,-0.315l0.385,-1.06Zm0.107,0.224l-0.266,0.73c0.235,0.083 0.646,0.226 0.742,0.25c0.045,0.012 0.087,-0.014 0.102,-0.046c0.055,-0.123 0.155,-0.439 0.192,-0.564c0.008,-0.028 0.013,-0.048 0.006,-0.065c-0.015,-0.035 -0.059,-0.047 -0.103,-0.065c-0.066,-0.026 -0.449,-0.162 -0.673,-0.24Z" style="fill:#282f6c;"/><g id="M-1"><path id="Path241" serif:id="Path24" d="M93.211,10.895l-2.769,4.856l-0.948,1.003l3.281,1.87l-1.407,0.432l-3.271,-1.864l0.959,-1.043l2.767,-4.858l0.352,-1.312l1.394,-0.382l-0.358,1.298Z" style="fill:#d37866;fill-rule:nonzero;stroke:#282f6c;stroke-width:0.33px;"/><path id="Path25" d="M93.145,17.291l0.851,-1.492l0.072,1.96l0.779,0.443l-1.406,0.393l-0.579,-0.329l0.059,-0.187l0.224,-0.788Z" style="fill:#d37866;fill-rule:nonzero;stroke:#282f6c;stroke-width:0.25px;"/><path id="Path26" d="M95.71,18.754l-0.947,1.002l3.271,1.865l-1.406,0.439l-3.28,-1.87l0.959,-1.044l0.528,-0.944l1.714,-0.94l-0.839,1.492Z" style="fill:#d37866;fill-rule:nonzero;stroke:#282f6c;stroke-width:0.25px;"/><path id="Path27" d="M97.63,13.087l1.387,-0.387l-2.375,1.438l0,-0.471l0.988,-0.58Z" style="fill:#d37866;fill-rule:nonzero;stroke:#282f6c;stroke-width:0.2px;"/></g></g></g></svg>