<svg clip-rule="evenodd" fill-rule="evenodd" stroke-linejoin="round" stroke-miterlimit="1.41421" viewBox="0 0 2102 2422" xmlns="http://www.w3.org/2000/svg"><g fill-rule="nonzero"><path d="m0 179.751c-16.724 13.48-37.904-69.253-39.162-81.764-.145-1.44 6.416-7.483 10.364-13.843 2.685-4.329 8.152-5.308 10.159-.626.409.953.804 1.982 1.174 3.092 3.356 10.07-7.814 22.156-7.814 24.841 0 1.217 1.87 16.055 6.434 11.195 1.116-1.189 2.749-2.863 3.714-3.976 1.09-1.259 3.056-1.22 4.092.084 1.997 2.513 3.819 3.628 3.819 5.754 0 3.355-5.737 6.39-8.055 9.397-.867 1.124 2.955 12.67 3.95 15.963.411 1.359 5.683 9.729 6.969 9.127 12.15-5.685 1.299-45.105 8.152-39.922 11.075 8.378 15 45.526-3.796 60.678m-7.094 19c-1.785 2.819-4.854 6.112-9.461 6.112-7.048 0-27.922-43.145-35.528-51.519-1.086-1.196-1.901.277-2.367.634-2.349 1.799 20.694 53.463 18.508 58.163-1.478 3.173-7.434 5.735-11.143 7.063-1.59.569-3.312-.392-3.639-2.05-3.546-18-22.74-97.612-24.751-102.625-1.573-3.921 10.322-11.063 16.855-14.632 2.87-1.568 6.444-1.234 8.892.933 3.358 2.974 7.421 8.495 8.457 18.203 1.218 11.419-3.94 16.415-5.54 19.951-.818 1.809.088 2.941 1.51 4.995 4.32 6.242 28.337 41.56 37.147 48.475 1.926 1.513 2.37 4.228 1.06 6.297m-59.433 19.371h-7.207c-2.62 0-4.748-2.116-4.746-4.735.008-16.473-6.968-76.621-8.194-88.88-.168-1.677.866-3.234 2.475-3.736l.669-.209s2.499-1.529 6.324 14.106c4.822 19.711 12.214 68.489 13.754 79.945.251 1.861-1.197 3.509-3.075 3.509m-25.946-115.663c-.958.76-4.338.641-5.144-.278-5.929-6.75-28.497-35.233-18.161-84.671 1.705-8.154 3.608-2.738 4.618-.592l8.199 17.423c.216.46.9.353.959-.152.743-6.44 4.075-28.575 15.624-39.997.238-.235.654.016.63.35-.394 5.657 1.498 35.604 6.94 53.987 4.193 14.161 9.915 29.434 12.404 35.854.633 1.637-.174 3.476-1.807 4.118l-3.575 1.403c-1.702.669-3.637.023-4.586-1.541-4.112-6.776-14.225-25.668-14.253-47.634-.001-.537-.648-.809-1.016-.417-2.071 2.207-6.43 8.306-4.965 19.45.091.698-.804 1.068-1.232.51-2.759-3.588-8.14-10.35-10.39-11.538-4.019-2.121 7.412 39.569 21.204 47.666.607.358.681 1.198.129 1.635zm-15.092 43.627.766 2.799c.366 1.338 1.778 2.202 3.132 1.895 2.103-.476 3.673-1.7 5.688-2.008 2.106-.323 4.161.816 5.134 2.711 1.526 2.973 2.531 7.067-2.203 8.695-7.809 2.684-6.467 6.713-4.452 23.495 1.474 12.285 3.667 23.851 4.737 29.168.373 1.853-.575 3.71-2.295 4.496-5.719 2.617-17.91 7.126-18.905-1.442 0 0-9.047-72.99-3.676-76.773 5.37-3.782 21.299-20.089 23.495-19.893 2.006.178 11.894 8.452-3.356 17.454-2.492 1.469-4.88 3.221-6.791 4.95-1.234 1.118-1.713 2.847-1.274 4.453m-20.898-12.759c-2.462 1.216-5.419.663-7.323-1.316-10.279-10.69-35.79-44.319 2.748-97.472 1.218-1.68 3.889-.844 3.918 1.231.219 15.601 3.345 55.227 28.466 73.258.662.476.867 1.366.45 2.066-1.483 2.491-5.088 7.666-8.694 6.121-3.406-1.459-13.156-18.997-19.289-27.924-.588-.855-1.442-.766-2.255-.349-1.481.759-10.302.39-10.195 2.051.54 8.406 4.464 18.143 11.909 28.234 6.549 8.877 6.286 11.128.265 14.1m-22.214 69.489c-31.461-18.18-38.609-79.644-16.156-93.777 6.98-4.394 14.054 3.315 16.261 13.961.457 2.204-1.139 4.219-3.196 3.301-2.923-1.306-9.352-10.086-13.967.478-8.829 20.212 13.233 61.31 24.644 61.31 7.584 0 6.823-18.618 5.489-23.193-.614-2.105.838-4.243 3.023-4.424 2.013-.168 8.64 8.849 8.627 20.311-.004 4.001 3.289 38.222-24.725 22.033m82.297-233.248c1.394-2.072 4.473-1.998 5.751.149 4.895 8.222 14.675 26.709 12.133 39.42-3.357 16.782-10.741 18.796-4.028 34.235 6.713 15.441 15.44 30.88 12.755 34.907-1.593 2.39-6.256 4.028-9.787 4.964-2.482.658-5.068-.582-6.128-2.92-7.269-16.035-32.816-77.878-10.696-110.755m80.842 136.892-8.649-22.991c-.777-1.506-3.017-1.435-3.685.12-2.136 4.97-6.58 6.838-8.335 6.127-2.936-1.191.173-12.736-1.619-19.942-2.987-12.01-8.101-20.333-8.101-20.333-.55-1.124-2.281-.836-2.402.403-.575 5.945-2.38 15.559-8.04 17.388-7.87 2.543-2.514-91.256-40.548-119.352-1.073-.792-2.619-.488-3.308.636-5.369 8.759-25.118 46.798-53.816 63.963-30.459 18.218-35.446 52.309-37.096 79.716-.174 2.893-3.817 4.138-5.876 2.038-1.841-1.878-3.426-4.639-3.426-8.583 0-9.398-70.525 145.67 84.196 146.342 154.722.671 100.705-125.532 100.705-125.532" fill="#f26950" transform="matrix(4.16667 0 0 4.16667 1319.81772252 514.59207834)"/><path d="m0-25.2 229.795 65.562c6.854 1.956 14.356.449 19.308-3.95 8.754-7.776 19.422-20.692 9.205-31.208-6.064-6.239-259.872-72.722-259.872-72.722s-16.562.344-18.785 15.264c-1.771 11.891 7.024 23.252 20.349 27.054" fill="#d37966" transform="matrix(4.16667 0 0 4.16667 494.15039532 1819.08895527)"/><path d="m0 44.694 223.645-85.423c10.491-4.007 22.749-2.519 31.287 4.291 5.566 4.44 9.371 10.839 6.283 19.778-2.606 7.545-9.043 13.521-17.139 16.521l-240.772 89.238c-.855.318-1.806.331-2.67.033-.065-.023-.132-.046-.201-.071-22.07-7.82-22.268-36.027-.433-44.367" fill="#f58a6c" transform="matrix(4.16667 0 0 4.16667 476.74204806 1657.68882615)"/><g fill="#2a316e"><path d="m0 26.952-108.983-27.407c-5.148-1.295-10.297-2.589-15.445-3.884-2.995-.753-2.258 3.776-.019 4.339l108.983 27.407c5.148 1.294 10.297 2.589 15.445 3.884 2.995.753 2.257-3.777.019-4.339" transform="matrix(4.16667 0 0 4.16667 991.53412656 1513.36787736)"/><path d="m0 13.762c-23.092-6.033-46.183-12.067-69.275-18.102-2.988-.78-2.25 3.756-.019 4.339 23.091 6.034 46.183 12.069 69.274 18.103 2.988.78 2.251-3.757.02-4.34" transform="matrix(4.16667 0 0 4.16667 1557.39291258 1721.28054369)"/><path d="m0-26.805c34.252 8.994 68.504 17.989 102.756 26.983l14.502 3.809c3.167.831 2.986-3.261.221-3.987-34.252-8.994-68.504-17.989-102.756-26.984-4.834-1.269-9.668-2.538-14.503-3.807-3.166-.832-2.986 3.259-.22 3.986" transform="matrix(4.16667 0 0 4.16667 1019.35498215 1940.64321918)"/><path d="m0-14.303c23.411 6.097 46.822 12.193 70.233 18.29 3.168.825 2.989-3.266.221-3.986-23.412-6.097-46.823-12.194-70.233-18.29-3.169-.826-2.989 3.265-.221 3.986" transform="matrix(4.16667 0 0 4.16667 425.17950681 1734.8763879)"/><path d="m0 2.421c-1.779 5.471-4.77 12.497-10.179 15.417-8.849 4.776-6.036-13.377-4.922-17.301 1.651-5.816 5.486-12.602 10.778-15.908 8.633-5.394 5.327 14.205 4.323 17.792-.361 1.29 3.504 4.229 3.872 2.914 2.146-7.662 3.747-20.864-5.449-24.995-8.34-3.745-15.7 11.311-17.396 17.283-2.141 7.54-3.063 20.097 5.697 24.109 8.941 4.094 15.131-10.193 17.148-16.397.405-1.247-3.437-4.252-3.872-2.914" transform="matrix(4.16667 0 0 4.16667 1563.81375105 1863.98899119)"/><path d="m0-105.142c-27.692 11.541-55.385 23.082-83.078 34.623-44.159 18.403-88.318 36.806-132.476 55.209-10.162 4.235-20.323 8.47-30.485 12.705-3.064 1.276-.239 3.609 2.171 2.606 27.693-11.541 55.386-23.082 83.078-34.623 44.159-18.404 88.317-36.807 132.476-55.209 10.162-4.236 20.324-8.471 30.485-12.706 3.064-1.276.239-3.609-2.171-2.605" transform="matrix(4.16667 0 0 4.16667 1452.42199527 1879.19317002)"/><path d="m0 104.884c27.918-11.716 55.835-23.432 83.753-35.148 44.301-18.591 88.602-37.183 132.903-55.775 10.176-4.269 20.351-8.54 30.527-12.81 1.206-.506-3.156-1.6-4.226-1.151-27.918 11.717-55.836 23.433-83.754 35.149-44.301 18.591-88.601 37.183-132.902 55.774-10.176 4.271-20.351 8.541-30.527 12.812-1.206.505 3.156 1.598 4.226 1.149" transform="matrix(4.16667 0 0 4.16667 508.53374016 1595.34710961)"/><path d="m0-8.293c1.818 5.306 4.932 16.772-.707 21.317-6.27 5.054-12.392-9.241-13.762-13.724-1.645-5.385-2.666-13.715.455-18.803 5.095-8.305 12.52 7.373 14.014 11.21.46 1.181 4.258 1.942 4.331 2.128-2.889-7.417-8.602-16.553-17.293-18.055-9.827-1.698-7.429 16.227-5.837 21.392 2.462 7.988 8.325 16.826 16.918 19.133 11.963 3.21 8.146-16.824 6.212-22.47-.402-1.172-4.283-1.987-4.331-2.128" transform="matrix(4.16667 0 0 4.16667 1524.72205311 1537.50539667)"/><path d="m0 34.579c24.751-10.204 49.503-20.408 74.254-30.611 3.001-1.238.586-5.07-2.087-3.967-24.751 10.203-49.503 20.407-74.254 30.611-3.001 1.237-.586 5.069 2.087 3.967" transform="matrix(4.16667 0 0 4.16667 588.80880438 1732.49305266)"/><path d="m0 13.817c8.833-4.074 17.667-8.148 26.5-12.224 1.632-.753-2.896-2.17-4.147-1.592-8.834 4.074-17.667 8.149-26.5 12.223-1.632.753 2.896 2.17 4.147 1.593" transform="matrix(4.16667 0 0 4.16667 922.84657161 1737.43888995)"/><path d="m0 14.676c10.747-4.331 21.494-8.663 32.24-12.995 2.698-1.087 2.116-2.792-.639-1.682-10.747 4.332-21.494 8.664-32.241 12.995-2.696 1.088-2.116 2.793.64 1.682" transform="matrix(4.16667 0 0 4.16667 1209.584301 1543.96373517)"/><path d="m0-7.676c-2.671 1.233-5.343 2.467-8.014 3.699-1.084.5-2.071 1.563-1.621 2.847.406 1.155 2.014 1.619 3.075 1.129 2.672-1.233 5.343-2.466 8.015-3.698 1.083-.5 2.071-1.563 1.62-2.847-.406-1.155-2.014-1.619-3.075-1.13" transform="matrix(4.16667 0 0 4.16667 1177.73427552 1635.78880863)"/><path d="m0-9.287c14.553 3.928 29.106 7.854 43.659 11.781 1.346.364 4.72-2.34 4.145-2.495-14.553-3.927-29.106-7.853-43.659-11.78-1.346-.364-4.72 2.34-4.145 2.494" transform="matrix(4.16667 0 0 4.16667 1285.27186155 1799.33893947)"/><path d="m0-3.765c6.772 1.964 13.544 3.927 20.316 5.891 1.304.378 5.642-1.622 3.905-2.126-6.772-1.963-13.544-3.927-20.316-5.89-1.304-.379-5.642 1.622-3.905 2.125" transform="matrix(4.16667 0 0 4.16667 1102.92171567 1800.10560675)"/><path d="m0-11.132c17.386 4.813 34.772 9.627 52.159 14.441 3.177.879 2.865-2.599.3-3.309-17.386-4.814-34.773-9.627-52.159-14.441-3.177-.879-2.866 2.599-.3 3.309" transform="matrix(4.16667 0 0 4.16667 591.38797311 1627.81380225)"/><path d="m0 .864c3.793 1.201 7.587 2.403 11.38 3.604 2.274.721.883-3.947-.763-4.468-3.793-1.201-7.586-2.404-11.38-3.605-2.274-.72-.883 3.948.763 4.469" transform="matrix(4.16667 0 0 4.16667 724.0005792 1672.61383809)"/></g><path d="m0 26.313 9.353-1.868c.455.062.845-.325.782-.781-.483-3.501-2.195-16.11-2.248-19.063-.082-4.601-5.301 2.956-8.479 20.894-.069.388.2.764.592.818" fill="#f26950" transform="matrix(4.16667 0 0 4.16667 727.73391552 718.48807479)"/><path d="m0 23.58c.513 1.332 2.272 1.649 3.217.579 2.141-2.427 5.017-7.127 2.407-13.045-3.864-8.76-4.238-12.763-7.126-11.121-9.452 5.375-1.012 17.065 1.502 23.587" fill="#f26950" transform="matrix(4.16667 0 0 4.16667 1080.7091979 970.45077636)"/><path d="m0-29.556c.226-2.092 1.452-6.735 3.865-.53 2.89 7.428 5.772 17.908 4.536 20.411-1.237 2.506-6.949 16.41-7.758 2.515-.305-5.237-1.518-14.275-.643-22.396" fill="#f26950" transform="matrix(4.16667 0 0 4.16667 1037.98416372 593.77547502)"/><path d="m0-.399c1.851-5.694 5.088-13.583 11.132-16.097 9.217-3.834 6.851 11.08 5.638 15.752-1.632 6.286-6.081 14.976-12.454 17.705-9.028 3.867-5.4-13.478-4.279-17.482.324-1.158-2.534-3.971-2.488-4.134-2.193 7.83-3.1 18.588 3.438 24.881 7.282 7.009 16.145-9.85 17.775-15.063 2.432-7.78 2.927-18.457-3.342-24.791-7.925-8.006-16.096 9.505-17.834 14.85-.436 1.34 2.619 3.75 2.414 4.379" fill="#2a316e" transform="matrix(4.16667 0 0 4.16667 414.466164906 1585.97626878)"/><path d="m0 5.79c-1.621-4.732-5.371-17.86.676-21.447 5.264-3.123 11.969 11.838 13.135 15.644 1.61 5.253 3.054 14.99-.898 19.673-4.141 4.91-11.746-10.875-12.913-13.87-.37-.951-4.877-.051-4.988-.338 3.2 8.22 8.372 16.425 18.012 16.389 9.621-.035 7.654-15.463 5.775-21.517-2.528-8.149-8.02-17.147-17.315-17.62-12.007-.61-8.98 15.431-6.472 22.748.313.916 4.91.109 4.988.338" fill="#2a316e" transform="matrix(4.16667 0 0 4.16667 425.84200734 1943.74322166)"/><path d="m0-286.057c-6.091-2.254-8.819 6.488-11.224 10.537-5.352 9.007-11.109 17.788-17.583 26.033-7.979 10.161-17.099 19.781-27.989 26.854-10.111 6.566-18.824 13.547-25.266 23.95-5.959 9.625-9.547 20.495-11.707 31.559-1.064 5.446-1.789 10.955-2.315 16.477-.242 2.542-.02 5.497-.63 7.971-.112.456.131 1.404-.113 1.797-.537.864-2.912 1.094-3.466.859-1.492-.633-2.47-4.265-2.719-5.639-.38-2.095-.36-4.59-3.259-2.413-1.154.868-1.839 2.704-2.454 3.94-8.038 16.149-12.102 35.279-13.201 53.16-1.502 24.427 4.187 49.923 22.92 66.936 28.011 25.44 73.148 26.29 108.44 21.75 29.315-3.77 60.512-15.443 74.101-43.707 9.175-19.084 8.667-41.495 4.098-61.741-3.116-13.811-8.523-27.882-14.01-40.846-4.064-9.603-10.588 6.746-13.402 3.71-1.446-1.561-.483-6.18-.406-7.95.114-2.612.274-5.243.045-7.853-.568-6.466-3.353-13.112-6.139-18.919-.749-1.562-1.763-4.85-3.582-5.558-3.454-1.344-4.172 2.51-4.504 4.749-.371 2.502-.874 5.032-1.774 7.403-.489 1.292-2.786 6.593-4.2 6.096-.907-.318-1.338-3.01-1.534-3.78-3.486-13.702-3.761-28.423-6.002-42.367-2.978-18.541-7.105-37.718-16.343-54.264-3.99-7.145-9.033-13.672-15.595-18.631-.754-.569-3.391.57-2.703 1.089 14.268 10.782 21.342 28.551 25.97 45.261 4.689 16.932 6.964 34.387 9.096 51.787.703 5.739 1.215 11.604 2.525 17.247.497 2.142.962 5.173 3.603 5.298 2.408.113 4.877-2.364 6.104-4.14 1.204-1.744 1.972-3.809 2.565-5.827.29-.985.826-7.955 1.52-8.411-.784.516 3.254 7.659 3.736 8.822 2.646 6.382 4.614 12.764 4.43 19.713-.071 2.666-1.595 9.692.726 11.794 1.609 1.458 4.67.289 6.257-.574 1.566-.853 2.672-2.108 3.838-3.411.419-.469 1.283-2.437 2.281-2.076.167.059.213.767.338.897 1.831 1.916 2.689 7.149 3.618 9.618 2.045 5.435 4.206 10.839 6.158 16.309 5.602 15.701 8.626 32.869 7.395 49.541-1.899 25.722-15.77 47.179-39.127 58.567-18.744 9.139-40.241 11.847-60.86 12.334-20.605.487-41.97-1.126-61.237-9.002-25.481-10.416-41.471-32.126-44.882-59.264-2.637-20.976 1.05-42.833 7.957-62.689 1.102-3.169 2.297-6.313 3.676-9.374.538-1.193 2.592-3.771 2.659-5.03.043-.82-1.607-.436-1.966.183-.904 1.559 1.146 5.568 1.991 6.87.977 1.504 2.192 2.796 4.016 3.113 2.831.491 5.539-1.295 6.188-3.988 1.205-5.011.782-10.907 1.436-16.053 2.976-23.438 11.32-46.867 31.532-60.818 9.884-6.822 19.037-13.311 27.191-22.281 7.506-8.256 14.085-17.324 20.081-26.722 1.065-1.669 9.684-18.205 11.372-17.581.795.295 3.428-.908 2.329-1.315" fill="#2a316e" transform="matrix(4.16667 0 0 4.16667 1055.61751116 1495.78452996)"/></g></svg>