<svg height="97" viewBox="0 0 244 97" width="244" xmlns="http://www.w3.org/2000/svg" xmlns:xlink="http://www.w3.org/1999/xlink"><mask id="a" fill="#fff"><path d="m.52586754 96.8158131h69.57089586v-96.59577159h-69.57089586z" fill="#fff" fill-rule="evenodd"/></mask><g fill="none" fill-rule="evenodd"><g fill="#000"><path d="m52.5972327 26.3543673c-.0442224 14.4586451-11.8515964 26.1641671-26.4161127 26.1194358-14.492655-.0459569-26.22571089-11.8237844-26.18087432-26.2818168.04606497-14.5309505 11.85159642-26.23769807 26.34363722-26.1917412 7.3568834.0220593 13.9687426 3.05214915 18.6618421 7.83595328l-11.8644946 6.71460562c-1.9838649-1.1783343-4.3356353-1.8474664-6.8360421-1.8548195-7.4305874-.0238975-13.5535437 6.0491501-13.5774975 13.5346056-.0221112 7.4131501 6.063379 13.5235759 13.4939663 13.5474735 5.2968578.0147062 9.865889-2.9804564 12.1611531-7.3757718l-16.3321829-.0502462.0393088-12.1822479 5.0763601.0147062 11.2552086.0355399 13.4607995.0404421c.433625 1.9828859.7222988 3.9669973.7149284 6.0938814"/><path d="m70.1716344 52.0951184-13.2403019-.040442.1609203-51.88653552 13.2403019.04105481z"/><path d="m124.843081.22929416-17.153982 51.98212574-1.618416-.0055148-12.7999211-.0386038-1.7652098-.0055148-16.7590516-52.08568192 14.5663589.0441186 10.4180544 32.47190112 10.6938302-32.40694874z"/><path d="m164.475664 52.3870365-22.067579-.068629-13.31462-.040442.161535-51.88592273 13.314005.04044205 21.406701.06679065-.03501 11.22818333-21.4067-.0661779-.027639 9.1000736 18.02246.0551483-.035009 11.228796-18.02246-.0551482-.028253 9.1000737 22.067579.0680161z"/><path d="m37.8943372 19.3675132c-.0319384 10.4168913-8.5386035 18.8502839-19.0315903 18.8165822-10.44139408-.0318634-18.89462386-8.518566-18.86268548-18.9348445.03316678-10.46897579 8.53860353-18.90236842 18.97999758-18.87050499 5.2999288.01776999 10.0636613 2.20102785 13.4448303 5.64718059l-8.5478165 4.8377269c-1.4292426-.849283-3.1238194-1.33091108-4.925267-1.33765142-5.3533641-.01593172-9.76454602 4.35977542-9.78174361 9.75204852-.01658339 5.3414142 4.36818791 9.7434699 9.72155211 9.7594016 3.8166366.0122552 7.1081325-2.1458796 8.761558-5.3126145l-11.7662227-.0373783.0282531-8.77715 3.6569448.0122551 8.1092779.0251231 9.6975983.0294124c.3126276 1.4283396.5208413 2.8579048.5153135 4.3904133" transform="translate(0 58.382999)"/><path d="m58.6514601 66.6055416c-.3187697-.0012255-2.3327303-.0079659-8.79841-.0281869l-.024568 7.9315436 8.7990242.0281869c1.9599111-.2064996 3.5027806-1.8934232 3.5095368-4.0086649.006142-2.0619317-1.525672-3.7592722-3.485583-3.9228787zm12.9442576 29.7555436-9.5925701-.0294124-5.8907889-14.1363343-6.0953173-.0183827-.0442224 14.1173387-8.9562593-.0275741.1160838-37.3825463 3.6041235.0110297 5.3521357.0171572 8.9040524.0269614c6.4128585.0196082 11.6433827 5.2697214 11.6237283 11.6681437-.0122839 4.0705535-2.1441709 7.6607044-5.3306387 9.7655292z"/><path d="m100.267233 96.4501802-15.898558-.0490206-9.5925701-.0306379.1160837-37.3819336 9.5925702.030638 15.421939.0465696-.0251822 8.0896352-15.4225532-.0465696-.0196544 6.5559011 12.9841806.0404421-.0251822 8.0896352-12.9847948-.0398293-.0196544 6.5559012 15.8985578.0496334z"/><path d="m129.999225 96.5420327-15.898558-.0490207-9.593184-.0306379.116698-37.3819335 9.59257.0306379 15.421939.0477952-.025182 8.0896352-15.422553-.0477952-.019655 6.5559012 12.984181.0404421-.025182 8.0896352-12.984795-.0398293-.019654 6.5559012 15.898558.0496334z"/><path d="m164.510858 59.2665353-.116084 37.3819335-9.540363-.0306379-10.960393-20.072124-.062648 20.0390351-9.593184-.030638.116083-37.3819335 9.593185.0306379 10.961621 20.072124.06142-20.039035z"/></g><path d="m49.5911554 70.5279301c11.7490251-14.2981024 20.8987572-36.333504 20.4927713-70.30788859-48.388491 0-74.24568211 24.14512849-68.85485178 96.59583289 0 0 7.05899658-.3989057 16.65586608-3.9106235v-23.2694969h-7.3654822l12.3466414-12.3176676 12.3460271 12.3176676h-7.3654822v18.7859443c3.8590164-2.0827655 7.8556136-4.6735076 11.7828061-7.9070333v-35.5369182h-7.3654822l12.3466414-12.3176676 12.3466414 12.3176676h-7.3660964z" fill="#009e78" mask="url(#a)" transform="translate(173.204301 .17096)"/></g></svg>