<svg height="2144" viewBox="0 0 1895 2144" width="1895" xmlns="http://www.w3.org/2000/svg"><g fill="none" opacity="0.4" fill-rule="evenodd"><g stroke="#6aa684" transform="translate(23 .999998)"><path d="m1514.16343 861.908887c.10796 28.242428 43.182 60.001775 61.58158 76.375629 36.38083 32.38531 74.21905 62.291474 111.70642 92.675354s75.07595 60.68539 110.82255 94.04259c23.21032 21.65335 50.48245 46.04117 66.22363 76.96041 33.53352 65.89076-72.19489 56.10598-99.58173 57.54734-69.67145 3.68165-149.58513 2.00144-214.89115 36.31405-38.98525 20.48379-54.53077 54.83759-46.15751 104.90633 2.69888 16.28325 10.68755 35.02094 3.92012 50.88414-7.22624 16.94216-23.85131 26.7187-37.6493 33.27483-50.32727 23.88541-108.19115 26.65282-161.43994 29.65085-57.41856 3.29454-115.3769 2.33088-172.39063 2.58621-24.17517.10707-49.42314 10.70725-72.44454 19.32247-30.18017 11.29203-60.00274 23.976-89.933251 36.23992-65.845797 26.91637-133.695508 55.26587-203.360212 62.10204-43.627311 4.2829-91.309681-1.50725-125.2008-38.76024-17.016406-18.70474-25.922692-46.51064-35.760091-71.21144-11.908785-29.84028-23.345266-59.96883-36.023231-89.33964-40.840722-94.59443-99.149911-187.03093-193.792701-191.67623-14.317531-.70009-28.378668 1.58138-42.628727 2.00967-9.074966.26356-17.151349-2.41325-20.524942-14.00179-8.481214-29.06606 18.176921-74.95074 29.107364-98.0125 23.932272-50.48056 50.921019-98.69613 76.202728-148.163615 16.726277-32.714763 45.678456-77.421645 45.982079-117.170247.269888-35.416285-38.324021-61.014846-59.334761-78.459425-19.688292-16.332673-55.360669-39.188531-57.519769-72.413948-1.045813-16.110291 7.658058-29.461407 16.746518-39.822729 15.930109-18.11996 34.282457-30.902767 48.613482-51.575994 23.500452-33.91727 43.134766-80.584402 39.943346-126.287882-2.213077-31.668747-17.016405-52.407864-35.847804-72.232748-7.91445-8.335181-14.337772-14.232404-14.756097-27.764719-.674719-21.488625 6.220906-44.229174 11.902037-64.152894 20.322527-71.30204 49.186993-140.248486 81.296855-204.623761 16.04481-32.1711638 33.378333-64.2434922 54.652214-91.6869946 13.932941-18.0211234 32.723856-39.46856637 53.977495-39.44392121 24.60699 0 50.644384 10.83909421 74.563162 18.94365791 44.673124 15.1466389 88.806474 32.6571089 132.764396 50.6205779 101.657616 41.560597 202.35937 86.487115 302.10528 134.779553 70.25846 34.07376 142.00805 68.196939 208.06301 113.496838 12.88216 8.895818 25.04145 19.268223 36.31336 30.976894 12.04373 12.296864 26.98874 17.798742 42.14293 21.900442 94.05578 25.458543 197.09882 5.913696 291.54594-6.341986 23.97276-3.105102 47.94551-6.226677 71.98574-8.401072 20.66663-1.86965 45.40857-7.231511 65.49494.823635 39.579 15.854964 4.97942 74.291834-9.64848 98.103108-51.50127 83.837758-117.94757 154.769163-179.53589 227.183111-29.28279 34.485578-58.78824 68.880555-86.4787 105.318147-14.41873 18.943594-42.85138 49.747525-42.75692 74.505979z" transform="matrix(-1 0 0 -1 2186.000008 1636.000048)"/><path d="m1525.68669 833.329346c43.11072 59.802654 105.41362 117.370847 156.7671 167.316194 25.77462 25.07561 47.87392 43.48608 70.10437 73.35446 11.56415 15.53124 15.93024 41.0967 18.15801 62.74654 5.95422 57.91684-83.45362 50.08534-110.21386 52.28409-51.73827 4.26574-110.18685 7.5021-157.12529 37.05755-28.67748 18.06762-42.80019 47.72189-37.44004 86.6982 2.37629 17.29353 6.07574 31.98479 0 48.96538-6.15674 17.20294-18.9833 29.34135-31.97187 38.44104-37.32528 26.17086-83.71015 34.53763-125.73399 40.77154-49.29827 7.26091-98.96708 10.09589-148.60576 8.48206-43.47527-1.39172-86.74126 14.26304-129.19041 24.58151-56.234316 13.66188-113.488005 25.59442-171.031979 23.79095-45.446508-1.43289-91.250809-12.69015-130.101767-42.60795-39.478784-30.46954-63.214661-76.07504-84.614755-125.28747-32.34992-74.39509-72.665806-174.08814-143.637157-202.34246-10.322001-4.11751-19.941917-4.57044-30.587957-5.28688-5.171127-.34587-11.847686-.45293-14.412997-7.0327-6.170248-15.84416 16.640767-46.56076 23.006788-57.26627 20.319963-34.1753 42.347883-66.810651 63.174157-100.533023 19.442356-31.482449 40.619672-64.290735 52.696886-101.183587 19.219579-58.756807-42.226367-93.113275-40.504909-149.103119 1.07338-34.759983 28.353436-59.687363 49.956054-76.931477 26.598224-21.205155 64.895615-35.147029 78.208228-73.843349 9.916952-28.82254-5.643683-45.597258-17.626386-67.469449-20.306461-37.057552-21.690378-87.291122-19.577372-130.187297 2.848845-57.966246 13.980944-116.788934 32.930491-170.069458 8.58704-24.153289 19.104815-49.278309 34.591192-68.037666 14.507508-17.581749 28.238672-22.0863004 47.627022-18.487601 59.353193 11.034916 119.280205 41.792684 176.196353 69.264682 71.511418 34.521169 142.037218 72.632802 210.456758 115.512507 46.65491 29.242526 94.36294 60.181464 135.3134 100.582431 10.67304 10.53258 21.60262 21.979246 29.40656 35.87171 5.90022 10.441995 8.40477 19.064052 18.34873 25.0262 29.47407 17.6641 70.47179 13.044258 102.05212 11.207851 50.49612-2.923429 100.74921-10.705515 150.93479-17.71351 29.28505-4.117506 84.45273-17.071179 107.83757 13.99952 20.18494 26.829667-4.17201 72.575156-16.61377 96.209639-31.47231 59.769714-71.95697 112.226737-109.51852 166.240178-17.21459 24.754445-18.7818 21.643587-32.99903 49.164995-3.63194 7.01623-12.94634 25.961454-13.94545 34.484693-1.12065 9.766722 2.39404 23.959011 7.68669 31.329346z" transform="matrix(-1 0 0 -1 2225.999996 1599.000002)"/><path d="m1510.28383 702.499326c23.96735 54.955291 77.71171 145.258379 36.83496 206.368268-21.59221 32.295182-59.78343 44.431588-91.82087 51.664063-25.78244 5.850159-56.87522 8.047054-76.35544 32.846462-14.31834 18.233411-7.96213 44.768941-13.4479 67.593611-6.80829 28.29634-22.43566 51.45013-41.63923 68.85251-53.66338 48.63613-128.27796 63.56185-192.83191 66.73789-67.04381 3.29123-140.916156-12.1035-204.005886-41.71633-78.663115-36.93581-137.596349-106.87442-178.810478-195.441389-7.604506-16.349179-14.514012-33.126217-21.814878-49.67287-4.90548-11.099668-12.179355-21.837302-16.04571-33.512936-6.437177-19.467618 1.147086-35.380708 13.306199-48.068395 17.489689-18.266319 38.973936-31.266673 58.912991-44.97464 27.266911-18.760004 55.141103-37.182657 80.505201-59.192749 17.044349-14.810529 34.884912-30.76476 40.984711-56.461028 4.163247-17.525793 5.026936-36.088323 4.878489-54.239449-.323883-38.91878 1.349513-70.391154 16.234642-106.035161 24.493662-58.518047 62.158573-111.136566 101.948959-154.918136 31.22773-34.360427 80.64015-87.735929 126.13898-64.763153 40.82277 20.57018 64.70241 69.806961 91.5982 109.614373 13.07678 19.352424 27.76623 37.026323 45.0265 50.791887 21.7609 17.353003 42.24651 24.634847 68.02896 27.473531 43.39359 4.78051 108.82473 6.022949 122.23889 69.543663 4.95271 23.441776 2.12548 47.722816 4.72329 71.469031 3.39403 31.398322 13.3197 58.320573 25.41133 86.040947z" transform="matrix(-1 0 0 -1 2270.000004 1478.999998)"/><path d="m1463.9342 616.003735c-.67453 57.675199-12.04033 112.182881-43.1698 157.130272-13.30844 19.227816-29.20032 35.065399-43.84432 52.684711-11.79075 14.204332-22.93395 27.402318-36.49197 39.107282-32.16149 27.715771-58.29945 63.581298-92.47779 88.261532-45.62507 32.994965-97.88751 51.232928-149.74522 58.524818-25.32178 3.56346-51.47998 4.80902-77.09856.78363-22.003101-3.45622-43.075361-15.59012-62.623179-28.004475-38.313192-24.31729-75.513413-58.879515-100.390007-102.606093-54.845874-96.403039 53.287715-166.492594 108.787881-207.53833 25.524144-18.881369 64.525355-40.748782 74.980535-78.148575 7.47377-26.717673 12.02684-53.889027 21.65235-79.781825 25.85466-69.536889 78.33969-151.323159 148.2815-140.43482 29.92881 4.65229 57.20672 23.550156 85.14567 36.23672 28.76862 13.066006 58.46135 20.349645 88.36317 28.342675 27.9457 7.465111 50.21862 18.08949 68.26899 46.572393 8.62721 13.602175 7.86499 29.88519 8.63395 46.572393 1.25463 27.410568 2.03033 54.977861 1.7268 82.297692z" transform="matrix(-1 0 0 -1 2307 1390.000002)"/><path d="m1235.02553 587.551325c-23.67626 65.539148-87.08806 108.097998-143.02492 122.240353-15.05134 3.797103-47.58253 13.648155-60.27977-3.854759-11.68931-16.119155 7.15023-39.750148 15.51133-50.66373 37.05674-48.373937 91.32274-91.583484 141.04289-118.122021 12.50107-6.671699 34.97322-19.767997 47.83282-6.301049 13.19106 13.829361 4.35643 41.652818-1.08235 56.701206z" transform="matrix(-1 0 0 -1 2270.999994 1241.000004)"/><path d="m597.366456 721.114396c3.151228 53.895565 21.76844 122.877933 4.1634 178.512065-15.040873 47.542793-62.079869 53.706053-93.754097 78.680439-26.14777 20.599131-37.787746 54.30756-50.858257 87.42272-10.486099 26.56464-20.655052 53.3847-32.558192 79.10066-8.772155 18.9512-22.166561 50.94577-40.405896 54.86784-16.397183 3.52657-33.98198-24.71895-43.185996-39.08891-13.428145-20.97815-24.912921-43.76079-36.775574-66.06553-20.84399-39.17954-42.187319-74.4123-72.694176-103.19341-30.641813-28.9047-64.164942-50.517308-98.045704-73.011559-26.505405-17.599897-52.875853-35.710652-78.0586867-56.029635-18.7589166-15.128001-45.72992022-34.491184-54.31313672-61.467805-6.7950465-21.3407 27.66602812-56.754725 37.82823262-69.254277 20.9182165-25.699476 43.0847778-49.825177 65.2918268-73.802565 27.07222-29.217807 55.008161-54.768968 78.915658-88.098362 42.760883-59.589164 78.504042-133.795472 133.525699-178.083603 33.185738-26.712952 70.116512-33.543624 107.027042-29.547393 14.61576 1.582013 18.124622 26.77063 19.966775 41.46193 3.063507 24.40585 3.448132 49.231922 5.803118 73.736648 2.206535 22.939192 7.105446 44.733072 11.052916 67.227322 3.994704 22.790878 5.114841 46.142053 8.056887 69.089484 1.821909 14.246359 3.623575 30.824539 11.592741 42.277656 8.245826 11.856859 21.849414 16.825369 33.739058 20.59913 22.328509 7.020184 81.459584 6.63292 83.686362 44.667155z" transform="matrix(-1 0 0 -1 609 1561.000004)"/><path d="m288.174104 725.48744c-15.275742 33.945621-52.380769 82.33968-86.732493 83.488987-39.43004 1.313495-49.32834-52.539776-44.188838-91.566978 5.221081-39.831717 50.681198-97.485912 86.929643-89.695248 35.378263 7.601848 62.095515 57.514635 43.991688 97.773239z" transform="matrix(-1 0 0 -1 450 1436.000004)"/><path d="m317.289248 1542.44336c58.127666-40.7723 122.650994-73.25333 184.853534-104.94314 79.608457-40.58274 161.018223-78.61875 244.897201-103.98708 49.249299-14.88474 107.356726-31.31893 157.678716-14.25012 17.952381 6.09071 31.364382 19.78038 46.753102 31.86289 17.540846 13.78857 35.756341 26.42329 53.971839 38.8602 37.49694 25.5991 75.38966 50.32457 113.67818 74.17641 20.27992 12.68417 42.60402 29.67057 65.51506 34.0717 18.2155 3.50277 38.90695-1.56595 57.2034-3.04123 32.94981-2.65387 65.89286-5.39016 98.85616-7.71435 38.03665-2.67859 76.18125-5.15114 114.29886-4.72257 21.24466.23902 57.71613-3.70882 72.74054 13.04681 13.10841 14.621-34.61619 67.50054-43.00881 77.54732-26.21007 31.36838-53.77619 61.23675-78.17146 94.78097-14.41722 19.78037-31.97156 43.83826-38.05014 70.0555-5.17455 22.34358 4.81024 47.80257 10.70666 68.45658 7.37391 25.87109 13.3243 52.68998 21.89233 78.01711 7.63027 22.56611 19.77393 42.66792 30.44011 63.18181 11.73213 22.56612 23.61268 45.50311 32.32239 70.12144 5.33646 15.14847 14.1676 40.5168 3.56214 54.95648-12.25161 16.64848-50.0184 5.76927-65.54205 3.39563-31.49257-4.87916-62.74226-12.13197-94.01894-18.62652-51.94789-10.78031-101.47379-20.20895-154.37294-17.95069-68.8883 2.95057-137.70913 9.89018-206.583949 13.73087-25.434228 1.43408-51.273244 4.31872-76.72771 2.76101-14.592635-.89835-25.704087-6.33796-34.191158-18.61003-11.590451-16.74739-38.28627-26.01944-56.852581-35.62941-28.949143-14.97539-58.262596-28.90407-87.495091-43.01407-64.172512-30.98926-129.579629-60.85763-190.43962-100.93761-19.254452-12.67593-41.301946-26.81066-55.543764-47.75313-7.947353-11.67866-5.943648-22.92875-10.794367-35.34094-6.422648-16.32705-27.539129-23.69524-40.161792-29.03594-24.361537-10.31877-49.721553-17.23366-74.885921-23.71173-56.940286-14.65396-114.015501-24.28865-171.880054-31.38486-13.560424-1.64837-66.9588079-7.35995-38.913693-34.88764 30.986579-30.42057 75.72923-45.33003 112.207444-62.47302 32.862101-15.41221 65.751188-29.75299 96.056374-51.00865z" transform="matrix(-1 0 0 -1 1630.999992 3394.000008)"/></g><g stroke="#f16950" transform="translate(1 216)"><path d="m1527.07255 566.209958c31.70802 46.529819 69.93306 87.833881 101.87046 135.120818 18.69424 27.692402 50.88801 74.246911 36.4305 113.287844-15.86076 42.9006-71.14741 44.06919-103.10505 47.5256-38.03614 4.11477-82.70398 9.73554-115.2553 36.5227-10.29499 8.46819-19.06529 19.67683-22.78255 34.44062-3.98037 15.80072.37105 29.62635.93775 45.44352 1.18736 33.18151-15.04445 59.82053-36.52495 78.1148-30.35874 25.86544-68.32067 38.09454-104.17772 46.62034-40.624 9.61619-81.92228 14.35708-123.30374 14.15481-39.54732-.16459-78.67638.90525-118.26418 2.13968-51.77179 1.64591-104.272183-1.01223-154.492296-17.79226-49.471264-16.54138-94.449433-47.54206-129.780267-93.14194-34.467297-44.49712-57.722097-98.88615-78.089443-154.28742-11.556563-31.44507-31.08061-78.435743-58.646351-94.318755-12.258188-7.069175-24.286998-6.583632-11.252976-24.968425 16.413962-23.149696 38.535369-41.723768 57.546691-61.524041 27.424067-28.572963 55.536267-57.705535 78.554943-91.677077 14.700379-21.693067 21.251122-42.744231 20.239164-70.831651-.782581-21.396804-4.331181-42.571411-2.536642-64.05051 4.203-50.414163 36.74083-84.986461 65.507429-117.180421 18.505342-20.705523 35.405044-36.498011 44.930944-65.951534 11.266468-34.810955 15.995686-72.683298 23.524656-108.827438 8.271071-39.691072 17.823957-80.9786751 35.877291-115.9377611 16.069897-31.12412 35.614183-45.08142 64.866522-36.695519 45.625825 13.06851 90.597255 45.26247 131.102565 75.045176 41.22718 30.3011661 81.74599 64.3714621 115.9097 106.0211651 18.44462 22.491333 31.03338 48.899927 47.41361 73.061856 20.60347 30.334085 67.21427 18.845647 94.91494 16.278031 45.98338-4.262902 190.67316-36.160599 177.32206 67.153047-5.57252 43.12279-27.51852 82.920845-43.56817 120.974239-6.65194 15.792487-16.27904 34.745118-17.78348 52.841876-1.63938 19.709749 13.08124 38.431952 22.61389 52.43863z" transform="matrix(-1 0 0 -1 2273.999992 1120)"/><path d="m1527.36202 474.464429c17.06697 60.131719 39.488 135.91416-1.73299 189.357255-19.96653 25.889588-48.05183 40.362387-75.23354 51.177859-19.46753 7.751226-50.37822 10.032936-62.31363 33.863219-8.76612 17.537045-9.97989 41.729768-17.90986 60.518868-10.89696 25.83193-27.40424 47.10867-46.77062 63.76434-50.45239 43.40192-116.16458 60.1729-176.09112 64.9752-130.2106 10.42009-262.700393-72.56992-332.377562-209.110112-20.775704-40.700113-47.593289-84.019663-14.019049-125.601159 36.655869-45.36238 91.875682-66.614413 135.625365-98.846662 16.716317-12.306409 38.017988-27.10046 47.343792-49.382145 5.610316-13.393722 5.994677-30.197655 6.250918-44.942282.674316-37.553494 3.229978-71.326104 15.603696-106.367245 19.11014-54.151497 49.58252-104.110247 84.11429-145.032765 30.115-35.683645 73.06224-77.6193406 116.79844-51.894498 33.53378 19.769333 54.80173 61.729741 80.85734 92.660509 28.99563 34.448061 64.8558 57.660553 104.23591 69.003207 38.30795 11.004928 80.32464 18.426665 100.51368 65.181136 6.92524 16.037871 14.16066 36.803907 16.75678 54.555121 4.19101 29.267854 10.32737 58.069875 18.34816 86.120154z" transform="matrix(-1 0 0 -1 2334 1038)"/><path d="m1376.49035 367.420099c-16.27992 72.063113-51.39466 137.883053-102.61406 181.134047-57.41453 48.485086-131.34493 75.426714-199.2959 89.127238-36.11918 7.276865-114.390887 27.007259-132.801018-29.460228s34.811393-112.114583 65.443258-142.747969c37.17755-37.122676 77.26053-72.965542 117.29633-106.273402 34.78443-28.959789 71.9013-58.567687 109.57769-80.931535 21.24938-12.686871 43.38493-23.045564 66.14435-30.953339 16.85292-5.808365 38.28309-14.47169 55.9517-10.148232 44.56586 10.919399 28.0837 95.797014 20.29765 130.25342z" transform="matrix(-1 0 0 -1 2324 883)"/><path d="m645.146995 535.676908c.855675 64.295603 28.850408 131.116957 15.02485 196.630187-11.352858 53.805914-68.507928 58.297974-102.79558 82.675174-27.246859 19.36684-42.709654 53.67429-57.444788 86.59133-13.239386 29.55212-25.131252 59.99278-39.078086 89.05949-9.028386 18.790931-24.531606 55.689951-44.111075 56.356351-18.744007.64172-35.931627-28.11236-46.819591-45.10976-14.196125-22.155861-26.781964-45.776171-40.567096-68.285801-23.231249-37.96855-51.104705-66.07268-83.020721-92.67123-36.320162-30.26514-73.239971-59.496401-110.759426-87.693773-27.624164-20.823055-55.4369821-41.489793-81.9898682-64.369648-16.6553501-14.356472-53.41570191-41.292339-53.58561459-67.759256-.07937856-12.628759 9.72383112-26.615007 16.33341779-36.709786 11.1844179-17.087904 23.9319593-32.711365 36.7199263-47.997511 23.81742-28.474355 48.6454807-55.657039 73.2040367-83.16881 31.875591-35.706068 62.322811-70.828003 90.344494-111.36344 28.971685-41.958743 56.64975-85.299656 84.893774-128.04821 19.12805-28.95976 38.235887-61.481899 65.826363-79.252661 34.557157-22.213452 62.922458 1.209399 97.870395 1.480897 30.063176.238589 27.846505 85.274974 31.666725 108.91996 3.833695 23.932938 12.282647 46.212207 15.557121 70.202736 4.082986 29.947024 4.136887 60.585133 5.14079 90.853019 1.219506 37.02242 1.704613 72.267764 34.119212 86.385646 18.447552 8.021525 38.404327 9.708102 57.498688 14.512789 12.370236 3.118111 35.702549 8.449339 35.972053 28.762307z" transform="matrix(-1 0 0 -1 664.000974 1172)"/><path d="m460.981867 412.973643c-.17511 36.134719-6.943783 74.667468-27.014077 102.540476-16.716265 23.216556-42.881732 30.977308-58.884087 54.711248-12.675266 18.790053-19.127395 45.168398-27.613492 66.98884-10.378632 26.739691-25.054193 73.452027-50.862705 82.73208-25.188892 9.033679-47.468266-42.417232-57.126253-62.775861-14.143496-29.852204-25.592992-61.49472-39.864453-91.2648-11.180097-23.356168-24.852142-38.409563-43.056842-53.462958-21.370149-17.681375-51.185985-37.268035-62.6018062-66.520732-8.2301675-21.179872 11.6919562-55.02332 18.9253442-73.681975 4.849199-12.532177 9.287562-25.261453 11.725631-38.844822 1.89927-10.577617 2.08785-20.366841 7.590343-29.449795 13.853891-22.846997 44.228732-25.828111 64.837826-33.358915 27.371032-9.994535 56.412343-21.352334 85.05629-23.520417 17.605284-1.355052 26.589772 18.445132 36.638389 32.373423 11.873801 16.465934 28.684356 28.308267 43.366652 40.733682 19.376589 16.424872 40.463868 26.641142 62.278526 37.103786 9.839832 4.72215 21.397089 9.353964 29.021106 18.740779 7.960768 9.731736 7.644223 23.914613 7.583608 36.955961z" transform="matrix(-1 0 0 -1 553 968)"/><path d="m358.948584 485.717431c-11.592177 31.324358-35.952057 56.79025-55.718554 80.830445-16.498129 20.041689-34.246527 60.387265-59.401415 63.263239-29.564809 3.392175-47.483081-39.690083-59.116028-66.106439-11.449483-25.957511-27.947611-53.3653-34.287296-81.854652-6.611482-29.677432 10.994222-69.6461 27.784533-90.646447 18.72687-23.417477 49.36528-32.069981 75.654925-31.135904 27.526325.950465 52.783138 20.303887 73.630032 40.378351 22.287421 21.459192 44.934975 48.907949 31.453803 85.271407z" transform="matrix(-1 0 0 -1 512 990)"/><path d="m292.562068 504.97627c-12.933454 28.422108-40.532463 63.923083-69.317655 64.997628-34.298255 1.271407-33.651245-44.195762-25.873649-72.49483 8.087621-29.381815 43.706854-79.565496 73.738888-71.641757 29.203053 7.735079 33.846696 51.89803 21.452416 79.138959z" transform="matrix(-1 0 0 -1 492 995)"/><path d="m397.068982 1344.49303c54.95175-40.68942 117.073465-74.2763 175.65404-108.41459 85.607905-49.8824 172.477131-98.4233 262.428835-135.58202 48.226956-19.91675 110.719648-48.63143 162.467508-33.02723 18.919815 5.70343 36.173595 22.95364 53.137345 34.16298 23.39176 15.45605 47.12752 30.14671 70.8228 44.87029 47.53222 29.513 95.21283 58.72971 141.9289 90.13562 22.49467 15.12685 44.32158 34.17944 67.74032 47.08418 13.68567 7.54696 30.0626 4.01627 44.68582 3.53892 33.87353-1.11105 67.72683-3.21795 101.58013-5.0121 41.40773-2.1892 82.9099-4.51831 124.36484-3.65415 18.69722.39504 64.48922-3.65415 74.78214 15.99924 5.53767 10.58386-7.51397 29.66937-13.56426 38.50022-11.10906 16.22968-23.8774 30.8545-36.47711 45.33118-29.13853 33.47988-60.08472 65.36314-85.98563 102.76053-13.30794 19.22542-30.74384 42.71402-22.05624 68.95968 8.76853 26.50902 23.95834 49.46266 33.22601 75.88116 10.67063 30.40184 15.09537 62.03819 20.13391 94.27534 3.73 23.82603 12.4176 44.93613 20.58583 66.90216 9.02485 24.27868 18.37346 48.76311 24.63959 74.36683 4.14145 16.91278 10.82577 47.33931-3.66255 58.04662-20.58583 15.22561-59.18763 2.89698-82.65359-1.5884-32.43009-6.18901-64.62412-14.07341-96.96653-20.86321-23.47944-4.93803-47.03983-10.35341-70.91049-10.92952-38.48039-.92999-77.08893 2.28796-115.46815 5.2837-71.06562 5.54706-141.62199 13.06934-212.92706 13.06934-62.471133 0-206.83632-88.20156-240.628914-103.73168-67.450288-31.00264-136.694753-60.39219-200.522961-101.64125-17.267273-11.1682-43.842687-26.04814-52.928241-49.0347-5.605119-14.16394-3.028518-22.35285-16.248774-31.47999-18.036207-12.45208-41.144676-17.34073-61.109961-22.91248-32.153552-8.97077-64.55667-16.56712-96.858613-24.69019-65.332349-16.38605-130.219526-34.92014-195.282074-52.75468-19.668504-5.39069-43.464965-6.58405-62.216145-16.08154-12.0870911-6.09848-10.8325157-13.77712-1.477161-23.04417 16.410655-16.2626 39.411203-25.29098 58.796415-34.56626 28.403317-13.58783 57.27204-25.71071 86.154253-37.66075 28.882213-11.95005 57.912817-23.52975 86.808521-35.50449 19.088431-7.88439 40.854639-14.29561 58.007247-26.99459z" transform="matrix(-1 0 0 -1 1777.999992 2990)"/><path d="m377.369702 1310.79619c99.651512-47.13479 216.438652-79.24742 325.083665-73.02596 36.129417 2.07657 75.002155 9.0067 106.320623 32.72242 18.466747 14.00859 33.223927 29.82182 55.406997 34.88139 16.013974 3.65048 33.257713-.49442 49.366283-1.99416 23.331752-2.17545 46.677017-4.12017 70.042554-5.69408 28.967056-1.92 58.028696-3.40326 87.049806-2.61219 20.73708.56858 49.37304-.07416 67.38707 13.52241 21.50737 16.21701-33.23745 92.2919-40.94037 105.84727-18.66945 32.85427-31.75767 64.68673-36.48753 104.2816-1.39194 11.53649-6.08126 23.36139-5.47313 34.98852.63515 11.87434 6.62856 22.44671 12.16251 31.78302 7.23669 12.23692 32.34552 41.25943 25.15613 56.1827-3.97309 8.24034-18.88568 9.27863-26.61563 11.02558-14.50042 3.29614-29.2103 5.06781-43.79856 7.68825-24.750714 4.46626-49.325744 19.01048-74.164296 18.59846-66.79246-1.08773-134.551163-26.36911-200.005747-40.2541-38.91328-8.28155-78.090081-15.79675-116.530375-27.01186-12.162512-3.55159-24.689899-7.22678-36.251042-13.25048-8.067799-4.20258-13.25038-11.69305-20.723568-16.39829-28.656229-18.07108-61.609878-29.03899-92.381033-41.20174-39.947094-15.82147-80.029326-31.165-119.699385-48.00827-24.86558-10.55588-56.839471-19.84276-78.265763-39.42182-15.649098-14.29701-4.952845-18.57375 3.304149-31.89015 4.216338-6.79005 3.243337-13.48121 5.074471-21.16945 2.61494-10.97615 10.007044-18.87864 16.939676-25.98182 9.561085-9.81426 22.297938-17.89804 30.11573-29.92894 2.756836-4.23554 2.628454-9.49289 4.858247-13.18456 6.486673-10.75366 23.696627-16.06044 33.068518-20.49375z" transform="matrix(-1 0 0 -1 1418.999996 2916)"/><path d="m512.366469 1384.88338c38.535624-5.38326 77.966955-7.73741 117.068288-7.85264 25.234705-.07408 51.856747-.49388 76.620026 6.42863 12.438885 3.4736 23.247986 11.59788 35.020141 17.3927 12.122356 5.95945 28.851208 12.61032 34.090759 26.27425 4.923024 12.84081 3.084467 31.57521 7.408107 47.05825 3.845481 13.73801 11.893378 22.22446 20.560863 31.50935 5.522407 5.93475 33.881986 31.62459 30.602215 37.29594-3.515483 6.07469-20.547394 5.58081-29.410183 6.4204-24.418687 2.35364-48.92313 3.10377-73.407602 2.24714-33.417295-1.25115-67.090507-4.74122-99.928623-12.64325-23.295128-5.59727-40.86581-18.93195-62.585032-28.71071-28.137335-12.70087-57.284868-22.74304-85.152818-36.63744-13.886832-6.92251-34.440961-15.82876-41.552743-33.69887-2.734265-6.84843-5.387714-24.26583-2.343656-31.11425 3.656911-8.23129 17.267623-11.72135 23.692472-13.83679 16.095796-5.27625 32.939136-7.84441 49.317786-10.13271z" transform="matrix(-1 0 0 -1 1272 2928.999988)"/></g><g stroke="#acd6f5" transform="translate(48 57.999997)"><path d="m1399.03446 525.391198c-11.23661 87.055488-52.96875 182.095453-114.3312 232.652829-72.18039 59.472003-150.3775 109.551957-236.61717 123.948709-39.98317 6.675681-83.781643 9.960017-121.509387-11.869707-28.712791-16.602772-62.064737-41.4205-77.866226-76.321717-38.659625-85.368048 47.330186-153.326644 96.321555-192.820993 26.376335-21.261755 59.951108-41.980237 79.831278-73.02915 11.53373-18.002113 17.42215-41.815609 26.73423-61.587478 28.21983-59.916499 74.67216-108.243161 132.53667-116.886151 26.75449-3.992238 53.70481.946613 80.25671 4.873 27.17991 4.016933 54.69746 6.198259 81.70855 11.803855 21.56161 4.477892 46.97229 12.059029 54.91355 40.218714 10.01436 35.485648 2.60657 83.46659-1.97856 119.018089z" transform="matrix(-1 0 0 -1 2245.000008 1235.000006)"/><path d="m1294.93332 529.999569c-35.72002 136.279829-148.89183 203.30472-257.85812 226.666741-25.32078 5.422886-96.302526 24.974898-110.455742-16.655418-13.71514-40.363055 29.903722-88.230924 50.324792-110.909941 63.27836-70.275331 141.45803-122.381114 215.54-174.001389 23.12366-16.112306 64.82847-51.077163 93.51232-34.948399 31.14382 17.544146 16.33686 81.590152 8.93675 109.848406z" transform="matrix(-1 0 0 -1 2229 1182.000008)"/><path d="m1256.34474 531.229742c-31.064 100.359986-121.41602 157.920238-204.48551 176.895692-20.34645 4.643018-72.020611 19.09894-87.430901-8.90735-14.260772-25.907052 19.77169-63.446347 32.50428-78.363277 28.345731-33.217336 61.938671-60.581506 95.125891-86.883709 30.68534-24.334683 61.70201-49.278556 93.98991-69.859309 17.00609-10.833709 48.9018-33.950011 68.2272-17.221975 20.80626 17.995811 8.96623 62.055088 2.06913 84.339928z" transform="matrix(-1 0 0 -1 2227 1157.000006)"/><path d="m528.344372 625.675981c5.299675 49.472088 12.719219 111.090018-8.871047 156.669841-17.647579 37.268644-55.285395 45.30827-82.168585 69.591725-22.3599 20.193697-30.805624 52.311056-41.90456 82.15724-9.107339 24.480952-18.261936 49.068872-29.300111 72.364863-8.371461 17.66743-19.159843 41.62173-35.781242 47.78517-14.211229 5.26648-30.26553-18.32574-38.144154-30.06837-13.41459-20.01266-24.351498-42.436391-35.214143-64.563871-17.7691-36.20712-34.120453-74.882904-59.410364-104.334102-24.574287-28.578936-53.76638-45.448161-83.505318-64.415753-22.7784732-14.53222-45.4151722-29.624005-66.8771666-46.954048-16.4796248-13.297887-36.9019375-29.056211-45.4894355-51.183697-7.4262955-19.082797 11.6390304-41.6711 21.1649422-55.133565 15.7302441-22.218004 33.1887897-42.600965 50.4042927-63.066215 18.579241-22.078112 39.1568312-42.444616 57.1352172-65.065835 37.806596-47.60413 68.011365-100.310172 114.607994-136.780614 30.177764-23.625144 70.786098-45.086089 106.459321-41.22674 25.654476 2.781365 23.966681 72.085079 26.430861 94.229022 4.050707 36.207117 11.875322 74.249277 24.30424 107.600969 10.673612 28.578936 36.037787 37.392078 59.369857 43.802383 14.6163 4.023927 29.934722 6.196354 44.071688 12.417395 16.364855 7.208508 20.496576 15.437399 22.717713 36.174202z" transform="matrix(-1 0 0 -1 534 1386.000002)"/><path d="m367.275567 582.425243c-3.478804 30.34827-14.319727 59.354134-32.630638 80.807932-14.036568 16.471245-32.677832 25.744557-43.943492 45.534758-10.497088 18.447795-17.812014 39.423927-26.482055 59.148244-9.175682 20.852597-22.807738 55.705752-43.97046 61.380097-22.807737 6.110832-40.377044-29.047042-50.105558-48.532526-12.290425-24.624512-21.627911-51.118511-32.617155-76.591292-8.278785-18.985995-18.839118-36.349944-31.329458-51.513821-13.0994481-15.985344-30.8642691-31.295367-37.4915251-53.276244-5.858682-19.469013 5.103594-43.022894 7.03851-62.763682 2.069753-21.09143-1.557371-43.245256 9.917287-61.35539 23.6639551-37.34855 83.0530651-30.422391 117.0051091-31.221246 33.500339-.823563 60.4341 22.030291 87.543148 43.772335 17.9064 14.354691 36.554406 26.51047 54.912511 39.885121 18.715424 13.646427 25.214584 28.017589 22.153776 54.725714z" transform="matrix(-1 0 0 -1 435 1274.000004)"/><path d="m338.179198 615.795426c-10.287572 43.965897-42.418525 67.333598-65.38848 100.559419-18.794213 27.200498-32.8865 83.530258-64.538491 90.981546-35.935668 8.456882-57.448498-66.179637-69.941995-94.979195-13.862925-31.93998-38.5530972-57.920577-48.8204312-91.731621-5.396758-17.746265-.762292-34.305598 2.111482-52.04362 3.150358-19.477206 5.518186-39.391268 16.3926562-55.068646 21.404895-30.851959 63.209538-30.637653 93.316707-31.486638 31.166283-.881955 58.736975 20.26025 83.568812 41.361243 26.336183 22.345622 63.836912 47.320625 53.29974 92.407512z" transform="matrix(-1 0 0 -1 427 1290.000006)"/><path d="m285.960284 660.614724c-11.072942 26.053496-30.266948 48.093079-47.964611 67.752223-13.657536 15.177352-33.810562 40.984596-53.514686 41.616643-21.676576.697715-40.047593-20.964281-48.665172-43.168032-8.49515-21.900041-17.446005-49.357175-18.717897-73.383194-2.761434-52.320411 53.460273-110.928464 95.677565-106.159378 40.027189 4.522835 95.262669 61.431748 73.184801 113.341738z" transform="matrix(-1 0 0 -1 407.999998 1317.000004)"/><path d="m228.964355 655.247269c-8.53698 20.280482-29.903086 45.912757-50.214744 46.732924-24.826861.985856-20.00073-35.076618-13.586167-52.482374 7.624476-20.711276 33.18134-56.69919 54.628558-50.866894 21.116013 5.741165 16.21553 39.906486 9.172353 56.616344z" transform="matrix(-1 0 0 -1 395 1300.000004)"/><path d="m270.620812 1479.98343c54.637763-35.86977 115.164788-62.63015 174.010132-88.23026 71.407301-31.0641 144.604344-58.75434 219.496575-74.26582 47.046559-9.73479 98.915288-17.21486 145.64442-1.03684 31.911426 11.04318 56.596348 40.89763 84.624373 61.43696 28.028024 20.53934 57.190677 39.81965 87.224558 55.89069 18.64033 9.97343 38.69218 20.02091 59.43292 18.70429 50.43019-3.19281 100.79958-10.80454 151.2838-14.49932 33.39724-2.46867 66.86203-4.50121 100.36058-3.89227 20.20044.36207 47.95156-1.11913 65.83547 11.84962 19.7682 14.34297-85.48885 136.80545-95.43711 150.58886-24.94157 34.56138-55.14429 80.42927-50.32212 129.58049 4.6128 46.98701 24.60387 82.06681 47.2154 118.88291 12.83211 20.94255 53.98265 76.89084 38.7327 104.1285-8.71232 15.56908-37.42923 10.17915-51.07179 9.11762-26.88664-2.09014-53.6247-6.58312-80.36951-10.48362-38.9961-5.65325-79.06605-14.38411-118.23099-16.9433-27.2716-1.77744-54.7053.60071-82.02418.65008-39.171697.06583-78.343393-.29624-117.51509-.72414-32.890717-.36207-66.058338 0-98.834242-3.85113-20.376036-2.36992-35.842103-7.69402-50.457198-22.73645-12.717294-13.08395-31.904671-20.74505-48.113649-29.06447-26.771829-13.73404-53.894852-26.46414-80.930076-39.39997-56.603102-27.08954-113.854562-53.61129-168.033071-87.46498-24.732199-15.44564-66.314981-37.07119-72.116444-74.52092-2.09366-13.50362-3.633513-19.33791-14.439498-27.01547-15.337745-10.89507-33.70792-15.80772-50.916452-20.07852-40.11722-9.95697-81.396084-8.46754-121.445767-18.3093-16.310284-4.05685-37.604828-12.8124-18.984765-32.858 21.726784-23.44413 53.354552-36.33059 79.383469-50.81345 12.994198-7.22498 26.380112-13.98913 38.719196-22.81051 9.475499-6.79708 17.586741-15.51148 27.278359-21.83128z" transform="matrix(-1 0 0 -1 1479 3267.000008)"/><path d="m484.414819 1490.10791c94.690226-24.18835 194.967176-25.339 291.152154-3.89578 24.247462 5.39984 49.482407 4.10947 74.027467 5.48203 23.848409 1.31503 66.24934-1.42187 83.570888 20.9583 12.559982 16.22419-1.068647 50.70266-5.782868 68.85008-6.006065 23.11988-11.254609 47.00413-1.393299 69.45828 5.776104 13.1503 13.689502 25.66775 19.884948 38.69477 2.962451 6.22174 9.063211 15.75572 6.520098 21.6487-4.206951 9.723-23.888991 13.81604-33.439177 18.40221-30.524071 14.65437-62.847256 18.39399-95.481566 18.2935-60.277092-.19539-120.86531-10.25538-179.992592-23.89882-27.20315-6.27927-54.78506-12.97771-81.021016-23.89246-14.846075-6.17243-25.796323-18.08168-39.972803-25.14175-45.647452-22.75003-94.690226-34.90584-141.122254-55.70799-13.439249-6.02448-63.638596-26.0787-38.349542-49.72459 24.484187-22.88976 60.195929-20.16929 85.654073-41.70291 2.881288-2.46569 6.445699-5.41629 8.116305-9.40247.987484-2.3835-.750758-6.92035 0-8.27648 7.818707-14.73656 35.610289-17.07896 47.629184-20.14462z" transform="matrix(-1 0 0 -1 1289 3218.995856)"/><path d="m473.763246 1515.09823c48.57859-8.13143 98.225585-10.14776 147.622384-10.6601 27.000878-.28097 56.666006-2.37993 83.085347 5.96635 16.228928 5.13999 31.903367 9.63541 48.632687 12.87476 18.000586 3.48726 46.982746 6.0242 57.944034 24.92317 8.188846 14.12257 2.576342 43.15277 2.278812 60.32463-.317817 18.83286 2.846824 32.79842 13.740492 46.27643 6.84996 8.48677 38.273221 39.29365 34.641999 48.17708-3.45541 8.46197-25.350938 9.75936-34.817812 11.9575-29.922086 6.97451-60.243132 9.40403-90.679134 9.0239-47.138273-.57846-94.452359-6.44565-140.853568-16.5273-19.183945-4.18967-39.010285-8.52808-57.335449-16.89916-12.340747-5.64407-22.632592-15.65135-34.892195-21.48549-35.10858-16.73388-72.232252-28.0964-107.462549-45.13604-11.306153-5.4788-48.145819-20.06414-39.314578-42.54127 7.363876-18.76674 32.410521-24.47692 44.717458-37.0542 20.935317-21.45243 45.995486-24.75789 72.692072-29.22026z" transform="matrix(-1 0 0 -1 1217 3228.000006)"/><path d="m1481.87044 769.074863c39.83579 52.876523 87.82778 96.316696 130.59386 145.797781 19.17519 22.185723 38.53943 45.459302 53.15038 72.523912 7.85913 14.554224 16.20439 32.874754 14.03705 50.964524-6.21843 51.92052-79.75259 47.23119-109.46063 50.27225-44.14345 4.46681-94.85643 8.96659-133.88874 36.96247-25.56917 18.33701-35.15677 45.4181-30.38323 80.34495 5.12464 37.4652-6.33321 64.66166-32.40877 85.56173-32.69235 26.18278-73.95952 36.85534-111.9183 44.43738-45.73284 9.09126-92.04503 13.12117-138.37196 12.04062-45.05494-1.0549-88.70551 8.15894-133.463372 14.1504-59.341812 7.93642-120.587642 11.85107-179.261025-4.41736-51.084329-14.16689-97.22632-45.38514-131.815934-93.66298-36.129031-50.38764-54.014622-113.87078-83.351314-169.6153-18.297453-34.77027-43.812611-80.76526-78.003867-94.28108-11.403837-4.508014-32.185963 1.5741-23.077747-20.603374 5.205659-12.68344 14.948547-23.80927 22.64563-34.17689 12.436867-16.754675 25.285595-33.04783 37.931769-49.571744 26.953296-35.223544 55.81736-71.197051 76.018829-112.90654 25.454391-52.513903-12.382852-92.929499-7.771354-146.176883 2.477921-28.655185 18.803841-51.524941 36.075016-69.491091 11.174275-11.636791 23.401835-21.715966 35.885965-31.11935 13.037779-9.823693 28.465706-17.306842 39.835784-30.006767 16.204387-18.073288 9.168982-39.467841 6.130659-62.832078-5.347658-41.060212-6.522356-82.769173-3.497446-124.180711 3.700001-50.758495 12.3761-102.967468 30.653298-149.094323 7.109674-17.957908 16.116613-36.995435 29.491984-49.036052 13.37537-12.040617 27.209866-11.216482 42.536515-7.590286 45.460056 10.713759 90.825587 35.643853 133.949508 59.271813 53.974102 29.578217 106.888182 62.634285 157.418862 100.23958 34.87994 25.960263 69.87466 54.005588 99.05606 89.204408 8.48705 10.244002 16.56224 21.213243 23.09125 33.459894 4.48322 8.397939 6.88687 19.235319 13.38213 25.548195 20.323 19.705076 61.12429 13.82075 84.95825 12.675202 47.56662-2.282855 94.3838-13.136717 141.88966-15.77395 25.92702-1.442237 66.53251-5.068433 85.57266 21.872551 17.90585 25.325679 1.68796 65.213829-9.01369 89.616476-21.03194 47.981159-49.28834 90.729058-74.61445 135.331262-10.41131 18.353494-21.8219 37.555847-28.56698 58.513609-5.99562 18.674906 4.35493 32.190726 14.56369 45.747752z" transform="matrix(-1 0 0 -1 2172.000008 1480.00001)"/><path d="m1482.41551 815.669821c15.78573 29.88472 43.48166 51.973068 66.47157 72.760649 33.08387 29.925884 67.20752 58.188757 100.81804 87.266677 31.78077 27.497233 63.62906 55.307303 93.0602 86.533953 17.94631 19.04225 40.4636 41.81392 48.96413 69.978 18.43919 61.04551-80.75841 51.78372-105.24722 53.38086-60.88108 3.9517-129.90484 4.8573-186.22844 36.99778-35.17018 20.07133-49.61905 53.35616-42.11779 99.56634 2.59269 15.98791 7.26495 29.63774 1.35036 45.54332-6.83958 18.40833-22.5713 29.88472-36.99317 37.9857-45.17636 25.38144-98.57643 30.77386-147.54731 35.26068-50.59131 4.63501-103.3027 7.9034-152.26683 4.51152-19.58025-1.35016-42.11779 6.31449-61.49549 12.19264-29.81599 9.05598-59.32815 19.50328-88.995614 29.21787-60.293665 19.75849-122.153752 38.79251-184.87807 40.95771-45.284392 1.56421-92.499802-6.91547-130.174904-39.68987-38.181488-33.23543-55.12178-84.7557-76.295457-133.73207-36.567805-84.67337-85.957298-187.62335-170.557482-205.51302-12.82844-2.71679-25.157245-1.24314-37.972181-1.90999-6.589767-.33754-14.091029-1.40779-17.433175-9.33588-8.676076-20.58177 15.097048-58.21346 23.097943-73.97909 22.105428-43.56748 46.958842-85.002683 70.124303-127.73042 18.398683-33.926979 41.719436-71.624536 48.835844-111.841302 8.635566-48.803477-47.789313-83.529028-67.632884-117.89234-34.400474-59.588321 30.774752-93.539997 62.906617-121.951063 36.898644-32.617979 67.35606-92.123973 34.278941-142.590456-12.652892-19.297461-28.222567-30.798551-33.873832-55.982396-8.83812-39.385262-2.153828-84.393462 5.016595-123.325926 10.802896-58.526302 27.89848-116.418685 51.138212-169.3138168 16.649964-37.870444 44.27162-97.2529475 84.721716-92.79905401 27.230051 2.97200661 54.912474 13.83094491 81.426833 23.43027931 39.700645 14.3660708 78.901656 30.7409217 117.893361 47.7496907 90.008384 39.1547458 179.024254 82.3270528 266.291404 129.8132968 59.54422 32.412161 225.63875 164.868157 238.13635 169.593729 37.26324 14.077927 79.63085 11.599882 118.04866 9.418215 51.10445-2.897912 101.95233-10.406139 152.75971-17.362775 24.18498-3.293082 48.4915-7.318875 72.80477-8.940718 17.30489-1.152579 40.03148-2.140503 55.18929 10.13446 29.58644 23.94894-3.3759 78.745826-17.00781 101.929124-41.75994 71.072945-94.58611 132.62065-144.11739 195.551449-24.30652 30.897343-48.98438 61.74529-71.0493 95.120678-8.89888 13.476938-31.20687 40.53784-21.4505 58.995566z" transform="matrix(-1 0 0 -1 2146.999996 1528.00001)"/></g><g stroke="#f2a45c" transform="translate(70 250.000002)"><path d="m1343.67569 328.375889c-16.38776 81.846896-51.09006 161.683662-109.42751 210.544652-30.93664 25.909259-66.84909 43.794474-101.32829 61.465495-39.08319 20.027156-79.91738 35.572712-121.62369 43.283703-51.928372 9.605785-136.030576 18.264174-163.160974-53.943984-26.92758-71.672671 41.118136-135.107105 81.357391-171.256494 25.798551-23.157687 53.408961-44.412342 78.058193-69.728447 13.36577-13.724905 23.6622-29.583513 34.97273-45.681031 31.26114-44.601821 75.8272-79.91091 121.25185-98.759998 44.02521-18.272413 98.48883-26.362362 144.96138-20.323734 20.05202 2.595045 34.38455 11.352292 40.44883 36.248248 8.40346 34.608838 1.26424 74.341861-5.50991 108.15159z" transform="matrix(-1 0 0 -1 2195.000008 831.999996)"/><path d="m1138.25345 341.081722c-13.34166 32.544106-48.21096 57.097694-77.09502 64.913601-20.32786 5.496079-44.76242.748332-27.04668-27.580173 17.59919-28.112321 50.25403-53.788406 77.93145-65.17136 21.11629-8.680645 37.66652-.116407 26.21025 27.837932z" transform="matrix(-1 0 0 -1 2169.999994 717.999996)"/><path d="m449.600887 397.865271c3.155475 41.826164 2.446 91.286345-17.993638 127.467462-17.912555 31.69149-49.805147 40.035265-72.488077 65.000566-17.703091 19.477061-24.655946 51.234574-34.176425 76.992162-11.63539 31.493418-27.939802 89.660509-57.291797 101.511799-27.304653 11.01775-55.859334-59.363768-65.744686-80.351127-15.648991-33.218293-28.737116-69.647-47.717262-100.323371-16.344954-26.409575-38.244083-41.009118-61.4878363-56.698056-29.635785-20.038264-74.6300152-43.798628-90.4749573-82.851787-11.8110699-29.10005 26.595178-72.362234 39.7103303-92.524293 13.716517-21.061636 24.047825-46.026937 38.203541-66.345803 22.3383283-32.062874 58.5350683-57.878233 88.4208583-77.578125 29.054692-19.163448 66.785249-40.373637 99.745432-39.11093 21.662637.8253 25.784349 41.661104 30.406072 61.608586 6.621767 28.357281 15.426014 53.768243 34.338591 73.055485 19.250422 19.633868 41.940109 28.885473 65.791984 36.981658 12.243512 4.126496 26.210034 7.345163 37.162977 15.680685 12.101617 9.070038 12.37865 21.408261 13.594893 37.485089z" transform="matrix(-1 0 0 -1 451 942.999998)"/><path d="m256.106141 1288.18259c50.478653-29.13389 105.299846-50.31617 159.136551-69.41157 59.797582-21.18229 121.038181-38.72696 183.08795-46.1919 42.845494-5.17184 88.496106-6.69783 130.080644 9.13115 26.29799 10.01374 44.126678 31.0723 66.756435 48.73245 34.153671 26.69232 71.105717 47.84161 112.137324 42.69451 46.001255-5.75749 92.153095-10.07698 138.455545-12.95848 27.92981-1.74044 55.96751-3.04371 83.93104-1.83117 17.68034.75886 40.45845 2.03739 55.8394 11.81192 20.57986 13.09046-56.72274 112.69999-66.35859 127.21744-23.89746 36.00494-41.41597 73.78331-51.65195 118.39149-8.34793 36.40086 8.70531 65.01509 26.29799 92.24357 10.93726 16.90953 46.27772 59.43907 35.21233 81.39672-6.06877 12.10888-26.06872 11.48199-36.81044 12.10063-20.47197 1.17129-41.03161-.04949-61.50358-.58565-30.2292-.82485-62.40715 4.8419-92.38012.28045-66.426022-10.09623-132.683469-18.83969-199.52082-25.76023-36.844157-3.81083-73.910836-7.27522-110.424583-14.62469-13.108536-2.63953-26.648629-5.43579-39.069372-11.40774-7.990543-3.83558-12.346569-10.36844-19.089643-15.73-32.150978-25.52102-74.119872-38.65272-110.33018-55.0096-48.138807-21.74318-96.53385-43.14818-143.391473-68.83417-24.645936-13.51113-59.06933-29.03491-76.028161-56.60983-5.124737-8.33103-2.939981-14.99586-6.16317-23.00521-3.708691-9.23838-14.976368-11.9934-22.252145-14.56695-16.513789-5.84822-85.637042-14.69067-53.78276-48.9964 15.19889-16.34039 34.564999-26.8243 51.69915-39.66729 6.203628-4.65219 12.252166-9.32912 17.424104-15.60627 8.651364-10.52515 17.17461-16.5301 28.698524-23.20318z" transform="matrix(-1 0 0 -1 1339 2871.999988)"/><path d="m411.319861 1280.58705c80.878351-29.63409 170.86909-46.5078 256.360967-38.67681 29.745103 2.72848 59.672319 9.06745 87.380455 22.99011 12.606258 6.31425 22.069383 13.35389 35.882981 13.73308 32.051866.87377 64.204906-2.18444 96.250027-2.91808 22.932732-.52756 45.980125-.71715 68.858905 1.53323 15.29748 1.50025 35.98415 3.29725 48.516204 14.74698 18.21129 16.67587-14.663444 73.36394-21.354414 89.02591-11.08865 25.97413-22.08961 54.84985-17.69192 84.90434 1.34898 9.1911 3.73668 17.3106 4.04695 26.68305.29677 8.05355-.53285 15.48886 1.80764 23.18795 2.89357 9.54556 15.76288 24.35848 11.33821 33.14567-3.01498 6.001-11.95875 6.28127-17.90777 8.20192-9.64887 3.11447-19.07002 7.20055-28.16679 12.21634-9.577786 5.30858-17.732396 13.5105-27.654175 17.89585-16.106872 7.10559-34.136046 7.77328-51.065799 7.74341-67.550386-.13499-135.957377-16.3987-201.794554-33.4043-34.284435-8.85313-68.757727-18.29153-102.077638-31.71961-10.117382-4.08035-21.583748-8.17719-30.480299-15.71142-5.551071-4.69035-9.314737-10.56771-15.621238-14.09577-53.871686-30.12043-116.154289-41.30638-173.344477-63.06002-14.886041-5.66304-97.383173-34.27498-54.249401-61.18883 26.204019-16.35439 53.891921-23.7897 77.802666-46.16159 7.284515-6.80059 12.140859-12.43065 14.987216-22.80877 1.875088-6.90775-2.637265-3.40441 3.662492-10.6254 7.641996-8.68003 25.091107-12.18336 34.513762-15.63724z" transform="matrix(-1 0 0 -1 1278.000008 2834.997994)"/><path d="m1461.33132 484.258898c24.23061 42.165445 53.22911 82.000716 74.02036 127.542031 13.48768 29.49358 26.73258 68.900691 9.33347 100.106908-19.63805 35.216092-62.94023 43.425221-94.75766 47.912661-32.7818 4.61918-71.91629 8.50554-98.70956 35.20786-8.52421 8.50554-15.55129 19.97527-16.85959 33.7093-1.2611 13.17412 2.29965 26.34825 1.11948 39.76116-2.64359 30.11935-17.60816 54.93612-36.90228 72.93527-57.0731 53.24818-142.01849 65.088422-210.87981 66.479942-34.46776.69164-69.94035-2.93948-104.630651-5.54137-45.01512-3.375862-90.097673-10.621632-133.028944-28.085592-91.277846-37.1181-152.457943-119.43994-195.1869-221.87702-13.447212-32.243679-23.738309-67.130418-44.812802-93.042282-10.864323-13.379974-8.490492-22.988854 2.616609-35.19139 17.365382-19.069551 38.547777-33.643431 57.821666-49.559425 27.413701-22.634799 55.414115-45.607185 79.658213-72.721188 16.71123-18.690795 28.573641-36.698182 32.17485-64.72614 2.569402-19.983506 1.969201-40.345768 3.513539-60.452782 2.940314-38.196738 13.008864-76.105293 30.832827-107.789071 14.16206-25.113183 31.021654-47.93736 48.447731-69.699374 22.652552-28.332609 41.811795-57.11808 59.015326-90.745043 22.807655-44.5120854 54.854375-126.6198404 108.575786-104.8907624 59.25136 23.976913 114.78687 84.899023 152.80188 143.9273524 12.76609 19.818829 23.24601 44.125096 40.46303 58.740145 25.77495 21.844351 51.92755 21.078605 82.58504 20.988033 45.89856-.123508 145.7748-12.284875 146.85381 71.634323.42486 33.248207-11.36337 64.68497-17.00796 96.665167-6.36618 35.817162 6.39316 59.97522 22.94254 88.711287z" transform="matrix(-1 0 0 -1 2156 1007.999996)"/><path d="m1443.57366 409.040679c7.89566 60.720232 8.77295 124.034642-27.91147 171.891047-17.12075 22.3264-38.76294 38.187944-60.64808 52.558866-16.10173 10.574363-32.72985 19.493393-44.75554 36.829089-11.14164 16.050961-19.61091 34.687864-30.3679 51.158834-14.18958 21.827592-31.16792 40.723031-50.2825 55.960121-47.9138 38.12206-106.19993 55.95189-161.96215 62.13674-26.99369 3.00595-56.27509 4.57069-83.086576-3.62362-25.89369-7.90606-51.49721-20.40753-75.305646-34.98434-50.613171-30.95719-94.477919-76.293533-126.276488-133.612509-21.804154-39.316206-33.593648-77.545328-5.358247-117.429783 31.83231-44.957514 81.743645-69.762795 122.88203-98.941119 28.215156-20.012229 59.838261-39.629154 65.108781-82.1572 4.19752-33.839608 7.60547-65.958 18.46369-97.944624 16.160216-47.180849 39.921176-89.919986 69.873166-125.681739 27.39184-32.57958 62.045-60.2261032 101.22634-42.824523 31.04274 13.810909 55.12786 44.751626 82.24978 66.872139 30.22618 24.706456 63.43517 38.327948 98.4055 49.281143 31.4274 9.882583 61.01924 25.068817 81.33199 57.310742 4.15703 6.588388 8.52326 13.761495 11.72876 21.132255 4.08954 9.404924 3.77236 18.727493 4.57543 29.268914 2.09201 27.819469 6.53922 55.317754 10.10913 82.799567z" transform="matrix(-1 0 0 -1 2209.000004 938.999994)"/></g></g></svg>