<svg height="796" viewBox="0 0 1111 796" width="1111" xmlns="http://www.w3.org/2000/svg" xmlns:xlink="http://www.w3.org/1999/xlink"><defs><rect id="a" height="60" rx="5" width="60" x="13" y="13"/><mask id="b" fill="#fff" height="60" width="60" x="0" y="0"><use xlink:href="#a"/></mask></defs><g fill="none" fill-rule="evenodd"><g transform="translate(139)"><rect fill="#1787e0" height="150" rx="5" width="120" x=".991736"/><path d="m.99173554 14.9006623h120.00000046v130.0904287c0 2.766344-2.237347 5.008909-5.003474 5.008909h-109.9930533c-2.76334192 0-5.00347316-2.232184-5.00347316-5.008909z" fill="#e4f3ff"/><g fill="#55b4ff"><ellipse cx="8.429752" cy="7.450331" rx="2.479339" ry="2.483444"/><ellipse cx="15.371901" cy="7.450331" rx="2.479339" ry="2.483444"/><ellipse cx="22.31405" cy="7.450331" rx="2.479339" ry="2.483444"/></g><text fill="#1787e0" font-family="Helvetica" font-size="13" letter-spacing=".2166667"><tspan x="25.195916" y="85.516556">Home Page</tspan></text></g><g transform="matrix(-1 0 0 1 140 74)"><path d="m1 3h57.853535" stroke="#1787e0" stroke-linecap="square"/><circle cx="2.5" cy="3" fill="#fff" r="2.5" stroke="#1787e0"/><path d="m57 5.5v-5l3 2.5z" fill="#1787e0"/></g><rect fill="#e4f3ff" height="78" rx="5" stroke="#1787e0" stroke-width="2" width="78" x="1" y="38"/><g fill="#1787e0" transform="translate(0 37)"><path d="m73.3391651 6.48830217c.330505-.33050501.8800944-.33407192 1.2168709.00270456l.0776959.08877977c.2589186.33931651.2323512.82074861-.0749913 1.12809116l-1.1056638 1.10454613 1.1056638 1.10541593c.3073425.30734258.3339099.78877468.0749913 1.12809118l-.0776959.0887798c-.3367765.3367764-.8863659.3332095-1.2168709.0027045l-1.1050883-1.1059914-1.1048738 1.1059914c-.3029629.3029629-.7900176.331207-1.1284931.0744068l-.0883778-.0771113c-.3391244-.3391245-.3379874-.8815882-.0027046-1.21687098l1.1044493-1.10541593-1.1044493-1.10454613c-.3352828-.33528279-.3364198-.87774652.0027046-1.21687093.3367764-.33677648.8863659-.33320957 1.2168709-.00270456l1.1048738 1.10412162z"/><text font-family="Helvetica" font-size="11" letter-spacing=".1833334"><tspan x="24.561686" y="44">Modal</tspan></text></g><g transform="matrix(0 1 -1 0 202.5 149.5)"><path d="m1 2.5h117.70202" stroke="#1787e0" stroke-linecap="square"/><circle cx="2.5" cy="2.5" fill="#fff" r="2.5" stroke="#1787e0"/><path d="m117 5v-5l3 2.5z" fill="#1787e0"/></g><g transform="translate(139 269)"><rect fill="#1787e0" height="150" rx="5" width="120" x=".991736"/><path d="m.99173554 14.9006623h120.00000046v130.0904287c0 2.766344-2.237347 5.008909-5.003474 5.008909h-109.9930533c-2.76334192 0-5.00347316-2.232184-5.00347316-5.008909z" fill="#e4f3ff"/><g fill="#55b4ff"><ellipse cx="8.429752" cy="7.450331" rx="2.479339" ry="2.483444"/><ellipse cx="15.371901" cy="7.450331" rx="2.479339" ry="2.483444"/><ellipse cx="22.31405" cy="7.450331" rx="2.479339" ry="2.483444"/></g><text fill="#1787e0" font-family="Helvetica" font-size="13" letter-spacing=".2166667"><tspan x="12.516685" y="85.516556">Products Listing</tspan></text></g><g transform="translate(140 419)"><path d="m3 0v47.9964348c0 5.5248165 4.46789355 10.0035652 10.0039079 10.0035652h48.4801129" stroke="#1787e0"/><circle cx="3" cy="3" fill="#fff" r="3" stroke="#1787e0"/><path d="m60 61v-6l3 3z" fill="#1787e0"/></g><g transform="translate(143 462)"><path d="m0 0v99.995475c0 5.525347 4.46789355 10.004525 10.0039079 10.004525h48.4801129" stroke="#1787e0"/><path d="m57 113v-6l3 3z" fill="#1787e0"/></g><g transform="translate(143 563)"><path d="m0 0v93.0068856c0 5.5190447 4.46789355 9.9931144 10.0039079 9.9931144h48.4801129" stroke="#1787e0"/><path d="m57 106v-6l3 3z" fill="#1787e0"/></g><g transform="matrix(0 1 1 0 254 149.95122)"><path d="m0 3h49.0181502c5.5194733 0 9.9938906 4.4788978 9.9938906 10.0004057v341.9991883c0 5.523072 4.4788835 10.000406 10.0056992 10.000406h47.53104" stroke="#1787e0"/><circle cx="3" cy="3" fill="#fff" r="3" stroke="#1787e0"/><path d="m115.04878 368v-6l3 3z" fill="#1787e0"/></g><g transform="translate(260 74)"><path d="m1 2.5h117.70202" stroke="#1787e0" stroke-linecap="square"/><circle cx="2.5" cy="2.5" fill="#fff" r="2.5" stroke="#1787e0"/><path d="m117 5v-5l3 2.5z" fill="#1787e0"/></g><g transform="translate(379)"><rect fill="#1787e0" height="150" rx="5" width="120" x=".991736"/><path d="m.99173554 14.9006623h120.00000046v130.0904287c0 2.766344-2.237347 5.008909-5.003474 5.008909h-109.9930533c-2.76334192 0-5.00347316-2.232184-5.00347316-5.008909z" fill="#e4f3ff"/><g fill="#55b4ff"><ellipse cx="8.429752" cy="7.450331" rx="2.479339" ry="2.483444"/><ellipse cx="15.371901" cy="7.450331" rx="2.479339" ry="2.483444"/><ellipse cx="22.31405" cy="7.450331" rx="2.479339" ry="2.483444"/></g><text fill="#1787e0" font-family="Helvetica" font-size="13" letter-spacing=".2166667"><tspan x="42.967873" y="85.516556">About</tspan></text></g><g transform="translate(559 269)"><rect fill="#1787e0" height="150" rx="5" width="120" x=".991736"/><path d="m.99173554 14.9006623h120.00000046v130.0904287c0 2.766344-2.237347 5.008909-5.003474 5.008909h-109.9930533c-2.76334192 0-5.00347316-2.232184-5.00347316-5.008909z" fill="#e4f3ff"/><g fill="#55b4ff"><ellipse cx="8.429752" cy="7.450331" rx="2.479339" ry="2.483444"/><ellipse cx="15.371901" cy="7.450331" rx="2.479339" ry="2.483444"/><ellipse cx="22.31405" cy="7.450331" rx="2.479339" ry="2.483444"/></g><text fill="#1787e0" font-family="Helvetica" font-size="13" letter-spacing=".2166667"><tspan x="44.050148" y="85.516556">Login</tspan></text></g><g transform="translate(559 539)"><rect fill="#1787e0" height="69" rx="5" width="120" x=".991736"/><path d="m.99173554 14.9006623h120.00000046v49.1067719c0 2.7573179-2.237347 4.9925658-5.003474 4.9925658h-109.9930533c-2.76334192 0-5.00347316-2.2386315-5.00347316-4.9925658z" fill="#e4f3ff"/><g fill="#55b4ff"><ellipse cx="8.429752" cy="7.450331" rx="2.479339" ry="2.483444"/><ellipse cx="15.371901" cy="7.450331" rx="2.479339" ry="2.483444"/><ellipse cx="22.31405" cy="7.450331" rx="2.479339" ry="2.483444"/></g><text fill="#1787e0" font-family="Helvetica" font-size="13" letter-spacing=".2166667"><tspan x="14.901076" y="42.307616">Forgotten Pass</tspan></text></g><g transform="matrix(0 1 1 0 587 209)"><path d="m0 0v203.50659c0 5.519208 4.46789355 9.99341 10.0039079 9.99341h48.4801129" stroke="#1787e0"/><path d="m57 216.5v-6l3 3z" fill="#1787e0"/></g><g transform="translate(739 269)"><rect fill="#1787e0" height="150" rx="5" width="120" x=".991736"/><path d="m.99173554 14.9006623h120.00000046v130.0904287c0 2.766344-2.237347 5.008909-5.003474 5.008909h-109.9930533c-2.76334192 0-5.00347316-2.232184-5.00347316-5.008909z" fill="#e4f3ff"/><g fill="#55b4ff"><ellipse cx="8.429752" cy="7.450331" rx="2.479339" ry="2.483444"/><ellipse cx="15.371901" cy="7.450331" rx="2.479339" ry="2.483444"/><ellipse cx="22.31405" cy="7.450331" rx="2.479339" ry="2.483444"/></g><text fill="#1787e0" font-family="Helvetica" font-size="13" letter-spacing=".2166667"><tspan x="35.425588" y="85.516556">Register</tspan></text></g><g transform="translate(979 269)"><rect fill="#1787e0" height="150" rx="5" width="120" x=".991736"/><path d="m.99173554 14.9006623h120.00000046v130.0904287c0 2.766344-2.237347 5.008909-5.003474 5.008909h-109.9930533c-2.76334192 0-5.00347316-2.232184-5.00347316-5.008909z" fill="#e4f3ff"/><g fill="#55b4ff"><ellipse cx="8.429752" cy="7.450331" rx="2.479339" ry="2.483444"/><ellipse cx="15.371901" cy="7.450331" rx="2.479339" ry="2.483444"/><ellipse cx="22.31405" cy="7.450331" rx="2.479339" ry="2.483444"/></g><text fill="#1787e0" font-family="Helvetica" font-size="13" letter-spacing=".2166667"><tspan x="27.722284" y="85.516556">Dashboard</tspan></text></g><g transform="translate(1089 258)"><circle cx="11" cy="11" fill="#72c850" r="11"/><text fill="#fff" font-family="Helvetica" font-size="11" letter-spacing=".1833334"><tspan x="8.349495" y="15">3</tspan></text></g><g transform="matrix(0 1 -1 0 621 419)"><path d="m1 2.5h117.70202" stroke="#1787e0" stroke-linecap="square"/><circle cx="2.5" cy="2.5" fill="#fff" r="2.5" stroke="#1787e0"/><path d="m117 5v-5l3 2.5z" fill="#1787e0"/></g><g transform="translate(575 436)"><use fill="#e4f3ff" mask="url(#b)" stroke="#1787e0" stroke-dasharray="3" stroke-width="4" transform="matrix(.70710678 -.70710678 .70710678 .70710678 -17.811183 43)" xlink:href="#a"/><text fill="#1787e0" font-family="Helvetica" font-size="11" letter-spacing=".1833334"><tspan x="11.905257" y="47">Can't log in?</tspan></text></g><g transform="translate(860 342)"><path d="m1 2.5h117.70202" stroke="#1787e0" stroke-linecap="square"/><circle cx="2.5" cy="2.5" fill="#fff" r="2.5" stroke="#1787e0"/><path d="m117 5v-5l3 2.5z" fill="#1787e0"/></g><g transform="translate(881 334)"><rect fill="#4cba38" height="20" rx="10" width="78"/><text fill="#fff" font-family="Helvetica" font-size="13" letter-spacing=".2166667"><tspan x="13.676237" y="16">Success</tspan> <tspan x="37.085758" y="32">!</tspan></text></g><g transform="translate(1045 440)"><path d="m0 4.99916234c0-2.76096112 2.23446755-4.99916234 5.00841312-4.99916234h46.98317378c2.7660702 0 5.0084131 2.23483375 5.0084131 4.99916234v64.00167536c0 2.7609611-2.2344676 4.9991623-5.0084131 4.9991623h-46.98317378c-2.76607019 0-5.00841312-2.2348337-5.00841312-4.9991623z" fill="#1787e0"/><path d="m0 7h57v61.9915111c0 2.766112-2.2344676 5.0084889-5.0084131 5.0084889h-46.98317378c-2.76607019 0-5.00841312-2.2292099-5.00841312-5.0084889z" fill="#e4f3ff"/><g fill="#55b4ff"><ellipse cx="4.214876" cy="3.725166" rx="1.239669" ry="1.241722"/><ellipse cx="7.68595" cy="3.725166" rx="1.239669" ry="1.241722"/><ellipse cx="11.157025" cy="3.725166" rx="1.239669" ry="1.241722"/></g><text fill="#1787e0" font-family="Helvetica" font-size="11" letter-spacing=".1833334"><tspan x="12.3604" y="44">Profile</tspan></text></g><g transform="translate(1045 534)"><path d="m0 4.99916234c0-2.76096112 2.23446755-4.99916234 5.00841312-4.99916234h46.98317378c2.7660702 0 5.0084131 2.23483375 5.0084131 4.99916234v64.00167536c0 2.7609611-2.2344676 4.9991623-5.0084131 4.9991623h-46.98317378c-2.76607019 0-5.00841312-2.2348337-5.00841312-4.9991623z" fill="#1787e0"/><path d="m0 7h57v61.9915111c0 2.766112-2.2344676 5.0084889-5.0084131 5.0084889h-46.98317378c-2.76607019 0-5.00841312-2.2292099-5.00841312-5.0084889z" fill="#e4f3ff"/><g fill="#55b4ff"><ellipse cx="4.214876" cy="3.725166" rx="1.239669" ry="1.241722"/><ellipse cx="7.68595" cy="3.725166" rx="1.239669" ry="1.241722"/><ellipse cx="11.157025" cy="3.725166" rx="1.239669" ry="1.241722"/></g><text fill="#1787e0" font-family="Helvetica" font-size="11" letter-spacing=".1833334"><tspan x="2.699772" y="44">Messages</tspan></text></g><g transform="translate(1045 628)"><path d="m0 4.99916234c0-2.76096112 2.23446755-4.99916234 5.00841312-4.99916234h46.98317378c2.7660702 0 5.0084131 2.23483375 5.0084131 4.99916234v64.00167536c0 2.7609611-2.2344676 4.9991623-5.0084131 4.9991623h-46.98317378c-2.76607019 0-5.00841312-2.2348337-5.00841312-4.9991623z" fill="#1787e0"/><path d="m0 7h57v61.9915111c0 2.766112-2.2344676 5.0084889-5.0084131 5.0084889h-46.98317378c-2.76607019 0-5.00841312-2.2292099-5.00841312-5.0084889z" fill="#e4f3ff"/><g fill="#55b4ff"><ellipse cx="4.214876" cy="3.725166" rx="1.239669" ry="1.241722"/><ellipse cx="7.68595" cy="3.725166" rx="1.239669" ry="1.241722"/><ellipse cx="11.157025" cy="3.725166" rx="1.239669" ry="1.241722"/></g><text fill="#1787e0" font-family="Helvetica" font-size="11" letter-spacing=".1833334"><tspan x="13.673991" y="44">Notes</tspan></text></g><g transform="translate(1045 722)"><path d="m0 4.99916234c0-2.76096112 2.23446755-4.99916234 5.00841312-4.99916234h46.98317378c2.7660702 0 5.0084131 2.23483375 5.0084131 4.99916234v64.00167536c0 2.7609611-2.2344676 4.9991623-5.0084131 4.9991623h-46.98317378c-2.76607019 0-5.00841312-2.2348337-5.00841312-4.9991623z" fill="#1787e0"/><path d="m0 7h57v61.9915111c0 2.766112-2.2344676 5.0084889-5.0084131 5.0084889h-46.98317378c-2.76607019 0-5.00841312-2.2292099-5.00841312-5.0084889z" fill="#e4f3ff"/><g fill="#55b4ff"><ellipse cx="4.214876" cy="3.725166" rx="1.239669" ry="1.241722"/><ellipse cx="7.68595" cy="3.725166" rx="1.239669" ry="1.241722"/><ellipse cx="11.157025" cy="3.725166" rx="1.239669" ry="1.241722"/></g><text fill="#1787e0" font-family="Helvetica" font-size="11" letter-spacing=".1833334"><tspan x="7.89362" y="44">Settings</tspan></text></g><g transform="translate(981 419)"><path d="m3 0v47.9964348c0 5.5248165 4.46789355 10.0035652 10.0039079 10.0035652h48.4801129" stroke="#1787e0"/><circle cx="3" cy="3" fill="#fff" r="3" stroke="#1787e0"/><path d="m60 61v-6l3 3z" fill="#1787e0"/></g><g transform="translate(984 468)"><path d="m0 0v93.0068856c0 5.5190447 4.46789355 9.9931144 10.0039079 9.9931144h48.4801129" stroke="#1787e0"/><path d="m57 106v-6l3 3z" fill="#1787e0"/></g><g transform="translate(984 563)"><path d="m0 0v93.0068856c0 5.5190447 4.46789355 9.9931144 10.0039079 9.9931144h48.4801129" stroke="#1787e0"/><path d="m57 106v-6l3 3z" fill="#1787e0"/></g><g transform="translate(984 656)"><path d="m0 0v93.0068856c0 5.5190447 4.46789355 9.9931144 10.0039079 9.9931144h48.4801129" stroke="#1787e0"/><path d="m57 106v-6l3 3z" fill="#1787e0"/></g><g transform="translate(249 258)"><circle cx="11" cy="11" fill="#15bdf4" r="11"/><text fill="#fff" font-family="Helvetica" font-size="11" letter-spacing=".1833334"><tspan x="8.349495" y="15">1</tspan></text></g><g transform="translate(204 440)"><path d="m0 4.99916234c0-2.76096112 2.23446755-4.99916234 5.00841312-4.99916234h46.98317378c2.7660702 0 5.0084131 2.23483375 5.0084131 4.99916234v64.00167536c0 2.7609611-2.2344676 4.9991623-5.0084131 4.9991623h-46.98317378c-2.76607019 0-5.00841312-2.2348337-5.00841312-4.9991623z" fill="#1787e0"/><path d="m0 7h57v61.9915111c0 2.766112-2.2344676 5.0084889-5.0084131 5.0084889h-46.98317378c-2.76607019 0-5.00841312-2.2292099-5.00841312-5.0084889z" fill="#e4f3ff"/><g fill="#55b4ff"><ellipse cx="4.214876" cy="3.725166" rx="1.239669" ry="1.241722"/><ellipse cx="7.68595" cy="3.725166" rx="1.239669" ry="1.241722"/><ellipse cx="11.157025" cy="3.725166" rx="1.239669" ry="1.241722"/></g><text fill="#1787e0" font-family="Helvetica" font-size="11" letter-spacing=".1833334"><tspan x="5.836849" y="44">Subpage</tspan></text></g><g transform="translate(204 534)"><path d="m0 4.99916234c0-2.76096112 2.23446755-4.99916234 5.00841312-4.99916234h46.98317378c2.7660702 0 5.0084131 2.23483375 5.0084131 4.99916234v64.00167536c0 2.7609611-2.2344676 4.9991623-5.0084131 4.9991623h-46.98317378c-2.76607019 0-5.00841312-2.2348337-5.00841312-4.9991623z" fill="#1787e0"/><path d="m0 7h57v61.9915111c0 2.766112-2.2344676 5.0084889-5.0084131 5.0084889h-46.98317378c-2.76607019 0-5.00841312-2.2292099-5.00841312-5.0084889z" fill="#e4f3ff"/><g fill="#55b4ff"><ellipse cx="4.214876" cy="3.725166" rx="1.239669" ry="1.241722"/><ellipse cx="7.68595" cy="3.725166" rx="1.239669" ry="1.241722"/><ellipse cx="11.157025" cy="3.725166" rx="1.239669" ry="1.241722"/></g><text fill="#1787e0" font-family="Helvetica" font-size="11" letter-spacing=".1833334"><tspan x="5.836849" y="44">Subpage</tspan></text></g><g transform="translate(204 628)"><path d="m0 4.99916234c0-2.76096112 2.23446755-4.99916234 5.00841312-4.99916234h46.98317378c2.7660702 0 5.0084131 2.23483375 5.0084131 4.99916234v64.00167536c0 2.7609611-2.2344676 4.9991623-5.0084131 4.9991623h-46.98317378c-2.76607019 0-5.00841312-2.2348337-5.00841312-4.9991623z" fill="#1787e0"/><path d="m0 7h57v61.9915111c0 2.766112-2.2344676 5.0084889-5.0084131 5.0084889h-46.98317378c-2.76607019 0-5.00841312-2.2292099-5.00841312-5.0084889z" fill="#e4f3ff"/><g fill="#55b4ff"><ellipse cx="4.214876" cy="3.725166" rx="1.239669" ry="1.241722"/><ellipse cx="7.68595" cy="3.725166" rx="1.239669" ry="1.241722"/><ellipse cx="11.157025" cy="3.725166" rx="1.239669" ry="1.241722"/></g><text fill="#1787e0" font-family="Helvetica" font-size="11" letter-spacing=".1833334"><tspan x="5.836849" y="44">Subpage</tspan></text></g><g transform="translate(619 2)"><rect fill="#1787e0" height="150" rx="5" width="120" x=".991736"/><path d="m.99173554 14.9006623h120.00000046v130.0904287c0 2.766344-2.237347 5.008909-5.003474 5.008909h-109.9930533c-2.76334192 0-5.00347316-2.232184-5.00347316-5.008909z" fill="#e4f3ff"/><g fill="#55b4ff"><ellipse cx="8.429752" cy="7.450331" rx="2.479339" ry="2.483444"/><ellipse cx="15.371901" cy="7.450331" rx="2.479339" ry="2.483444"/><ellipse cx="22.31405" cy="7.450331" rx="2.479339" ry="2.483444"/></g><text fill="#1787e0" font-family="Helvetica" font-size="13" letter-spacing=".2166667"><tspan x="37.336655" y="85.516556">Contact</tspan></text></g><g stroke="#1787e0"><path d="m501 77.5h117.70202" stroke-linecap="square"/><g fill="#fff"><circle cx="617.5" cy="77.5" r="2.5"/><circle cx="502.5" cy="77.5" r="2.5"/></g></g></g></svg>